<svg width="24" height="24" viewBox="0 0 24 24" fill="none" xmlns="http://www.w3.org/2000/svg">
<path d="M12 8V12L14 14" stroke="#7600CD" stroke-width="2" stroke-linecap="round" stroke-linejoin="round"/>
<path d="M3.04688 10.9981C3.27097 8.79817 4.29714 6.75773 5.92961 5.26608C7.56208 3.77443 9.68657 2.936 11.8978 2.91074C14.1089 2.88549 16.252 3.67518 17.9181 5.12915C19.5843 6.58312 20.6568 8.59959 20.931 10.7938C21.2053 12.9881 20.6622 15.2065 19.4052 17.0259C18.1483 18.8452 16.2655 20.1382 14.1162 20.658C11.9668 21.1778 9.70129 20.8881 7.75187 19.8442C5.80246 18.8003 4.3056 17.0752 3.54688 14.9981M3.04688 19.9981V14.9981H8.04688" stroke="#7600CD" stroke-width="2" stroke-linecap="round" stroke-linejoin="round"/>
</svg>
