<svg width="22" height="22" viewBox="0 0 22 22" fill="none" xmlns="http://www.w3.org/2000/svg">
<path d="M10.9971 6.12499C10.0329 6.12499 9.09036 6.41091 8.28867 6.94658C7.48698 7.48225 6.86214 8.24362 6.49317 9.13441C6.12419 10.0252 6.02765 11.0054 6.21575 11.9511C6.40385 12.8967 6.86815 13.7654 7.54993 14.4471C8.23171 15.1289 9.10035 15.5932 10.046 15.7813C10.9917 15.9694 11.9719 15.8729 12.8627 15.5039C13.7534 15.1349 14.5148 14.5101 15.0505 13.7084C15.5862 12.9067 15.8721 11.9642 15.8721 11C15.8706 9.70752 15.3565 8.46841 14.4426 7.55449C13.5287 6.64057 12.2896 6.12648 10.9971 6.12499ZM10.9971 13.625C10.4779 13.625 9.97038 13.471 9.53871 13.1826C9.10703 12.8942 8.77057 12.4842 8.57189 12.0045C8.37321 11.5249 8.32123 10.9971 8.42252 10.4879C8.5238 9.97868 8.77381 9.51095 9.14092 9.14384C9.50803 8.77672 9.97577 8.52672 10.485 8.42543C10.9942 8.32414 11.522 8.37613 12.0016 8.57481C12.4813 8.77349 12.8912 9.10994 13.1797 9.54162C13.4681 9.9733 13.6221 10.4808 13.6221 11C13.6221 11.6962 13.3455 12.3639 12.8532 12.8561C12.361 13.3484 11.6933 13.625 10.9971 13.625ZM21.6715 8.9778C21.6397 8.81934 21.5742 8.66958 21.4794 8.5387C21.3846 8.40783 21.2628 8.29891 21.1221 8.21937L18.5168 6.73343L18.5065 3.79812C18.5059 3.63526 18.47 3.47446 18.4012 3.32684C18.3324 3.17922 18.2324 3.0483 18.108 2.94312C17.0581 2.05481 15.8492 1.37371 14.5455 0.935929C14.3968 0.885764 14.2392 0.867272 14.0829 0.881642C13.9266 0.896011 13.7751 0.942925 13.638 1.01937L10.9971 2.49405L8.35614 1.01843C8.21889 0.941567 8.06704 0.894345 7.9104 0.879812C7.75376 0.865278 7.59582 0.883757 7.44676 0.934054C6.14266 1.37366 4.93379 2.05667 3.88426 2.94687C3.76033 3.05193 3.66063 3.18259 3.59201 3.32986C3.52339 3.47713 3.48749 3.63752 3.48676 3.79999L3.47364 6.73812L0.872077 8.2203C0.731368 8.30015 0.609535 8.4094 0.514889 8.54061C0.420243 8.67182 0.35501 8.8219 0.32364 8.98062C0.0587868 10.3148 0.0587868 11.688 0.32364 13.0222C0.355258 13.1806 0.420606 13.3303 0.515241 13.4611C0.609876 13.592 0.731579 13.701 0.872077 13.7806L3.4802 15.2666L3.49051 18.2019C3.49108 18.3647 3.527 18.5255 3.59579 18.6731C3.66459 18.8208 3.76461 18.9517 3.88895 19.0569C4.93885 19.9452 6.14772 20.6263 7.45145 21.0641C7.60017 21.1142 7.75774 21.1327 7.91403 21.1183C8.07032 21.104 8.22188 21.0571 8.35895 20.9806L10.9971 19.5059L13.6352 20.9816C13.7725 21.0584 13.9243 21.1056 14.0809 21.1202C14.2376 21.1347 14.3955 21.1162 14.5446 21.0659C15.8487 20.6263 17.0576 19.9433 18.1071 19.0531C18.231 18.9481 18.3307 18.8174 18.3993 18.6701C18.4679 18.5229 18.5039 18.3625 18.5046 18.2L18.5177 15.2619L21.1249 13.7797C21.2656 13.6998 21.3874 13.5906 21.4821 13.4594C21.5767 13.3282 21.642 13.1781 21.6733 13.0194C21.9376 11.6851 21.9369 10.3119 21.6715 8.9778ZM19.5499 12.0884L17.0299 13.5209C16.8508 13.6224 16.7033 13.7713 16.6033 13.9512C16.5527 14.045 16.4993 14.1322 16.444 14.2212C16.3328 14.3986 16.2734 14.6035 16.2724 14.8128L16.2593 17.6562C15.6528 18.1126 14.9886 18.4868 14.284 18.7691L11.7386 17.345C11.5708 17.251 11.3816 17.2016 11.1893 17.2016H11.1621C11.0552 17.2016 10.9465 17.2016 10.8396 17.2016C10.6385 17.1968 10.4399 17.2457 10.264 17.3431L7.71583 18.7644C7.01004 18.4835 6.34431 18.1109 5.73583 17.6562L5.72551 14.8212C5.72465 14.6116 5.66523 14.4064 5.55395 14.2287C5.49958 14.1406 5.4452 14.0497 5.39458 13.9587C5.29457 13.7799 5.14733 13.632 4.96895 13.5312L2.44708 12.0903C2.34911 11.3674 2.34911 10.6345 2.44708 9.91155L4.96708 8.47905C5.14582 8.37758 5.29334 8.22908 5.39364 8.04968C5.44426 7.95593 5.4977 7.8678 5.55301 7.77874C5.66412 7.60135 5.72353 7.39649 5.72458 7.18718L5.73489 4.34374C6.3416 3.88866 7.00579 3.51574 7.7102 3.23468L10.2555 4.65874C10.4313 4.75738 10.6306 4.80662 10.8321 4.80124C10.939 4.80124 11.0477 4.80124 11.1546 4.80124C11.3556 4.806 11.5543 4.75714 11.7302 4.65968L14.2783 3.23562C14.9841 3.51645 15.6498 3.88903 16.2583 4.34374L16.2686 7.17874C16.2695 7.38837 16.3289 7.59358 16.4402 7.77124C16.4946 7.85937 16.549 7.9503 16.5996 8.04124C16.6996 8.22007 16.8468 8.36795 17.0252 8.46874L19.5471 9.90593C19.6463 10.63 19.6473 11.3641 19.5499 12.0884Z" fill="#7600CD"/>
</svg>
