<svg width="22" height="22" viewBox="0 0 22 22" fill="none" xmlns="http://www.w3.org/2000/svg">
<path d="M20.5 15.5V8.5H1.5V19.5C1.5 19.7652 1.60536 20.0196 1.79289 20.2071C1.98043 20.3946 2.23478 20.5 2.5 20.5H11" stroke="#A0A0A0" stroke-width="2" stroke-linecap="round" stroke-linejoin="round"/>
<path d="M1.5 4C1.5 3.73478 1.60536 3.48043 1.79289 3.29289C1.98043 3.10536 2.23478 3 2.5 3H19.5C19.7652 3 20.0196 3.10536 20.2071 3.29289C20.3946 3.48043 20.5 3.73478 20.5 4V8.5H1.5V4Z" stroke="#A0A0A0" stroke-width="2" stroke-linejoin="round"/>
<path d="M7 1.5V5.5M15 1.5V5.5" stroke="#A0A0A0" stroke-width="2" stroke-linecap="round"/>
<path d="M14 18.5C15.933 18.5 17.5 16.933 17.5 15C17.5 13.067 15.933 11.5 14 11.5C12.067 11.5 10.5 13.067 10.5 15C10.5 16.933 12.067 18.5 14 18.5Z" stroke="#A0A0A0" stroke-width="2"/>
<path d="M17 17.5L20 20" stroke="#A0A0A0" stroke-width="2" stroke-linecap="round" stroke-linejoin="round"/>
</svg>
