<svg width="19" height="19" viewBox="0 0 19 19" fill="none" xmlns="http://www.w3.org/2000/svg">
<path d="M7.611 7.611C7.75352 7.46852 7.93575 7.37243 8.13383 7.33531C8.3319 7.2982 8.53657 7.32179 8.721 7.403L17.56 11.292C17.7492 11.3753 17.9079 11.5152 18.0143 11.6923C18.1207 11.8695 18.1696 12.0753 18.1542 12.2815C18.1389 12.4876 18.0601 12.6839 17.9286 12.8434C17.7971 13.0028 17.6194 13.1176 17.42 13.172L14.082 14.082L13.172 17.42C13.1176 17.6194 13.0028 17.7971 12.8434 17.9286C12.6839 18.0601 12.4876 18.1389 12.2815 18.1542C12.0753 18.1696 11.8695 18.1207 11.6923 18.0143C11.5152 17.9079 11.3753 17.7492 11.292 17.56L7.402 8.72C7.32114 8.5356 7.29782 8.33107 7.33511 8.1332C7.3724 7.93533 7.46856 7.75332 7.611 7.611ZM14 0C14.7956 0 15.5587 0.316071 16.1213 0.87868C16.6839 1.44129 17 2.20435 17 3V6C17 6.26522 16.8946 6.51957 16.7071 6.70711C16.5196 6.89464 16.2652 7 16 7C15.7348 7 15.4804 6.89464 15.2929 6.70711C15.1054 6.51957 15 6.26522 15 6V3C15 2.73478 14.8946 2.48043 14.7071 2.29289C14.5196 2.10536 14.2652 2 14 2H3C2.73478 2 2.48043 2.10536 2.29289 2.29289C2.10536 2.48043 2 2.73478 2 3V14C2 14.2652 2.10536 14.5196 2.29289 14.7071C2.48043 14.8946 2.73478 15 3 15H6C6.26522 15 6.51957 15.1054 6.70711 15.2929C6.89464 15.4804 7 15.7348 7 16C7 16.2652 6.89464 16.5196 6.70711 16.7071C6.51957 16.8946 6.26522 17 6 17H3C2.20435 17 1.44129 16.6839 0.87868 16.1213C0.316071 15.5587 0 14.7956 0 14V3C0 2.20435 0.316071 1.44129 0.87868 0.87868C1.44129 0.316071 2.20435 0 3 0H14ZM10.27 10.269L11.985 14.169L12.303 13.005C12.3487 12.8371 12.4374 12.6841 12.5603 12.5609C12.6832 12.4378 12.8362 12.3489 13.004 12.303L14.169 11.985L10.269 10.269H10.27Z" fill="#A0A0A0"/>
</svg>
