<svg width="20" height="20" viewBox="0 0 20 20" fill="none" xmlns="http://www.w3.org/2000/svg">
<path d="M6 9.00162C6 8.7364 6.10536 8.48205 6.29289 8.29451C6.48043 8.10698 6.73478 8.00162 7 8.00162H13C13.2652 8.00162 13.5196 8.10698 13.7071 8.29451C13.8946 8.48205 14 8.7364 14 9.00162C14 9.26684 13.8946 9.52119 13.7071 9.70873C13.5196 9.89626 13.2652 10.0016 13 10.0016H7C6.73478 10.0016 6.48043 9.89626 6.29289 9.70873C6.10536 9.52119 6 9.26684 6 9.00162ZM7 12.0016C6.73478 12.0016 6.48043 12.107 6.29289 12.2945C6.10536 12.4821 6 12.7364 6 13.0016C6 13.2668 6.10536 13.5212 6.29289 13.7087C6.48043 13.8963 6.73478 14.0016 7 14.0016H11C11.2652 14.0016 11.5196 13.8963 11.7071 13.7087C11.8946 13.5212 12 13.2668 12 13.0016C12 12.7364 11.8946 12.4821 11.7071 12.2945C11.5196 12.107 11.2652 12.0016 11 12.0016H7ZM1.12671e-06 10.0016C0.000502681 7.80922 0.721484 5.67774 2.05199 3.93522C3.38249 2.19269 5.24877 0.935701 7.3636 0.357697C9.47844 -0.220307 11.7246 -0.0872902 13.7565 0.736276C15.7883 1.55984 17.4932 3.02831 18.6087 4.91569C19.7243 6.80307 20.1886 9.00474 19.9304 11.1819C19.6721 13.359 18.7055 15.391 17.1794 16.965C15.6533 18.539 13.6521 19.5678 11.484 19.8932C9.31588 20.2185 7.10092 19.8224 5.18 18.7656L1.292 19.9496C1.11858 20.0024 0.934066 20.0071 0.758187 19.9632C0.582309 19.9192 0.421685 19.8283 0.293496 19.7001C0.165308 19.5719 0.074377 19.4113 0.0304305 19.2354C-0.0135161 19.0596 -0.00882534 18.875 0.044001 18.7016L1.228 14.8076C0.42153 13.3342 -0.000796137 11.6813 1.12671e-06 10.0016ZM10 2.00162C8.57988 2.0015 7.18532 2.37941 5.95956 3.09653C4.7338 3.81366 3.72102 4.84414 3.02526 6.08215C2.32949 7.32015 1.97581 8.72105 2.00054 10.141C2.02528 11.5609 2.42754 12.9486 3.166 14.1616C3.23931 14.2821 3.28629 14.4168 3.30387 14.5567C3.32145 14.6967 3.30923 14.8387 3.268 14.9736L2.502 17.4916L5.016 16.7256C5.15132 16.6844 5.29384 16.6724 5.43416 16.6903C5.57448 16.7082 5.70939 16.7557 5.83 16.8296C6.88436 17.4733 8.07347 17.8642 9.30414 17.9714C10.5348 18.0787 11.7736 17.8995 12.9234 17.4478C14.0732 16.9962 15.1029 16.2845 15.9316 15.3683C16.7603 14.4522 17.3656 13.3566 17.7 12.1674C18.0344 10.9782 18.0889 9.7277 17.8592 8.51392C17.6295 7.30013 17.1218 6.15604 16.3759 5.1713C15.63 4.18656 14.6662 3.38793 13.56 2.83801C12.4538 2.28809 11.2353 2.00182 10 2.00162Z" fill="#A0A0A0"/>
</svg>
