<svg width="20" height="21" viewBox="0 0 20 21" fill="none" xmlns="http://www.w3.org/2000/svg">
<path d="M10 7V11L12 13" stroke="#A0A0A0" stroke-width="2" stroke-linecap="round" stroke-linejoin="round"/>
<path d="M1.05078 9.99812C1.27487 7.79817 2.30105 5.75773 3.93351 4.26608C5.56598 2.77443 7.69048 1.936 9.90166 1.91074C12.1128 1.88549 14.2559 2.67518 15.922 4.12915C17.5882 5.58312 18.6607 7.59959 18.935 9.79384C19.2092 11.9881 18.6661 14.2065 17.4091 16.0259C16.1522 17.8452 14.2694 19.1382 12.1201 19.658C9.9707 20.1778 7.70519 19.8881 5.75578 18.8442C3.80636 17.8003 2.3095 16.0752 1.55078 13.9981M1.05078 18.9981V13.9981H6.05078" stroke="#A0A0A0" stroke-width="2" stroke-linecap="round" stroke-linejoin="round"/>
</svg>
