<svg width="22" height="22" viewBox="0 0 22 22" fill="none" xmlns="http://www.w3.org/2000/svg">
<path d="M11.001 6.12499C10.0368 6.12499 9.09427 6.41091 8.29258 6.94658C7.49089 7.48225 6.86605 8.24362 6.49707 9.13441C6.12809 10.0252 6.03155 11.0054 6.21966 11.9511C6.40776 12.8967 6.87206 13.7654 7.55384 14.4471C8.23562 15.1289 9.10426 15.5932 10.0499 15.7813C10.9956 15.9694 11.9758 15.8729 12.8666 15.5039C13.7574 15.1349 14.5187 14.5101 15.0544 13.7084C15.5901 12.9067 15.876 11.9642 15.876 11C15.8745 9.70752 15.3604 8.46841 14.4465 7.55449C13.5326 6.64057 12.2935 6.12648 11.001 6.12499ZM11.001 13.625C10.4818 13.625 9.97429 13.471 9.54261 13.1826C9.11093 12.8942 8.77448 12.4842 8.5758 12.0045C8.37712 11.5249 8.32514 10.9971 8.42642 10.4879C8.52771 9.97868 8.77772 9.51095 9.14483 9.14384C9.51194 8.77672 9.97967 8.52672 10.4889 8.42543C10.9981 8.32414 11.5259 8.37613 12.0055 8.57481C12.4852 8.77349 12.8952 9.10994 13.1836 9.54162C13.472 9.9733 13.626 10.4808 13.626 11C13.626 11.6962 13.3494 12.3639 12.8571 12.8561C12.3649 13.3484 11.6972 13.625 11.001 13.625ZM21.6754 8.9778C21.6436 8.81934 21.5781 8.66958 21.4833 8.5387C21.3885 8.40783 21.2667 8.29891 21.126 8.21937L18.5207 6.73343L18.5104 3.79812C18.5098 3.63526 18.4739 3.47446 18.4051 3.32684C18.3363 3.17922 18.2363 3.0483 18.1119 2.94312C17.062 2.05481 15.8532 1.37371 14.5494 0.935929C14.4007 0.885764 14.2431 0.867272 14.0868 0.881642C13.9306 0.896011 13.779 0.942925 13.6419 1.01937L11.001 2.49405L8.36005 1.01843C8.22279 0.941567 8.07094 0.894345 7.91431 0.879812C7.75767 0.865278 7.59972 0.883757 7.45067 0.934054C6.14656 1.37366 4.93769 2.05667 3.88817 2.94687C3.76424 3.05193 3.66454 3.18259 3.59592 3.32986C3.5273 3.47713 3.49139 3.63752 3.49067 3.79999L3.47755 6.73812L0.875983 8.2203C0.735274 8.30015 0.613441 8.4094 0.518795 8.54061C0.424149 8.67182 0.358916 8.8219 0.327546 8.98062C0.062693 10.3148 0.062693 11.688 0.327546 13.0222C0.359165 13.1806 0.424513 13.3303 0.519147 13.4611C0.613782 13.592 0.735485 13.701 0.875983 13.7806L3.48411 15.2666L3.49442 18.2019C3.49499 18.3647 3.53091 18.5255 3.5997 18.6731C3.66849 18.8208 3.76852 18.9517 3.89286 19.0569C4.94276 19.9452 6.15162 20.6263 7.45536 21.0641C7.60408 21.1142 7.76164 21.1327 7.91794 21.1183C8.07423 21.104 8.22578 21.0571 8.36286 20.9806L11.001 19.5059L13.6391 20.9816C13.7764 21.0584 13.9282 21.1056 14.0848 21.1202C14.2415 21.1347 14.3994 21.1162 14.5485 21.0659C15.8526 20.6263 17.0615 19.9433 18.111 19.0531C18.2349 18.9481 18.3346 18.8174 18.4032 18.6701C18.4719 18.5229 18.5078 18.3625 18.5085 18.2L18.5216 15.2619L21.1288 13.7797C21.2695 13.6998 21.3913 13.5906 21.486 13.4594C21.5806 13.3282 21.6459 13.1781 21.6772 13.0194C21.9415 11.6851 21.9408 10.3119 21.6754 8.9778ZM19.5538 12.0884L17.0338 13.5209C16.8548 13.6224 16.7072 13.7713 16.6072 13.9512C16.5566 14.045 16.5032 14.1322 16.4479 14.2212C16.3368 14.3986 16.2773 14.6035 16.2763 14.8128L16.2632 17.6562C15.6567 18.1126 14.9925 18.4868 14.2879 18.7691L11.7425 17.345C11.5747 17.251 11.3855 17.2016 11.1932 17.2016H11.166C11.0591 17.2016 10.9504 17.2016 10.8435 17.2016C10.6424 17.1968 10.4438 17.2457 10.2679 17.3431L7.71973 18.7644C7.01394 18.4835 6.34822 18.1109 5.73973 17.6562L5.72942 14.8212C5.72855 14.6116 5.66913 14.4064 5.55786 14.2287C5.50348 14.1406 5.44911 14.0497 5.39848 13.9587C5.29848 13.7799 5.15124 13.632 4.97286 13.5312L2.45098 12.0903C2.35301 11.3674 2.35301 10.6345 2.45098 9.91155L4.97098 8.47905C5.14972 8.37758 5.29725 8.22908 5.39755 8.04968C5.44817 7.95593 5.50161 7.8678 5.55692 7.77874C5.66803 7.60135 5.72744 7.39649 5.72848 7.18718L5.7388 4.34374C6.34551 3.88866 7.00969 3.51574 7.71411 3.23468L10.2594 4.65874C10.4352 4.75738 10.6345 4.80662 10.836 4.80124C10.9429 4.80124 11.0516 4.80124 11.1585 4.80124C11.3595 4.806 11.5582 4.75714 11.7341 4.65968L14.2822 3.23562C14.988 3.51645 15.6538 3.88903 16.2622 4.34374L16.2725 7.17874C16.2734 7.38837 16.3328 7.59358 16.4441 7.77124C16.4985 7.85937 16.5529 7.9503 16.6035 8.04124C16.7035 8.22007 16.8507 8.36795 17.0291 8.46874L19.551 9.90593C19.6502 10.63 19.6512 11.3641 19.5538 12.0884Z" fill="#A0A0A0"/>
</svg>
