<svg width="1920" height="1048" viewBox="0 0 1920 1048" fill="none" xmlns="http://www.w3.org/2000/svg">
<g clip-path="url(#clip0_319_110297)">
<rect width="1920" height="1048" fill="white"/>
<path d="M1920 0H0V792L480 767.556L960 743.111L1920 694.222V0Z" fill="#141414"/>
<path d="M312 4C142 167.5 237 248 0 316C-237 384 -312 176.313 -312 4C-312 -168.313 -172.313 -308 0 -308C172.313 -308 482 -159.5 312 4Z" fill="white" fill-opacity="0.15"/>
<path d="M0 -352C95.3369 -352 225.069 -311.992 310.557 -248.669C353.212 -217.073 391.208 -174.952 402.245 -122.845C414.051 -67.1108 392.679 -12.5471 342.501 35.7129C263.765 111.438 249.457 163.155 219.632 217.102C204.031 245.319 184.522 272.583 150.683 297.157C117.845 321.003 73.9452 340.559 12.1348 358.294C-53.4271 377.105 -111.537 377.877 -161.848 362.17C-212.375 346.395 -251.304 315.153 -280.165 276.397C-336.603 200.609 -356 94.5892 -356 4C-356 -192.613 -196.613 -352 0 -352Z" stroke="white" stroke-opacity="0.06" stroke-width="88"/>
<rect opacity="0.08" x="1577.95" y="110" width="243.038" height="243.038" rx="40" transform="rotate(45 1577.95 110)" fill="#FFD700"/>
<rect opacity="0.08" x="1702.94" y="391.215" width="243.038" height="243.038" rx="40" transform="rotate(45 1702.94 391.215)" fill="#FFD700"/>
<rect opacity="0.08" x="1499.84" y="594.312" width="243.038" height="243.038" rx="40" transform="rotate(45 1499.84 594.312)" fill="#FFD700"/>
<rect opacity="0.08" x="1374.86" y="313.1" width="243.038" height="243.038" rx="40" transform="rotate(45 1374.86 313.1)" fill="#FFD700"/>
</g>
<defs>
<clipPath id="clip0_319_110297">
<rect width="1920" height="1048" fill="white"/>
</clipPath>
</defs>
</svg>
