<svg width="25" height="24" viewBox="0 0 25 24" fill="none" xmlns="http://www.w3.org/2000/svg">
<path d="M21.1873 2.00014H4.24734C4.05692 1.9975 3.86784 2.03239 3.69091 2.10282C3.51397 2.17326 3.35265 2.27786 3.21614 2.41065C3.07964 2.54344 2.97063 2.70182 2.89534 2.87675C2.82005 3.05167 2.77995 3.23972 2.77734 3.43014V20.5701C2.77995 20.7606 2.82005 20.9486 2.89534 21.1235C2.97063 21.2985 3.07964 21.4568 3.21614 21.5896C3.35265 21.7224 3.51397 21.827 3.69091 21.8975C3.86784 21.9679 4.05692 22.0028 4.24734 22.0001H21.1873C21.3778 22.0028 21.5668 21.9679 21.7438 21.8975C21.9207 21.827 22.082 21.7224 22.2185 21.5896C22.3551 21.4568 22.4641 21.2985 22.5394 21.1235C22.6146 20.9486 22.6547 20.7606 22.6573 20.5701V3.43014C22.6547 3.23972 22.6146 3.05167 22.5394 2.87675C22.4641 2.70182 22.3551 2.54344 22.2185 2.41065C22.082 2.27786 21.9207 2.17326 21.7438 2.10282C21.5668 2.03239 21.3778 1.9975 21.1873 2.00014ZM8.80734 18.7401H5.80734V9.74014H8.80734V18.7401ZM7.30734 8.48014C6.89361 8.48014 6.49681 8.31578 6.20426 8.02323C5.9117 7.73067 5.74734 7.33388 5.74734 6.92014C5.74734 6.5064 5.9117 6.10961 6.20426 5.81705C6.49681 5.5245 6.89361 5.36014 7.30734 5.36014C7.52704 5.33522 7.74952 5.35699 7.96022 5.42402C8.17092 5.49105 8.36508 5.60183 8.53 5.7491C8.69492 5.89637 8.82687 6.07682 8.91721 6.27862C9.00756 6.48043 9.05426 6.69904 9.05426 6.92014C9.05426 7.14124 9.00756 7.35985 8.91721 7.56166C8.82687 7.76346 8.69492 7.94391 8.53 8.09118C8.36508 8.23845 8.17092 8.34923 7.96022 8.41626C7.74952 8.48329 7.52704 8.50505 7.30734 8.48014ZM19.6273 18.7401H16.6273V13.9101C16.6273 12.7001 16.1973 11.9101 15.1073 11.9101C14.77 11.9126 14.4415 12.0184 14.1662 12.2133C13.8908 12.4082 13.6818 12.6828 13.5673 13.0001C13.4891 13.2352 13.4552 13.4827 13.4673 13.7301V18.7301H10.4673C10.4673 18.7301 10.4673 10.5501 10.4673 9.73014H13.4673V11.0001C13.7399 10.5272 14.1363 10.1377 14.6138 9.87334C15.0913 9.60902 15.6319 9.47999 16.1773 9.50014C18.1773 9.50014 19.6273 10.7901 19.6273 13.5601V18.7401Z" fill="white"/>
</svg>
