<svg width="21" height="18" viewBox="0 0 21 18" fill="none" xmlns="http://www.w3.org/2000/svg">
<path d="M20.7178 2.79826C19.9661 3.12435 19.1712 3.33992 18.3578 3.43826C19.2159 2.92558 19.859 2.11904 20.1678 1.16826C19.3613 1.64832 18.4785 1.98655 17.5578 2.16826C16.9423 1.50083 16.1227 1.05655 15.2276 0.905108C14.3324 0.753663 13.4123 0.903615 12.6116 1.33145C11.8108 1.75928 11.1747 2.44079 10.803 3.26909C10.4313 4.0974 10.3451 5.02565 10.5578 5.90826C8.9272 5.82578 7.33221 5.40121 5.87643 4.66212C4.42064 3.92303 3.13662 2.88595 2.10777 1.61826C1.74691 2.24842 1.55729 2.96208 1.55777 3.68826C1.55649 4.36264 1.72199 5.02687 2.03953 5.62182C2.35707 6.21677 2.81679 6.72397 3.37777 7.09826C2.72575 7.08052 2.08766 6.90556 1.51777 6.58826V6.63826C1.52266 7.58315 1.85377 8.49735 2.45509 9.22622C3.05641 9.9551 3.89103 10.4539 4.81777 10.6383C4.46103 10.7468 4.09065 10.8041 3.71777 10.8083C3.45966 10.8052 3.2022 10.7818 2.94777 10.7383C3.21168 11.5511 3.7224 12.2614 4.40885 12.7704C5.0953 13.2794 5.92335 13.5618 6.77777 13.5783C5.33498 14.7135 3.55366 15.3331 1.71777 15.3383C1.38351 15.3394 1.04951 15.3193 0.717773 15.2783C2.5922 16.4885 4.77659 17.131 7.00777 17.1283C8.54747 17.1442 10.0749 16.8533 11.5009 16.2723C12.9269 15.6914 14.2228 14.8321 15.313 13.7448C16.4032 12.6574 17.2657 11.3636 17.8503 9.93916C18.4349 8.51468 18.7298 6.98798 18.7178 5.44826C18.7178 5.27826 18.7178 5.09826 18.7178 4.91826C19.5025 4.33307 20.1792 3.61568 20.7178 2.79826Z" fill="white"/>
</svg>
