<svg width="25" height="24" viewBox="0 0 25 24" fill="none" xmlns="http://www.w3.org/2000/svg">
<path d="M23.7178 9.7095C23.7673 8.27815 23.4542 6.85751 22.8078 5.5795C22.3692 5.05509 21.7605 4.70121 21.0878 4.5795C18.3053 4.32702 15.5113 4.22354 12.7178 4.2695C9.93445 4.22145 7.15051 4.3216 4.3778 4.5695C3.82962 4.66921 3.32232 4.92634 2.9178 5.3095C2.0178 6.1395 1.9178 7.5595 1.8178 8.7595C1.67271 10.9171 1.67271 13.0819 1.8178 15.2395C1.84673 15.9149 1.94729 16.5853 2.1178 17.2395C2.23838 17.7446 2.48232 18.2118 2.8278 18.5995C3.23507 19.003 3.75418 19.2747 4.3178 19.3795C6.47372 19.6456 8.64602 19.7559 10.8178 19.7095C14.3178 19.7595 17.3878 19.7095 21.0178 19.4295C21.5953 19.3311 22.129 19.059 22.5478 18.6495C22.8278 18.3694 23.0369 18.0266 23.1578 17.6495C23.5154 16.5521 23.6911 15.4036 23.6778 14.2495C23.7178 13.6895 23.7178 10.3095 23.7178 9.7095ZM10.4578 14.8495V8.6595L16.3778 11.7695C14.7178 12.6895 12.5278 13.7295 10.4578 14.8495Z" fill="white"/>
</svg>
