<svg width="39" height="39" viewBox="0 0 39 39" fill="none" xmlns="http://www.w3.org/2000/svg">
<rect width="38.4217" height="38.4217" rx="19.2108" fill="white"/>
<path d="M19.2109 9.21094C17.2331 9.21094 15.2997 9.79743 13.6552 10.8962C12.0107 11.9951 10.729 13.5568 9.97215 15.3841C9.21527 17.2114 9.01724 19.222 9.40309 21.1618C9.78894 23.1017 10.7413 24.8835 12.1399 26.282C13.5384 27.6805 15.3202 28.6329 17.26 29.0188C19.1998 29.4046 21.2105 29.2066 23.0378 28.4497C24.865 27.6929 26.4268 26.4111 27.5256 24.7666C28.6245 23.1221 29.2109 21.1888 29.2109 19.2109C29.2109 17.8977 28.9523 16.5974 28.4497 15.3841C27.9472 14.1708 27.2106 13.0685 26.282 12.1399C25.3534 11.2113 24.251 10.4747 23.0378 9.97214C21.8245 9.4696 20.5242 9.21094 19.2109 9.21094ZM19.2109 27.2109C17.6287 27.2109 16.082 26.7417 14.7664 25.8627C13.4508 24.9836 12.4254 23.7342 11.8199 22.2724C11.2144 20.8106 11.056 19.2021 11.3647 17.6502C11.6733 16.0984 12.4353 14.6729 13.5541 13.5541C14.6729 12.4353 16.0984 11.6733 17.6502 11.3647C19.2021 11.056 20.8106 11.2144 22.2724 11.8199C23.7342 12.4254 24.9836 13.4508 25.8627 14.7664C26.7417 16.082 27.2109 17.6287 27.2109 19.2109C27.2109 21.3327 26.3681 23.3675 24.8678 24.8678C23.3675 26.3681 21.3327 27.2109 19.2109 27.2109Z" fill="#7600CD"/>
<path d="M19.2109 13.211C18.2827 13.211 17.3924 13.5798 16.7361 14.2361C16.0797 14.8925 15.7109 15.7827 15.7109 16.711C15.7109 16.9762 15.8163 17.2306 16.0038 17.4181C16.1914 17.6056 16.4457 17.711 16.7109 17.711C16.9762 17.711 17.2305 17.6056 17.418 17.4181C17.6056 17.2306 17.7109 16.9762 17.7109 16.711C17.7109 16.4143 17.7989 16.1243 17.9637 15.8776C18.1286 15.631 18.3628 15.4387 18.6369 15.3252C18.911 15.2117 19.2126 15.1819 19.5036 15.2398C19.7945 15.2977 20.0618 15.4406 20.2716 15.6503C20.4814 15.8601 20.6242 16.1274 20.6821 16.4184C20.74 16.7093 20.7103 17.0109 20.5968 17.285C20.4832 17.5591 20.291 17.7934 20.0443 17.9582C19.7976 18.123 19.5076 18.211 19.2109 18.211C18.9457 18.211 18.6914 18.3164 18.5038 18.5039C18.3163 18.6914 18.2109 18.9458 18.2109 19.211V21.211C18.2109 21.4762 18.3163 21.7306 18.5038 21.9181C18.6914 22.1056 18.9457 22.211 19.2109 22.211C19.4762 22.211 19.7305 22.1056 19.918 21.9181C20.1056 21.7306 20.2109 21.4762 20.2109 21.211V20.051C21.019 19.815 21.7146 19.2949 22.1694 18.5864C22.6242 17.878 22.8077 17.0291 22.6859 16.1961C22.5641 15.3631 22.1453 14.6022 21.5067 14.0536C20.8681 13.505 20.0528 13.2058 19.2109 13.211Z" fill="#7600CD"/>
<path d="M19.2109 25.2109C19.7632 25.2109 20.2109 24.7632 20.2109 24.2109C20.2109 23.6587 19.7632 23.2109 19.2109 23.2109C18.6587 23.2109 18.2109 23.6587 18.2109 24.2109C18.2109 24.7632 18.6587 25.2109 19.2109 25.2109Z" fill="#7600CD"/>
</svg>
