<svg width="144" height="43" viewBox="0 0 144 43" fill="none" xmlns="http://www.w3.org/2000/svg">
<g clip-path="url(#clip0_413_8145)">
<path d="M132.221 0.500138H11.9186C11.4801 0.500138 11.0469 0.500138 10.6095 0.502258C10.2434 0.504378 9.88021 0.510536 9.51059 0.51572C8.70759 0.524096 7.90648 0.586714 7.11422 0.703031C6.32308 0.82188 5.55672 1.04594 4.84106 1.36765C4.12627 1.69207 3.47315 2.11362 2.9054 2.61702C2.33465 3.119 1.8589 3.69921 1.49642 4.33536C1.13294 4.97024 0.880906 5.65058 0.749015 6.35287C0.61587 7.05427 0.544224 7.76376 0.534719 8.47498C0.523621 8.79997 0.522449 9.12604 0.516602 9.45108V33.952C0.522449 34.2812 0.523621 34.6 0.534719 34.9292C0.544227 35.6404 0.615873 36.3499 0.749015 37.0512C0.880542 37.7539 1.13259 38.4347 1.49642 39.0698C1.85873 39.7039 2.33456 40.2817 2.9054 40.7809C3.471 41.2866 4.12454 41.7084 4.84106 42.0303C5.55671 42.3529 6.32299 42.5783 7.11422 42.699C7.90662 42.8144 8.70764 42.877 9.51059 42.8864C9.88021 42.8936 10.2434 42.8977 10.6095 42.8977C11.0469 42.8999 11.4802 42.8999 11.9186 42.8999H132.221C132.651 42.8999 133.088 42.8999 133.518 42.8977C133.882 42.8977 134.256 42.8936 134.62 42.8864C135.421 42.8775 136.221 42.8149 137.012 42.699C137.805 42.5775 138.575 42.3521 139.294 42.0303C140.009 41.7082 140.662 41.2864 141.228 40.7809C141.797 40.2798 142.274 39.7023 142.641 39.0698C143.002 38.4342 143.251 37.7535 143.381 37.0512C143.514 36.3498 143.588 35.6405 143.603 34.9292C143.608 34.6 143.608 34.2812 143.608 33.952C143.617 33.5669 143.617 33.184 143.617 32.7926V10.6084C143.617 10.2202 143.617 9.83512 143.608 9.45108C143.608 9.12604 143.608 8.79997 143.603 8.47493C143.588 7.76366 143.514 7.05433 143.381 6.35283C143.251 5.65094 143.001 4.97066 142.641 4.33532C141.902 3.06023 140.732 2.02231 139.294 1.36755C138.575 1.04664 137.805 0.822631 137.012 0.702936C136.221 0.586106 135.421 0.523466 134.62 0.515571C134.256 0.510399 133.882 0.504187 133.518 0.50212C133.088 0.5 132.651 0.5 132.221 0.5V0.500138Z" fill="#374151"/>
<path d="M10.5128 41.9751C10.1478 41.9751 9.79164 41.971 9.42952 41.9637C8.67936 41.9551 7.93096 41.8973 7.19045 41.7908C6.49996 41.6856 5.83106 41.4898 5.20581 41.2099C4.5863 40.9324 4.02126 40.5685 3.53233 40.1321C3.03632 39.7009 2.62337 39.2008 2.30984 38.6515C1.99286 38.0987 1.77349 37.5062 1.65937 36.8945C1.53614 36.2373 1.46946 35.5728 1.45992 34.9066C1.45233 34.683 1.44238 33.9386 1.44238 33.9386V9.447C1.44238 9.447 1.45297 8.71396 1.45998 8.4986C1.46912 7.8335 1.5354 7.16999 1.65827 6.5138C1.7726 5.90049 1.99214 5.30624 2.30929 4.75162C2.62166 4.20276 3.03232 3.70225 3.52534 3.26949C4.01781 2.83262 4.58466 2.46683 5.20523 2.18545C5.82903 1.90649 6.49667 1.71209 7.18576 1.60876C7.92871 1.50122 8.67971 1.44308 9.43247 1.43482L10.5134 1.42188H133.621L134.715 1.43534C135.461 1.44318 136.205 1.50081 136.941 1.60772C137.637 1.71235 138.312 1.90811 138.943 2.18856C140.186 2.75561 141.198 3.65274 141.836 4.7542C142.148 5.30499 142.364 5.8944 142.477 6.50241C142.601 7.16399 142.671 7.83272 142.685 8.50326C142.689 8.80351 142.689 9.12603 142.689 9.447C142.698 9.84458 142.698 10.223 142.698 10.6045V32.7934C142.698 33.1786 142.698 33.5544 142.689 33.9334C142.689 34.2781 142.689 34.594 142.684 34.919C142.67 35.5776 142.602 36.2344 142.479 36.8842C142.368 37.5002 142.149 38.0974 141.833 38.6547C141.517 39.198 141.106 39.6938 140.616 40.1238C140.127 40.5625 139.56 40.9286 138.94 41.2079C138.31 41.4899 137.637 41.6864 136.941 41.7908C136.201 41.8979 135.452 41.9557 134.702 41.9637C134.351 41.971 133.984 41.9751 133.627 41.9751L132.329 41.9772L10.5128 41.9751Z" fill="#374151"/>
<path d="M35.2819 22.0198C35.2933 21.1351 35.5283 20.2676 35.965 19.4981C36.4018 18.7286 37.0261 18.082 37.7798 17.6186C37.301 16.9348 36.6693 16.372 35.9349 15.975C35.2005 15.5779 34.3836 15.3576 33.5492 15.3315C31.7692 15.1447 30.0436 16.3966 29.1365 16.3966C28.2119 16.3966 26.8153 15.3501 25.3115 15.381C24.3387 15.4124 23.3907 15.6953 22.5598 16.202C21.7289 16.7088 21.0434 17.4221 20.5702 18.2725C18.5201 21.8218 20.0493 27.0381 22.0131 29.9071C22.9956 31.312 24.1438 32.8812 25.6463 32.8256C27.1166 32.7646 27.6658 31.888 29.4405 31.888C31.1988 31.888 31.714 32.8256 33.247 32.7902C34.8247 32.7646 35.8187 31.3791 36.7667 29.9609C37.4727 28.9599 38.0159 27.8536 38.3763 26.6829C37.4597 26.2952 36.6775 25.6463 36.1272 24.8171C35.5769 23.9878 35.2829 23.015 35.2819 22.0198Z" fill="white"/>
<path d="M32.3857 13.4461C33.2459 12.4135 33.6697 11.0862 33.5671 9.74609C32.2529 9.88413 31.0389 10.5122 30.167 11.5053C29.7408 11.9904 29.4143 12.5548 29.2063 13.1661C28.9983 13.7775 28.9128 14.4239 28.9547 15.0683C29.6121 15.0751 30.2624 14.9326 30.8567 14.6516C31.451 14.3706 31.9738 13.9585 32.3857 13.4461Z" fill="white"/>
<path d="M53.867 29.2692H48.8496L47.6447 32.8271H45.5195L50.2719 19.6641H52.4799L57.2323 32.8271H55.0709L53.867 29.2692ZM49.3693 27.6275H53.3464L51.3858 21.8534H51.3309L49.3693 27.6275Z" fill="white"/>
<path d="M67.4952 28.03C67.4952 31.0123 65.8989 32.9284 63.4901 32.9284C62.8799 32.9603 62.2731 32.8197 61.7391 32.5228C61.205 32.2258 60.7654 31.7845 60.4706 31.2493H60.425V36.0028H58.4551V23.2311H60.3619V24.8273H60.3981C60.7065 24.2947 61.1535 23.8556 61.6916 23.5569C62.2297 23.2581 62.8387 23.1108 63.4539 23.1307C65.8896 23.1307 67.4952 25.0561 67.4952 28.03ZM65.4704 28.03C65.4704 26.0871 64.4663 24.8097 62.9342 24.8097C61.4291 24.8097 60.4167 26.114 60.4167 28.03C60.4167 29.9637 61.4291 31.2587 62.9342 31.2587C64.4663 31.2587 65.4704 29.9906 65.4704 28.03Z" fill="white"/>
<path d="M78.0586 28.03C78.0586 31.0123 76.4624 32.9284 74.0536 32.9284C73.4434 32.9603 72.8365 32.8197 72.3025 32.5228C71.7685 32.2258 71.3289 31.7845 71.034 31.2493H70.9885V36.0027H69.0186V23.2311H70.9253V24.8273H70.9615C71.27 24.2947 71.717 23.8556 72.2551 23.5569C72.7932 23.2581 73.4022 23.1108 74.0173 23.1307C76.4531 23.1307 78.0586 25.056 78.0586 28.03ZM76.0338 28.03C76.0338 26.0871 75.0297 24.8097 73.4977 24.8097C71.9926 24.8097 70.9802 26.114 70.9802 28.03C70.9802 29.9637 71.9926 31.2587 73.4977 31.2587C75.0297 31.2587 76.0339 29.9906 76.0339 28.03H76.0338Z" fill="white"/>
<path d="M85.04 29.1602C85.1859 30.4656 86.454 31.3226 88.1868 31.3226C89.8472 31.3226 91.0418 30.4655 91.0418 29.2886C91.0418 28.2669 90.3213 27.6551 88.6154 27.2359L86.9095 26.8249C84.4924 26.2411 83.3702 25.1107 83.3702 23.2764C83.3702 21.0053 85.3495 19.4453 88.1599 19.4453C90.9414 19.4453 92.8482 21.0053 92.9123 23.2764H90.9238C90.8047 21.9628 89.7188 21.1699 88.1319 21.1699C86.5451 21.1699 85.4592 21.9721 85.4592 23.1398C85.4592 24.0704 86.1527 24.618 87.8494 25.0372L89.2996 25.3933C92.0003 26.0319 93.1224 27.1168 93.1224 29.0422C93.1224 31.5048 91.1608 33.0471 88.0408 33.0471C85.1217 33.0471 83.1508 31.541 83.0234 29.1602L85.04 29.1602Z" fill="white"/>
<path d="M97.3736 20.9609V23.2321H99.1986V24.792H97.3736V30.0827C97.3736 30.9046 97.739 31.2876 98.5413 31.2876C98.7579 31.2838 98.9742 31.2686 99.1893 31.242V32.7927C98.8286 32.8601 98.462 32.8906 98.0951 32.8838C96.1522 32.8838 95.3944 32.154 95.3944 30.2928V24.792H93.999V23.2321H95.3944V20.9609H97.3736Z" fill="white"/>
<path d="M100.255 28.0302C100.255 25.0107 102.033 23.1133 104.806 23.1133C107.589 23.1133 109.359 25.0107 109.359 28.0302C109.359 31.0581 107.598 32.9472 104.806 32.9472C102.016 32.9472 100.255 31.058 100.255 28.0302ZM107.352 28.0302C107.352 25.9589 106.403 24.7364 104.806 24.7364C103.21 24.7364 102.262 25.9682 102.262 28.0302C102.262 30.1098 103.21 31.3231 104.806 31.3231C106.403 31.3231 107.352 30.1098 107.352 28.0302H107.352Z" fill="white"/>
<path d="M110.984 23.231H112.863V24.8644H112.909C113.036 24.3543 113.335 23.9034 113.755 23.5877C114.176 23.2719 114.692 23.1105 115.217 23.1306C115.444 23.1298 115.671 23.1544 115.892 23.2041V25.0466C115.605 24.9591 115.307 24.9189 115.007 24.9276C114.721 24.916 114.436 24.9665 114.171 25.0755C113.906 25.1846 113.668 25.3496 113.473 25.5594C113.278 25.7692 113.13 26.0186 113.041 26.2907C112.951 26.5628 112.922 26.851 112.954 27.1356V32.8279H110.984L110.984 23.231Z" fill="white"/>
<path d="M124.974 30.0094C124.709 31.7516 123.013 32.9472 120.842 32.9472C118.05 32.9472 116.317 31.0767 116.317 28.0758C116.317 25.0656 118.06 23.1133 120.759 23.1133C123.414 23.1133 125.084 24.9372 125.084 27.847V28.5219H118.306V28.641C118.275 28.9942 118.319 29.35 118.436 29.6848C118.552 30.0195 118.739 30.3257 118.983 30.5828C119.227 30.8399 119.524 31.0421 119.852 31.1759C120.18 31.3098 120.533 31.3723 120.888 31.3593C121.353 31.4029 121.82 31.2951 122.22 31.0519C122.619 30.8087 122.929 30.4431 123.104 30.0094L124.974 30.0094ZM118.315 27.1452H123.113C123.131 26.8276 123.083 26.5098 122.972 26.2117C122.861 25.9137 122.689 25.6417 122.468 25.413C122.247 25.1843 121.981 25.0038 121.687 24.8827C121.393 24.7616 121.077 24.7026 120.759 24.7095C120.438 24.7076 120.12 24.7692 119.824 24.8908C119.527 25.0125 119.257 25.1917 119.03 25.4181C118.803 25.6446 118.622 25.9138 118.5 26.2102C118.377 26.5066 118.314 26.8244 118.315 27.1452V27.1452Z" fill="white"/>
<path d="M49.1225 9.75718C49.5355 9.72754 49.9499 9.78993 50.3359 9.93985C50.7218 10.0898 51.0697 10.3235 51.3544 10.6241C51.6391 10.9248 51.8535 11.2848 51.9822 11.6784C52.1109 12.0719 52.1506 12.4891 52.0986 12.8999C52.0986 14.9205 51.0065 16.082 49.1225 16.082H46.8379V9.75718H49.1225ZM47.8202 15.1875H49.0128C49.3079 15.2052 49.6032 15.1568 49.8772 15.0459C50.1513 14.935 50.3972 14.7644 50.597 14.5465C50.7968 14.3286 50.9455 14.0689 51.0323 13.7863C51.119 13.5037 51.1417 13.2053 51.0986 12.9128C51.1386 12.6215 51.1136 12.3249 51.0255 12.0444C50.9374 11.7638 50.7883 11.5062 50.589 11.2901C50.3896 11.0739 50.1449 10.9045 49.8724 10.794C49.5999 10.6835 49.3064 10.6347 49.0128 10.651H47.8202V15.1875Z" fill="white"/>
<path d="M53.2079 13.6914C53.1779 13.3777 53.2138 13.0612 53.3133 12.7622C53.4127 12.4633 53.5736 12.1884 53.7855 11.9552C53.9975 11.722 54.2558 11.5357 54.544 11.4082C54.8321 11.2807 55.1438 11.2148 55.4589 11.2148C55.774 11.2148 56.0856 11.2807 56.3738 11.4082C56.6619 11.5357 56.9203 11.722 57.1322 11.9552C57.3441 12.1884 57.505 12.4633 57.6045 12.7622C57.7039 13.0612 57.7398 13.3777 57.7098 13.6914C57.7404 14.0054 57.7049 14.3223 57.6057 14.6218C57.5065 14.9212 57.3458 15.1967 57.1338 15.4303C56.9218 15.6639 56.6632 15.8506 56.3748 15.9784C56.0863 16.1062 55.7743 16.1722 55.4589 16.1722C55.1434 16.1722 54.8314 16.1062 54.5429 15.9784C54.2545 15.8506 53.996 15.6639 53.784 15.4303C53.572 15.1967 53.4112 14.9212 53.312 14.6218C53.2128 14.3223 53.1773 14.0054 53.2079 13.6914ZM56.7409 13.6914C56.7409 12.6568 56.2761 12.0517 55.4604 12.0517C54.6416 12.0517 54.181 12.6568 54.181 13.6914C54.181 14.7343 54.6416 15.3347 55.4604 15.3347C56.2761 15.3347 56.7409 14.7302 56.7409 13.6914H56.7409Z" fill="white"/>
<path d="M63.6948 16.0817H62.7176L61.7311 12.5663H61.6566L60.6742 16.0817H59.7063L58.3906 11.3086H59.3461L60.2011 14.9507H60.2715L61.2528 11.3086H62.1565L63.1379 14.9507H63.2124L64.0633 11.3086H65.0053L63.6948 16.0817Z" fill="white"/>
<path d="M66.1113 11.3078H67.0181V12.066H67.0885C67.2079 11.7937 67.4093 11.5654 67.6647 11.413C67.92 11.2605 68.2165 11.1915 68.5129 11.2156C68.7452 11.1982 68.9783 11.2332 69.1952 11.3181C69.4121 11.403 69.6071 11.5356 69.7658 11.7061C69.9244 11.8766 70.0427 12.0806 70.1118 12.303C70.1809 12.5254 70.1991 12.7605 70.165 12.9909V16.0808H69.223V13.2275C69.223 12.4604 68.8897 12.079 68.193 12.079C68.0354 12.0716 67.8779 12.0985 67.7316 12.1576C67.5853 12.2168 67.4535 12.3069 67.3452 12.4218C67.2369 12.5367 67.1548 12.6736 67.1044 12.8232C67.0541 12.9728 67.0366 13.1316 67.0533 13.2885V16.0808H66.1113L66.1113 11.3078Z" fill="white"/>
<path d="M71.667 9.44531H72.609V16.0817H71.667V9.44531Z" fill="white"/>
<path d="M73.9178 13.6915C73.8879 13.3778 73.9238 13.0613 74.0233 12.7623C74.1228 12.4633 74.2836 12.1884 74.4956 11.9552C74.7076 11.722 74.9659 11.5357 75.2541 11.4082C75.5423 11.2807 75.8539 11.2148 76.1691 11.2148C76.4842 11.2148 76.7958 11.2807 77.084 11.4082C77.3722 11.5357 77.6306 11.722 77.8425 11.9552C78.0545 12.1884 78.2154 12.4633 78.3149 12.7623C78.4144 13.0613 78.4503 13.3778 78.4203 13.6915C78.4508 14.0055 78.4153 14.3224 78.3161 14.6219C78.2169 14.9214 78.0561 15.1968 77.844 15.4304C77.632 15.664 77.3735 15.8507 77.085 15.9785C76.7966 16.1062 76.4846 16.1722 76.1691 16.1722C75.8536 16.1722 75.5416 16.1062 75.2531 15.9785C74.9646 15.8507 74.7061 15.664 74.4941 15.4304C74.2821 15.1968 74.1213 14.9214 74.022 14.6219C73.9228 14.3224 73.8873 14.0055 73.9178 13.6915ZM77.4508 13.6915C77.4508 12.6569 76.9861 12.0518 76.1704 12.0518C75.3515 12.0518 74.8909 12.6569 74.8909 13.6915C74.8909 14.7344 75.3516 15.3348 76.1704 15.3348C76.9861 15.3348 77.4509 14.7303 77.4509 13.6915H77.4508Z" fill="white"/>
<path d="M79.4121 14.7302C79.4121 13.871 80.0518 13.3757 81.1874 13.3053L82.4803 13.2308V12.8188C82.4803 12.3147 82.147 12.03 81.5031 12.03C80.9773 12.03 80.6129 12.2231 80.5083 12.5605H79.5964C79.6926 11.7407 80.4638 11.2148 81.5466 11.2148C82.7433 11.2148 83.4182 11.8106 83.4182 12.8188V16.08H82.5114V15.4093H82.4368C82.2856 15.6499 82.0731 15.846 81.8213 15.9777C81.5694 16.1094 81.2871 16.1718 81.0031 16.1587C80.8028 16.1795 80.6003 16.1581 80.4086 16.0959C80.217 16.0337 80.0406 15.932 79.8907 15.7974C79.7408 15.6629 79.6208 15.4983 79.5383 15.3145C79.4559 15.1307 79.4129 14.9317 79.4121 14.7302ZM82.4803 14.3224V13.9233L81.3147 13.9978C80.6574 14.0418 80.3593 14.2654 80.3593 14.6862C80.3593 15.1158 80.7319 15.3658 81.2444 15.3658C81.3945 15.381 81.5462 15.3658 81.6903 15.3212C81.8345 15.2766 81.9682 15.2034 82.0835 15.1061C82.1989 15.0087 82.2934 14.8892 82.3616 14.7545C82.4297 14.6199 82.4701 14.4729 82.4803 14.3224Z" fill="white"/>
<path d="M84.6562 13.6931C84.6562 12.1849 85.4316 11.2294 86.6375 11.2294C86.9358 11.2157 87.2319 11.2871 87.4911 11.4354C87.7503 11.5837 87.9619 11.8027 88.1013 12.0668H88.1717V9.44531H89.1136V16.0817H88.211V15.3275H88.1365C87.9864 15.5899 87.7674 15.8062 87.5031 15.9529C87.2389 16.0997 86.9396 16.1714 86.6376 16.1603C85.4233 16.1604 84.6562 15.2049 84.6562 13.6931ZM85.6293 13.6931C85.6293 14.7054 86.1065 15.3146 86.9047 15.3146C87.6986 15.3146 88.1893 14.6967 88.1893 13.6972C88.1893 12.7024 87.6934 12.0756 86.9047 12.0756C86.1117 12.0756 85.6293 12.689 85.6293 13.6931H85.6293Z" fill="white"/>
<path d="M93.0106 13.6914C92.9806 13.3777 93.0165 13.0612 93.116 12.7622C93.2155 12.4633 93.3763 12.1884 93.5883 11.9552C93.8002 11.722 94.0585 11.5357 94.3467 11.4082C94.6349 11.2807 94.9465 11.2148 95.2616 11.2148C95.5767 11.2148 95.8883 11.2807 96.1765 11.4082C96.4647 11.5357 96.723 11.722 96.9349 11.9552C97.1469 12.1884 97.3077 12.4633 97.4072 12.7622C97.5067 13.0612 97.5426 13.3777 97.5125 13.6914C97.5431 14.0054 97.5077 14.3223 97.4085 14.6218C97.3093 14.9212 97.1485 15.1967 96.9365 15.4303C96.7245 15.6639 96.466 15.8506 96.1775 15.9784C95.8891 16.1062 95.5771 16.1722 95.2616 16.1722C94.9461 16.1722 94.6341 16.1062 94.3457 15.9784C94.0572 15.8506 93.7987 15.6639 93.5867 15.4303C93.3747 15.1967 93.2139 14.9212 93.1147 14.6218C93.0155 14.3223 92.9801 14.0054 93.0106 13.6914ZM96.5436 13.6914C96.5436 12.6568 96.0788 12.0517 95.2632 12.0517C94.4443 12.0517 93.9837 12.6568 93.9837 13.6914C93.9837 14.7343 94.4444 15.3347 95.2632 15.3347C96.0789 15.3347 96.5436 14.7302 96.5436 13.6914Z" fill="white"/>
<path d="M98.7764 11.3078H99.6832V12.066H99.7536C99.873 11.7937 100.074 11.5654 100.33 11.413C100.585 11.2605 100.882 11.1915 101.178 11.2156C101.41 11.1982 101.643 11.2332 101.86 11.3181C102.077 11.403 102.272 11.5356 102.431 11.7061C102.589 11.8766 102.708 12.0806 102.777 12.303C102.846 12.5254 102.864 12.7605 102.83 12.9909V16.0808H101.888V13.2275C101.888 12.4604 101.555 12.079 100.858 12.079C100.7 12.0716 100.543 12.0985 100.397 12.1576C100.25 12.2168 100.118 12.3069 100.01 12.4218C99.902 12.5367 99.8199 12.6736 99.7695 12.8232C99.7191 12.9728 99.7017 13.1316 99.7184 13.2885V16.0808H98.7764V11.3078Z" fill="white"/>
<path d="M108.153 10.1211V11.3312H109.187V12.1246H108.153V14.579C108.153 15.0789 108.359 15.2979 108.828 15.2979C108.948 15.2975 109.068 15.2902 109.187 15.2761V16.0608C109.018 16.091 108.846 16.1071 108.675 16.1089C107.627 16.1089 107.21 15.7404 107.21 14.8201V12.1246H106.452V11.3311H107.21V10.1211H108.153Z" fill="white"/>
<path d="M110.475 9.44531H111.408V12.0756H111.483C111.608 11.8008 111.815 11.5712 112.075 11.4182C112.336 11.2652 112.637 11.1962 112.938 11.2206C113.169 11.208 113.4 11.2466 113.615 11.3336C113.829 11.4205 114.022 11.5537 114.179 11.7237C114.336 11.8937 114.453 12.0962 114.523 12.3168C114.593 12.5374 114.613 12.7707 114.582 13V16.0817H113.639V13.2324C113.639 12.47 113.284 12.0839 112.618 12.0839C112.457 12.0706 112.294 12.0929 112.141 12.1491C111.989 12.2054 111.851 12.2942 111.736 12.4095C111.622 12.5247 111.534 12.6636 111.479 12.8164C111.423 12.9692 111.402 13.1322 111.417 13.294V16.0816H110.475L110.475 9.44531Z" fill="white"/>
<path d="M120.074 14.7914C119.946 15.2276 119.668 15.6049 119.29 15.8574C118.912 16.1098 118.457 16.2213 118.006 16.1722C117.691 16.1805 117.379 16.1203 117.09 15.9957C116.801 15.8712 116.543 15.6852 116.333 15.4508C116.123 15.2164 115.967 14.9392 115.875 14.6383C115.783 14.3375 115.758 14.0202 115.801 13.7086C115.759 13.396 115.785 13.0781 115.876 12.7763C115.968 12.4746 116.123 12.1961 116.332 11.9596C116.541 11.7232 116.798 11.5343 117.086 11.4058C117.374 11.2773 117.686 11.2122 118.001 11.2149C119.329 11.2149 120.131 12.1223 120.131 13.6211V13.9498H116.76V14.0026C116.745 14.1777 116.767 14.3541 116.825 14.5202C116.882 14.6864 116.974 14.8387 117.093 14.9674C117.213 15.0962 117.358 15.1985 117.52 15.2678C117.681 15.3371 117.856 15.3719 118.031 15.37C118.257 15.397 118.485 15.3565 118.687 15.2534C118.889 15.1504 119.056 14.9895 119.167 14.7913L120.074 14.7914ZM116.76 13.2531H119.171C119.183 13.0929 119.161 12.932 119.107 12.7807C119.053 12.6295 118.968 12.4912 118.857 12.3747C118.747 12.2583 118.613 12.1663 118.465 12.1046C118.316 12.0429 118.157 12.013 117.996 12.0166C117.833 12.0146 117.672 12.0452 117.521 12.1066C117.37 12.168 117.233 12.259 117.117 12.3743C117.002 12.4895 116.911 12.6266 116.85 12.7776C116.789 12.9285 116.758 13.0902 116.76 13.2531H116.76Z" fill="white"/>
</g>
<defs>
<clipPath id="clip0_413_8145">
<rect width="143.1" height="42.3997" fill="white" transform="translate(0.516602 0.5)"/>
</clipPath>
</defs>
</svg>
