<svg width="22" height="22" viewBox="0 0 22 22" fill="none" xmlns="http://www.w3.org/2000/svg">
<path d="M2.6615 3.37031C2.43687 3.63447 2.21157 3.89797 1.9922 4.15555C1.56137 3.72077 1.18588 3.34264 0.824219 2.97834C1.74121 2.06003 2.67666 1.12393 3.60024 0.199686C4.52448 1.1259 5.45926 2.062 6.37494 2.97966C6.01724 3.33737 5.63911 3.71484 5.22804 4.12591C4.99023 3.86042 4.73463 3.57518 4.41447 3.21879V7.00865C6.13977 5.28071 7.90656 3.5126 9.66282 1.7537C9.19971 1.7537 8.67534 1.72143 8.15755 1.76359C7.70894 1.79982 7.39536 1.65226 7.10287 1.32156C6.7478 0.920371 6.34398 0.562005 5.90656 0.131833C6.07191 0.119317 6.16216 0.1068 6.25307 0.1068C10.6457 0.106142 15.0383 0.104165 19.4309 0.1068C20.8328 0.107459 21.8321 1.0844 21.8341 2.47768C21.8413 6.89336 21.8367 11.3084 21.8367 15.7241C21.8367 15.7853 21.8301 15.8472 21.7452 15.9671C21.3473 15.5508 20.9672 15.1154 20.5442 14.726C20.2695 14.4731 20.1589 14.2096 20.1813 13.838C20.2129 13.3183 20.1892 12.7952 20.1892 12.2787C18.425 14.0449 16.6786 15.7926 14.9362 17.537H18.7333C18.3782 17.2471 18.0857 17.0086 17.7985 16.7741C18.2695 16.3209 18.6529 15.952 19.0258 15.5923C19.9079 16.4843 20.8394 17.4256 21.7643 18.3604C20.8684 19.2498 19.929 20.1826 18.9994 21.1048C18.6503 20.7491 18.2788 20.371 17.8828 19.9678C18.1055 19.7715 18.3591 19.5475 18.6128 19.3235C18.5969 19.2847 18.5811 19.2458 18.5647 19.2076H18.2017C13.8749 19.2076 9.5482 19.2089 5.22145 19.2069C4.037 19.2069 3.18324 18.6325 2.85716 17.5877C2.76757 17.3005 2.74187 16.9843 2.74121 16.6806C2.73397 12.3749 2.7366 8.06925 2.7366 3.76359C2.7366 3.64764 2.7366 3.53104 2.7366 3.4151C2.71091 3.39995 2.68522 3.38546 2.65953 3.37031H2.6615ZM4.3868 16.2873C9.23397 11.4395 14.0732 6.5989 18.9178 1.7537C18.2274 1.7537 17.5179 1.74778 16.8084 1.76095C16.7175 1.76293 16.6121 1.84593 16.5396 1.91839C12.541 5.91313 8.54424 9.91049 4.55017 13.9105C4.47837 13.983 4.39536 14.0884 4.39339 14.1793C4.38021 14.8881 4.38614 15.5969 4.38614 16.2866L4.3868 16.2873ZM20.1892 3.06201C15.3539 7.896 10.5192 12.73 5.69115 17.5567C6.34991 17.5567 7.04886 17.5627 7.7478 17.5495C7.83871 17.5475 7.9428 17.4612 8.01526 17.3881C12.0205 13.3868 16.0238 9.38282 20.0238 5.37689C20.0963 5.30443 20.1799 5.19903 20.1813 5.10812C20.1944 4.40983 20.1885 3.71089 20.1885 3.06201H20.1892ZM20.1892 7.69178C16.9 10.9783 13.6075 14.2682 10.3157 17.5567C10.983 17.5567 11.6813 17.5627 12.3802 17.5495C12.4705 17.5475 12.5732 17.4573 12.6464 17.3841C15.1088 14.9263 17.5686 12.4658 20.0258 10.0027C20.0976 9.93025 20.1799 9.82419 20.1819 9.73262C20.1951 9.03368 20.1892 8.33473 20.1892 7.69112V7.69178ZM4.3868 11.6272C7.68522 8.33012 10.9705 5.04554 14.263 1.7537C13.6035 1.7537 12.927 1.74778 12.2504 1.76029C12.1582 1.76227 12.0508 1.83934 11.979 1.91049C9.50011 4.38414 7.02448 6.86042 4.55149 9.33934C4.47969 9.41181 4.39602 9.51655 4.39405 9.60812C4.38087 10.286 4.3868 10.9638 4.3868 11.6272Z" fill="#7600CD"/>
</svg>
