<svg width="146" height="147" viewBox="0 0 146 147" fill="none" xmlns="http://www.w3.org/2000/svg">
<path opacity="0.2" d="M17 12.748H44.9328H81.9076H109C111.209 12.748 113 14.5389 113 16.7481V27.0786V42.2522V55.7398V70.9133V86.0869V100.417V110.748C113 112.957 111.209 114.748 109 114.748H81.1723H44.1975H17C14.7909 114.748 13 112.957 13 110.748V100.417V86.0869V70.9133V55.7398V42.2522V27.0786V16.748C13 14.5389 14.7909 12.748 17 12.748Z" fill="#7600CD"/>
<path d="M56.0168 25.748H30C27.7909 25.748 26 27.5389 26 29.748V39.2357M56.0168 25.748V39.2357M56.0168 25.748H90.7731M56.0168 39.2357H73.395M56.0168 39.2357H37.8487M26 39.2357H37.8487M26 39.2357V53.5166M90.7731 25.748H116C118.209 25.748 120 27.5389 120 29.748V39.2357M90.7731 25.748V39.2357M90.7731 39.2357H73.395M90.7731 39.2357H107.361M120 39.2357V53.5166M120 39.2357H107.361M73.395 39.2357V53.5166M73.395 53.5166H55.6218M73.395 53.5166H90.3782M120 53.5166H107.361M120 53.5166V66.2109M107.361 39.2357V53.5166M107.361 53.5166H90.3782M37.8487 39.2357V53.5166M37.8487 53.5166H26M37.8487 53.5166H55.6218M26 53.5166V66.2109M55.6218 53.5166V66.2109M55.6218 66.2109H73M55.6218 66.2109H37.8487M26 66.2109V80.4918M26 66.2109H37.8487M90.3782 53.5166V66.2109M90.3782 66.2109H73M90.3782 66.2109H107.361M120 66.2109V80.4918M120 66.2109H107.361M73 66.2109V80.4918M73 80.4918H55.4244M73 80.4918H90.1807M26 80.4918H37.8487M26 80.4918V94.7728M120 80.4918H107.361M120 80.4918V94.7728M107.361 66.2109V80.4918M107.361 80.4918H90.1807M37.8487 66.2109V80.4918M37.8487 80.4918H55.4244M55.4244 80.4918V94.7728M55.4244 94.7728H37.8487M55.4244 94.7728H72.8025M120 94.7728V108.26M120 94.7728H107.361M90.1807 80.4918V94.7728M90.1807 94.7728H72.8025M90.1807 94.7728H107.361M37.8487 94.7728H26M37.8487 94.7728V108.26M26 94.7728V108.26M37.8487 108.26H26M37.8487 108.26H55.3256M26 108.26V117.748C26 119.957 27.7909 121.748 30 121.748H55.3256M72.8025 94.7728V108.26M72.8025 108.26H55.3256M72.8025 108.26H90.0819M120 108.26V117.748C120 119.957 118.209 121.748 116 121.748H90.0819M120 108.26H107.361M107.361 94.7728V108.26M107.361 108.26H90.0819M55.3256 108.26V121.748M55.3256 121.748H90.0819M90.0819 108.26V121.748" stroke="#333333" stroke-width="4"/>
</svg>
