<svg width="75" height="74" viewBox="0 0 75 74" fill="none" xmlns="http://www.w3.org/2000/svg">
<rect x="1" y="0.5" width="73" height="73" rx="36.5" fill="#141414"/>
<rect x="1" y="0.5" width="73" height="73" rx="36.5" stroke="#F1E6FA"/>
<path d="M37.0751 23.9736C37.3463 23.8551 37.6546 23.8551 37.9259 23.9736C43.1942 26.2755 48.1873 29.0893 52.8422 32.3522C53.1791 32.5883 53.3494 32.9977 53.2793 33.4031C53.2093 33.8084 52.9116 34.137 52.515 34.2464C51.5447 34.5143 50.5828 34.8027 49.6296 35.1101C45.7606 36.3579 42.0362 37.9279 38.488 39.7886L38.4834 39.791C38.3225 39.8754 38.162 39.9604 38.0018 40.0459C37.689 40.2131 37.3133 40.2131 37.0004 40.0459C36.8387 39.9595 36.6767 39.8738 36.5142 39.7886C34.7598 38.8685 32.9622 38.0196 31.1254 37.2455V36.9286C31.1254 36.7425 31.2209 36.5774 31.3687 36.4879C33.5009 35.1961 35.7003 34.0042 37.9604 32.9186C38.4893 32.6645 38.7122 32.0297 38.4581 31.5008C38.204 30.9718 37.5693 30.749 37.0403 31.0031C34.7181 32.1185 32.4582 33.3432 30.2676 34.6704C29.6253 35.0595 29.1935 35.6963 29.0515 36.4098C27.8403 35.9439 26.6133 35.51 25.3713 35.1095C24.4181 34.8021 23.4562 34.5142 22.4859 34.2464C22.0893 34.137 21.7916 33.8084 21.7216 33.403C21.6516 32.9977 21.8219 32.5883 22.1587 32.3522C26.8137 29.0893 31.8067 26.2755 37.0751 23.9736Z" fill="#9133D7"/>
<path d="M39.0033 41.9202C42.4583 40.0741 46.0883 38.5134 49.8619 37.2695C50.0521 39.2738 50.1735 41.298 50.2238 43.3398C50.2346 43.7778 49.9754 44.1776 49.571 44.3464C45.5319 46.0328 41.69 48.0977 38.0896 50.497C37.7328 50.7348 37.268 50.7348 36.9112 50.497C33.3108 48.0977 29.4689 46.0328 25.4298 44.3464C25.0254 44.1776 24.7662 43.7778 24.777 43.3398C24.8273 41.2979 24.9487 39.2735 25.1389 37.269C26.4437 37.6991 27.7312 38.167 29.0004 38.6715V40.4713C28.3652 40.8387 27.9379 41.5254 27.9379 42.312C27.9379 43.0137 28.278 43.6359 28.8023 44.0229C28.6755 44.5621 28.4879 45.0898 28.2393 45.5951C28.8806 45.8978 29.5164 46.2102 30.1466 46.5322C30.5055 45.8022 30.7657 45.0361 30.9272 44.2538C31.6701 43.9227 32.1879 43.1778 32.1879 42.312C32.1879 41.5254 31.7605 40.8387 31.1254 40.4713V39.5578C32.7848 40.2829 34.4104 41.0714 35.999 41.9202C36.9376 42.4217 38.0646 42.4217 39.0033 41.9202Z" fill="#9133D7"/>
<path d="M26.8218 47.5711C27.4156 46.9773 27.8883 46.3085 28.2393 45.5951C28.8806 45.8978 29.5164 46.2102 30.1466 46.5322C29.6953 47.4499 29.0877 48.3104 28.3245 49.0737C27.9095 49.4886 27.2368 49.4886 26.8218 49.0737C26.4069 48.6587 26.4069 47.986 26.8218 47.5711Z" fill="#9133D7"/>
</svg>
