<svg width="144" height="43" viewBox="0 0 144 43" fill="none" xmlns="http://www.w3.org/2000/svg">
<g clip-path="url(#clip0_413_8124)">
<path d="M138.418 0.5H5.91815C2.99105 0.5 0.618164 2.87286 0.618164 5.79994V37.5996C0.618164 40.5267 2.99105 42.8995 5.91815 42.8995H138.418C141.345 42.8995 143.718 40.5267 143.718 37.5996V5.79994C143.718 2.87286 141.345 0.5 138.418 0.5Z" fill="#374151"/>
<path d="M138.418 1.34778C139.598 1.34914 140.73 1.81866 141.564 2.65331C142.399 3.48797 142.868 4.6196 142.87 5.79994V37.5996C142.868 38.7799 142.399 39.9115 141.564 40.7462C140.73 41.5808 139.598 42.0504 138.418 42.0517H5.91815C4.73779 42.0504 3.60617 41.5809 2.77155 40.7462C1.93693 39.9116 1.46747 38.7799 1.46616 37.5996V5.79994C1.46745 4.61958 1.9369 3.48794 2.77152 2.65328C3.60615 1.81862 4.73778 1.34912 5.91815 1.34778H138.418ZM138.418 0.5H5.91815C4.51377 0.504111 3.16808 1.06382 2.17503 2.05686C1.18198 3.0499 0.622275 4.39557 0.618164 5.79994L0.618164 37.5996C0.622275 39.0039 1.18198 40.3496 2.17503 41.3427C3.16808 42.3357 4.51377 42.8954 5.91815 42.8995H138.418C139.822 42.8954 141.168 42.3357 142.161 41.3427C143.154 40.3496 143.714 39.0039 143.718 37.5996V5.79994C143.714 4.39557 143.154 3.0499 142.161 2.05686C141.168 1.06382 139.822 0.504111 138.418 0.5Z" fill="#374151"/>
<path d="M50.8819 11.3576C50.9011 11.7465 50.841 12.1353 50.7052 12.5003C50.5694 12.8653 50.3608 13.1989 50.092 13.4806C49.7907 13.7931 49.4269 14.0384 49.0243 14.2005C48.6216 14.3627 48.1893 14.438 47.7556 14.4216C47.3191 14.4255 46.8863 14.3421 46.4825 14.1763C46.0787 14.0106 45.7121 13.7657 45.4043 13.4563C45.0964 13.1468 44.8536 12.7789 44.69 12.3742C44.5263 11.9695 44.4453 11.5362 44.4515 11.0998C44.4453 10.6633 44.5264 10.23 44.69 9.82533C44.8537 9.42065 45.0965 9.05275 45.4043 8.74324C45.7121 8.43373 46.0787 8.18886 46.4825 8.02301C46.8863 7.85716 47.3191 7.77368 47.7556 7.77747C48.2044 7.77611 48.6487 7.86684 49.061 8.04405C49.4439 8.19928 49.7848 8.44276 50.0558 8.75467L49.4968 9.31413C49.2837 9.06339 49.0159 8.86495 48.7141 8.73411C48.4122 8.60327 48.0843 8.54354 47.7556 8.55953C47.4248 8.55782 47.0971 8.62288 46.792 8.75084C46.4869 8.87879 46.2108 9.06699 45.9802 9.30418C45.7496 9.54136 45.5693 9.82264 45.45 10.1312C45.3306 10.4397 45.2748 10.7692 45.2858 11.0998C45.2779 11.595 45.4173 12.0814 45.6862 12.4973C45.9551 12.9133 46.3415 13.24 46.7964 13.436C47.2512 13.632 47.754 13.6886 48.241 13.5985C48.7281 13.5084 49.1774 13.2757 49.532 12.93C49.8583 12.5783 50.0475 12.1211 50.065 11.6417H47.7556V10.8777H50.8373C50.8665 11.036 50.8814 11.1966 50.8819 11.3576Z" fill="white" stroke="white" stroke-width="0.265129" stroke-miterlimit="10"/>
<path d="M55.7668 8.6995H52.8704V10.7159H55.4822V11.48H52.8704V13.4964H55.7668V14.2779H52.0537V7.91797H55.7668V8.6995Z" fill="white" stroke="white" stroke-width="0.265129" stroke-miterlimit="10"/>
<path d="M59.2123 14.2779H58.3945V8.6995H56.6182V7.91797H60.9886V8.6995H59.2123V14.2779Z" fill="white" stroke="white" stroke-width="0.265129" stroke-miterlimit="10"/>
<path d="M64.1523 14.2818V7.92188H64.9691V14.2818H64.1523Z" fill="white" stroke="white" stroke-width="0.265129" stroke-miterlimit="10"/>
<path d="M68.5931 14.2779H67.7753V8.6995H65.999V7.91797H70.3694V8.6995H68.5931V14.2779Z" fill="white" stroke="white" stroke-width="0.265129" stroke-miterlimit="10"/>
<path d="M78.644 13.4577C78.0249 14.0749 77.1864 14.4215 76.3123 14.4215C75.4382 14.4215 74.5997 14.0749 73.9806 13.4577C73.6744 13.1475 73.4336 12.7789 73.2727 12.3738C73.1118 11.9688 73.0339 11.5354 73.0438 11.0997C73.0339 10.6639 73.1118 10.2306 73.2727 9.82548C73.4336 9.42039 73.6744 9.0518 73.9806 8.74161C74.2866 8.43556 74.6499 8.19286 75.0498 8.02739C75.4497 7.86193 75.8783 7.77696 76.3111 7.77735C76.7439 7.77773 77.1723 7.86346 77.5719 8.02963C77.9715 8.1958 78.3344 8.43915 78.6398 8.74575C78.9463 9.05511 79.1875 9.42288 79.3491 9.82724C79.5108 10.2316 79.5896 10.6643 79.5808 11.0997C79.5904 11.5354 79.5124 11.9686 79.3515 12.3737C79.1906 12.7787 78.95 13.1474 78.644 13.4577ZM74.5841 12.9252C75.0426 13.3829 75.6639 13.6399 76.3118 13.6399C76.9596 13.6399 77.581 13.3829 78.0395 12.9252C78.2746 12.6845 78.4584 12.3986 78.5799 12.0848C78.7015 11.7711 78.7581 11.4359 78.7465 11.0997C78.7581 10.7634 78.7015 10.4283 78.5799 10.1145C78.4584 9.80073 78.2746 9.51486 78.0395 9.27415C77.581 8.81646 76.9596 8.55939 76.3118 8.55939C75.6639 8.55939 75.0426 8.81646 74.5841 9.27415C74.3493 9.51505 74.1657 9.80097 74.0444 10.1147C73.9231 10.4284 73.8665 10.7635 73.8781 11.0997C73.8665 11.4358 73.9231 11.7709 74.0444 12.0846C74.1657 12.3984 74.3493 12.6843 74.5841 12.9252Z" fill="white" stroke="white" stroke-width="0.265129" stroke-miterlimit="10"/>
<path d="M80.7275 14.2818V7.92188H81.7223L84.8133 12.8694H84.8485L84.8133 11.6437V7.92188H85.6311V14.2818H84.7781L81.5443 9.09465H81.5091L81.5443 10.3203V14.2818H80.7275Z" fill="white" stroke="white" stroke-width="0.265129" stroke-miterlimit="10"/>
<path d="M72.841 23.5576C71.9501 23.561 71.0801 23.8283 70.341 24.3257C69.6018 24.8232 69.0267 25.5284 68.688 26.3525C68.3494 27.1766 68.2626 28.0825 68.4385 28.9559C68.6144 29.8293 69.0451 30.6311 69.6763 31.2598C70.3075 31.8886 71.1108 32.3163 71.9849 32.4889C72.859 32.6614 73.7646 32.5712 74.5874 32.2294C75.4102 31.8877 76.1133 31.3098 76.6079 30.5688C77.1025 29.8278 77.3665 28.9568 77.3665 28.0659C77.3752 27.47 77.264 26.8784 77.0395 26.3263C76.8149 25.7743 76.4817 25.2731 76.0594 24.8524C75.6372 24.4318 75.1347 24.1004 74.5818 23.878C74.0289 23.6556 73.4369 23.5466 72.841 23.5576ZM72.841 30.7982C72.2924 30.8373 71.7446 30.7104 71.2691 30.4338C70.7936 30.1573 70.4124 29.744 70.175 29.2477C69.9377 28.7515 69.8553 28.1953 69.9385 27.6516C70.0217 27.1078 70.2667 26.6017 70.6416 26.1992C71.0164 25.7966 71.5038 25.5163 72.0403 25.3946C72.5767 25.2729 73.1374 25.3155 73.6492 25.517C74.1611 25.7184 74.6005 26.0692 74.9101 26.5239C75.2198 26.9785 75.3854 27.5158 75.3854 28.0659C75.4021 28.4134 75.3491 28.7607 75.2294 29.0874C75.1098 29.4141 74.9261 29.7136 74.689 29.9682C74.4519 30.2228 74.1663 30.4274 73.8489 30.5699C73.5315 30.7125 73.1888 30.7901 72.841 30.7982ZM62.9689 23.5576C62.0779 23.561 61.2079 23.8283 60.4688 24.3257C59.7296 24.8231 59.1544 25.5284 58.8158 26.3525C58.4772 27.1765 58.3903 28.0825 58.5662 28.9559C58.7421 29.8293 59.1728 30.631 59.804 31.2598C60.4352 31.8886 61.2385 32.3163 62.1126 32.4889C62.9867 32.6614 63.8923 32.5712 64.7151 32.2294C65.5379 31.8877 66.241 31.3098 66.7356 30.5688C67.2302 29.8278 67.4942 28.9568 67.4942 28.0659C67.503 27.47 67.3918 26.8784 67.1672 26.3264C66.9427 25.7743 66.6094 25.2731 66.1872 24.8525C65.765 24.4319 65.2625 24.1005 64.7096 23.878C64.1567 23.6556 63.5647 23.5466 62.9689 23.5576ZM62.9689 30.7982C62.4202 30.8373 61.8724 30.7104 61.3969 30.4338C60.9214 30.1573 60.5402 29.744 60.3029 29.2477C60.0655 28.7515 59.9831 28.1953 60.0663 27.6516C60.1495 27.1078 60.3945 26.6017 60.7694 26.1992C61.1443 25.7966 61.6316 25.5163 62.1681 25.3946C62.7045 25.2729 63.2652 25.3155 63.7771 25.517C64.2889 25.7184 64.7283 26.0692 65.038 26.5239C65.3476 26.9785 65.5133 27.5158 65.5133 28.0659C65.5299 28.4134 65.4769 28.7607 65.3573 29.0874C65.2377 29.4141 65.0539 29.7136 64.8168 29.9682C64.5797 30.2228 64.2941 30.4274 63.9767 30.5699C63.6594 30.7125 63.3167 30.7901 62.9689 30.7982ZM51.2254 24.9409V26.8535H55.8021C55.7361 27.7505 55.369 28.599 54.7603 29.2613C54.3017 29.7288 53.7502 30.095 53.1413 30.3361C52.5324 30.5773 51.8797 30.6882 51.2254 30.6616C49.8876 30.6435 48.6108 30.0993 47.6712 29.147C46.7317 28.1946 46.2049 26.9105 46.2049 25.5727C46.2049 24.2348 46.7317 22.9508 47.6712 21.9984C48.6108 21.046 49.8876 20.5019 51.2254 20.4838C52.5103 20.467 53.75 20.9579 54.675 21.8499L56.0241 20.5008C55.3929 19.876 54.6433 19.3834 53.8193 19.0521C52.9953 18.7207 52.1134 18.5572 51.2254 18.5711C50.2973 18.5576 49.3759 18.7287 48.5145 19.0745C47.6532 19.4203 46.8693 19.9339 46.2082 20.5854C45.5471 21.2369 45.0222 22.0133 44.6639 22.8695C44.3056 23.7257 44.1211 24.6445 44.1211 25.5727C44.1211 26.5008 44.3056 27.4197 44.6639 28.2759C45.0222 29.132 45.5471 29.9085 46.2082 30.5599C46.8693 31.2114 47.6532 31.725 48.5145 32.0708C49.3759 32.4166 50.2973 32.5877 51.2254 32.5742C52.1321 32.6118 53.0366 32.4562 53.8786 32.1176C54.7206 31.779 55.4811 31.2652 56.1094 30.6104C57.225 29.3927 57.8196 27.7868 57.766 26.1363C57.7703 25.7354 57.736 25.3351 57.6634 24.9409H51.2254ZM99.252 26.4265C98.9811 25.6099 98.4653 24.8965 97.7748 24.3833C97.0843 23.87 96.2526 23.5817 95.3926 23.5576C94.8133 23.5612 94.2408 23.6822 93.7097 23.9134C93.1785 24.1445 92.6997 24.4809 92.3023 24.9023C91.9048 25.3237 91.597 25.8213 91.3973 26.3651C91.1976 26.9088 91.1102 27.4874 91.1405 28.0659C91.1274 28.6586 91.234 29.2479 91.4538 29.7985C91.6736 30.3491 92.0021 30.8498 92.4197 31.2706C92.8373 31.6914 93.3355 32.0237 93.8844 32.2477C94.4334 32.4717 95.0218 32.5827 95.6146 32.5742C96.3573 32.5783 97.0894 32.3979 97.7451 32.0492C98.4009 31.7005 98.9597 31.1943 99.3715 30.5762L97.8346 29.5517C97.6043 29.934 97.2787 30.25 96.8895 30.4685C96.5003 30.687 96.061 30.8007 95.6146 30.7982C95.1553 30.8158 94.7014 30.6949 94.3116 30.4513C93.9218 30.2077 93.6142 29.8526 93.4287 29.4321L99.457 26.9389L99.252 26.4265ZM93.1044 27.9293C93.0831 27.6012 93.1275 27.2722 93.235 26.9614C93.3425 26.6507 93.5109 26.3645 93.7303 26.1196C93.9498 25.8747 94.2158 25.676 94.513 25.5352C94.8101 25.3944 95.1324 25.3143 95.4608 25.2995C95.8029 25.277 96.144 25.3557 96.4416 25.5258C96.7392 25.6958 96.9802 25.9497 97.1345 26.2558L93.1044 27.9293ZM88.2031 32.301H90.1841V19.0494H88.2031V32.301ZM84.9585 24.5652H84.8902C84.5891 24.2379 84.2215 23.9788 83.8122 23.8051C83.4028 23.6313 82.9611 23.547 82.5165 23.5576C81.354 23.6071 80.2555 24.1037 79.4505 24.9438C78.6454 25.7838 78.1959 26.9024 78.1959 28.0659C78.1959 29.2295 78.6454 30.348 79.4505 31.1881C80.2555 32.0281 81.354 32.5247 82.5165 32.5742C82.9628 32.5861 83.4064 32.5006 83.8163 32.3236C84.2263 32.1467 84.5927 31.8826 84.8902 31.5496H84.9585V32.1986C84.9585 33.9234 84.0364 34.8455 82.5506 34.8455C82.0554 34.8336 81.575 34.6746 81.1705 34.3887C80.7661 34.1028 80.4559 33.703 80.2794 33.2402L78.5546 33.9575C78.8797 34.749 79.4337 35.4253 80.1456 35.8999C80.8576 36.3746 81.695 36.6258 82.5506 36.6215C84.8732 36.6215 86.837 35.2553 86.837 31.9253V23.8308H84.9585V24.5652ZM82.6873 30.7982C82.0027 30.7401 81.3647 30.4271 80.8998 29.9212C80.4349 29.4152 80.1769 28.7531 80.1769 28.0659C80.1769 27.3788 80.4349 26.7167 80.8998 26.2107C81.3647 25.7047 82.0027 25.3917 82.6873 25.3336C83.028 25.3503 83.3618 25.4353 83.6688 25.5837C83.9759 25.7321 84.25 25.9408 84.4747 26.1974C84.6993 26.4539 84.8701 26.7531 84.9767 27.077C85.0833 27.401 85.1236 27.7431 85.0951 28.0829C85.1218 28.4207 85.08 28.7603 84.9723 29.0816C84.8647 29.4028 84.6933 29.699 84.4686 29.9525C84.2438 30.206 83.9702 30.4115 83.6641 30.5568C83.3581 30.7022 83.0258 30.7842 82.6873 30.7982ZM108.531 19.0496H103.792V32.301H105.769V27.2804H108.531C109.091 27.3111 109.65 27.2274 110.176 27.0344C110.702 26.8415 111.183 26.5433 111.59 26.1581C111.997 25.773 112.321 25.3089 112.543 24.7943C112.764 24.2796 112.878 23.7253 112.878 23.165C112.878 22.6048 112.764 22.0504 112.543 21.5358C112.321 21.0211 111.997 20.5571 111.59 20.1719C111.183 19.7867 110.702 19.4886 110.176 19.2956C109.65 19.1026 109.091 19.0189 108.531 19.0496ZM108.582 25.4363H105.769V20.8939H108.582C108.884 20.8876 109.185 20.9417 109.466 21.0531C109.747 21.1644 110.003 21.3307 110.219 21.5422C110.435 21.7537 110.606 22.0062 110.724 22.2849C110.841 22.5635 110.901 22.8628 110.901 23.1651C110.901 23.4674 110.841 23.7666 110.724 24.0453C110.606 24.3239 110.435 24.5764 110.219 24.7879C110.003 24.9995 109.747 25.1658 109.466 25.2771C109.185 25.3884 108.884 25.4425 108.582 25.4363ZM120.806 23.5333C120.084 23.4911 119.365 23.6606 118.739 24.021C118.112 24.3814 117.604 24.917 117.277 25.562L119.033 26.2951C119.207 25.9749 119.47 25.7125 119.791 25.5399C120.112 25.3673 120.477 25.292 120.84 25.3233C121.342 25.2743 121.842 25.4262 122.232 25.7458C122.622 26.0653 122.869 26.5265 122.92 27.028V27.1645C122.285 26.827 121.576 26.6514 120.857 26.653C118.965 26.653 117.038 27.693 117.038 29.6365C117.057 30.046 117.157 30.4478 117.334 30.8178C117.51 31.1878 117.759 31.5186 118.066 31.7905C118.373 32.0624 118.731 32.2698 119.12 32.4006C119.509 32.5314 119.92 32.5827 120.328 32.5516C120.826 32.5809 121.323 32.4762 121.767 32.2484C122.211 32.0205 122.585 31.6778 122.852 31.256H122.92V32.2789H124.829V27.1986C124.829 24.8459 123.073 23.5333 120.806 23.5333ZM120.567 30.7957C119.919 30.7957 119.016 30.4718 119.016 29.6705C119.016 28.6477 120.141 28.2555 121.113 28.2555C121.744 28.2387 122.368 28.3918 122.92 28.6988C122.847 29.2736 122.569 29.8026 122.136 30.1881C121.704 30.5735 121.146 30.7894 120.567 30.7957ZM131.785 23.8231L129.517 29.5682H129.449L127.097 23.8231H124.966L128.494 31.8527L126.483 36.3193H128.546L133.984 23.8231H131.785ZM113.969 32.301H115.947V19.0496H113.969V32.301Z" fill="white"/>
<path d="M11.679 8.49102C11.3314 8.90661 11.1559 9.43939 11.1884 9.98019V33.423C11.1558 33.9638 11.3313 34.4966 11.679 34.9122L11.7574 34.9886L24.8897 21.8565V21.5467L11.7574 8.41406L11.679 8.49102Z" fill="url(#paint0_linear_413_8124)"/>
<path d="M29.2678 26.2352L24.8906 21.856V21.5461L29.2688 17.168L29.3675 17.2243L34.5539 20.1711C36.0353 21.0128 36.0353 22.3899 34.5539 23.2321L29.3675 26.1789L29.2678 26.2352Z" fill="url(#paint1_linear_413_8124)"/>
<path d="M29.3673 26.1765L24.8904 21.6992L11.6797 34.9097C11.9815 35.176 12.367 35.3282 12.7693 35.3401C13.1716 35.352 13.5654 35.2228 13.8825 34.9748L29.3673 26.1765Z" fill="url(#paint2_linear_413_8124)"/>
<path d="M29.3673 17.2229L13.8825 8.42462C13.5654 8.17668 13.1716 8.04746 12.7693 8.05935C12.367 8.07123 11.9815 8.22348 11.6797 8.4897L24.8904 21.7003L29.3673 17.2229Z" fill="url(#paint3_linear_413_8124)"/>
<path opacity="0.2" d="M29.2686 26.0781L13.8825 34.8202C13.5776 35.0522 13.2056 35.1788 12.8225 35.1809C12.4393 35.1829 12.066 35.0603 11.7587 34.8315L11.6797 34.9105L11.7581 34.9869L11.7587 34.9864C12.0659 35.2153 12.4393 35.338 12.8225 35.3359C13.2056 35.3339 13.5777 35.2072 13.8825 34.975L29.3673 26.1767L29.2686 26.0781Z" fill="#374151"/>
<path opacity="0.12" d="M11.679 34.7587C11.3314 34.3431 11.1559 33.8103 11.1884 33.2695V33.4244C11.1559 33.9652 11.3314 34.498 11.679 34.9136L11.7579 34.8346L11.679 34.7587Z" fill="#374151"/>
<path opacity="0.12" d="M34.5536 23.0782L29.2686 26.0814L29.3672 26.18L34.5536 23.2331C34.8587 23.1007 35.1227 22.8889 35.3181 22.6199C35.5135 22.3508 35.6333 22.0342 35.6648 21.7031C35.5992 22.0029 35.4646 22.2833 35.2717 22.522C35.0788 22.7607 34.833 22.9512 34.5536 23.0782Z" fill="#374151"/>
<path opacity="0.25" d="M13.8828 8.58199L34.554 20.3267C34.8335 20.4537 35.0795 20.6442 35.2724 20.883C35.4653 21.1218 35.5998 21.4024 35.6652 21.7023C35.6339 21.3711 35.5143 21.0544 35.3188 20.7852C35.1234 20.5159 34.8592 20.3041 34.554 20.1718L13.8828 8.42712C12.4013 7.58539 11.1895 8.28455 11.1895 9.98138V10.1362C11.1895 8.43953 12.4013 7.74036 13.8828 8.58199Z" fill="white"/>
</g>
<defs>
<linearGradient id="paint0_linear_413_8124" x1="23.7251" y1="9.73302" x2="5.936" y2="27.5223" gradientUnits="userSpaceOnUse">
<stop stop-color="#00A0FF"/>
<stop offset="0.00657" stop-color="#00A1FF"/>
<stop offset="0.2601" stop-color="#00BEFF"/>
<stop offset="0.5122" stop-color="#00D2FF"/>
<stop offset="0.7604" stop-color="#00DFFF"/>
<stop offset="1" stop-color="#00E3FF"/>
</linearGradient>
<linearGradient id="paint1_linear_413_8124" x1="36.4827" y1="21.7016" x2="10.8341" y2="21.7016" gradientUnits="userSpaceOnUse">
<stop stop-color="#FFE000"/>
<stop offset="0.4087" stop-color="#FFBD00"/>
<stop offset="0.7754" stop-color="#FFA500"/>
<stop offset="1" stop-color="#FF9C00"/>
</linearGradient>
<linearGradient id="paint2_linear_413_8124" x1="26.9347" y1="24.132" x2="2.81117" y2="48.2557" gradientUnits="userSpaceOnUse">
<stop stop-color="#FF3A44"/>
<stop offset="1" stop-color="#C31162"/>
</linearGradient>
<linearGradient id="paint3_linear_413_8124" x1="8.35334" y1="0.68626" x2="19.1255" y2="11.4585" gradientUnits="userSpaceOnUse">
<stop stop-color="#32A071"/>
<stop offset="0.0685" stop-color="#2DA771"/>
<stop offset="0.4762" stop-color="#15CF74"/>
<stop offset="0.8009" stop-color="#06E775"/>
<stop offset="1" stop-color="#00F076"/>
</linearGradient>
<clipPath id="clip0_413_8124">
<rect width="143.1" height="42.3997" fill="white" transform="translate(0.617188 0.5)"/>
</clipPath>
</defs>
</svg>
