<svg width="798" height="684" viewBox="0 0 798 684" fill="none" xmlns="http://www.w3.org/2000/svg">
<path d="M533.385 684L855 498.277L321.616 190.268L0 375.989L533.385 684Z" fill="#7600CD"/>
<path d="M842.968 498.278L321.621 197.218L12.0371 375.986L533.389 677.051L842.968 498.278Z" fill="#9133D7"/>
<path d="M433.365 616.634L529.582 561.071L629.592 618.822L533.372 674.385L433.365 616.634ZM322.713 441.614L411.451 492.856L315.235 548.417L226.495 497.173L322.713 441.614ZM620.151 372.34L526.755 426.27L438.017 375.028L531.413 321.096L620.151 372.34ZM644.886 494.489L738.28 440.555L838.288 498.305L744.89 552.238L644.886 494.489ZM637.824 498.566L737.832 556.315L636.65 614.744L536.644 556.994L637.824 498.566ZM533.816 430.349L627.21 376.415L731.218 436.477L637.824 490.409L533.816 430.349ZM418.514 488.778L329.774 437.535L430.957 379.105L519.695 430.349L418.514 488.778ZM522.523 556.994L426.303 612.557L322.295 552.496L418.514 496.931L522.523 556.994ZM425.574 492.856L526.755 434.426L630.763 494.489L529.582 552.916L425.574 492.856ZM627.253 368.281L627.232 368.247L627.211 368.26L531.413 312.937L212.372 497.173L533.372 682.541L852.413 498.305L627.253 368.281Z" fill="#F0EFFB"/>
<path d="M89.2061 273.027V279.407C89.4066 281.173 90.7317 283.017 93.2583 284.461C96.7088 286.467 101.402 287.23 105.374 286.628C107.057 286.388 108.622 285.906 109.906 285.143L181.871 243.576C183.756 242.534 184.639 241.09 184.72 239.604L184.759 233.386L180.186 233.747C175.292 231.14 168.192 230.898 164.059 233.305L103.085 268.494L93.0183 274.311L92.8178 273.027H89.2061Z" fill="#C7784C"/>
<path d="M89.2061 273.027V279.407C89.4066 281.173 90.7317 283.017 93.2583 284.461C96.7088 286.467 101.402 287.23 105.374 286.628V268.494H103.085L93.0184 274.311L92.8178 273.027H89.2061Z" fill="#DFCFB5"/>
<path d="M109.905 279.14L181.886 237.573C186.152 235.11 185.616 230.807 180.691 227.964V227.962C175.765 225.118 168.315 224.81 164.049 227.274L92.067 268.84C87.8011 271.304 88.3371 275.606 93.2628 278.45C98.1884 281.294 105.639 281.603 109.905 279.14Z" fill="white"/>
<path d="M434.063 263.445L434.041 263.406L434.016 263.417L322.661 199.113L14.9238 376.343L401.715 599.615L709.45 422.387L434.063 263.445Z" fill="#F1E6FA"/>
<path d="M709.451 365.232L625.423 316.709V261.061L634.335 264.289L625.417 259.173V253.615L565.802 224.412L565.562 224.832L447.638 157.175L442.244 155.222V151.345L376.741 48.8796L352.488 62.8946L298.713 77.2489L83.0234 201.886L88.8581 200.328L88.6875 200.427V239.051L14.9248 281.645V177.241L322.677 -0.000274658L709.451 223.261V365.232Z" fill="url(#paint0_linear_319_96676)"/>
<path d="M709.452 413.504L625.424 364.98V315.986L709.452 364.51V413.504ZM14.9258 366.647V280.922L88.6885 238.328V291.081V324.819L14.9258 366.647Z" fill="url(#paint1_linear_319_96676)"/>
<path d="M709.45 422.361L625.422 373.858V367.226L627.212 368.26L627.232 368.247L627.253 368.281L709.45 415.749V422.361Z" fill="url(#paint2_linear_319_96676)"/>
<path d="M223.046 278.016L88.6875 200.429L304.375 75.7922L438.733 153.381L223.046 278.016Z" fill="#C899EB"/>
<path d="M223.045 438.895V278.017L438.732 153.382V314.26L223.045 438.895Z" fill="#9133D7"/>
<path d="M282.817 396.927L235.74 424.113V317.205L282.817 290.021V396.927Z" fill="#F7F7FD"/>
<path d="M88.6875 361.308V200.43L223.046 278.017V438.895L88.6875 361.308Z" fill="#AD66E1"/>
<path d="M106.892 238.728V342.164L124.879 352.529V249.091L106.892 238.728Z" fill="#F7F7FD"/>
<path d="M132.055 253.248V356.684L150.04 367.049V263.611L132.055 253.248Z" fill="#F7F7FD"/>
<path d="M157.217 267.769V371.207L175.204 381.57V278.134L157.217 267.769Z" fill="#F7F7FD"/>
<path d="M182.379 282.289V385.725L200.365 396.09V292.654L182.379 282.289Z" fill="#F7F7FD"/>
<path d="M480.345 344.223L293.647 237.11L438.725 153.371L625.422 260.485L480.345 344.223Z" fill="#9133D7"/>
<path d="M480.346 505.232V344.225L625.423 260.488V421.493L480.346 505.232Z" fill="#9133D7"/>
<path d="M293.647 398.118V237.113L480.345 344.225V505.232L293.647 398.118Z" fill="#C899EB"/>
<path d="M467.475 486.479L306.517 393.533V287.118L467.475 380.065V486.479Z" fill="#F7F7FD"/>
<path d="M259.049 277.322L251.702 268.989L285.141 249.665L293.647 254.545V258.154L259.049 277.322Z" fill="#9133D7"/>
<path d="M293.647 258.154V254.546L293.663 254.556L293.664 258.145L293.647 258.154Z" fill="#013BA1"/>
<path d="M83.0225 201.887L161.051 181.057L376.74 56.4205L298.712 77.2498L83.0225 201.887Z" fill="#5598E9"/>
<path d="M226.554 283.521L161.05 181.056L376.739 56.4194L442.242 158.885L226.554 283.521Z" fill="#3F461D"/>
<path d="M442.244 151.345V158.885L226.557 283.521V275.98L442.244 151.345Z" fill="#9133D7"/>
<path d="M180.306 236.682L155.793 201.927L109.218 212.285L88.6875 200.43L92.4886 199.361L161.052 181.059L194.043 232.664L180.306 236.682Z" fill="#7600CD"/>
<path d="M88.6931 216.848L88.6875 200.428L109.218 212.283L88.6931 216.848Z" fill="#5245ED"/>
<path d="M92.4883 199.361L160.752 180.182L161.052 180.652V181.059L92.4883 199.361Z" fill="#073CAE"/>
<path d="M83.0225 194.346L161.051 173.518L376.74 48.8814L298.712 69.7089L83.0225 194.346Z" fill="#C899EB"/>
<path d="M226.554 275.98L161.05 173.517L376.739 48.8802L442.242 151.345L226.554 275.98Z" fill="#AD66E1"/>
<path d="M270.451 220.002L233.482 206.787L233.486 182.509L264.232 193.862L278.158 209.596L270.451 220.002Z" fill="#7600CD"/>
<path d="M233.483 180.629L220.117 172.911L233.4 165.24L246.766 172.96L233.483 180.629Z" fill="#A8A2F6"/>
<path d="M233.486 180.557L219.129 172.263L233.396 164.024L247.755 172.316L240.62 176.436L233.486 180.557Z" fill="#CBC7FA"/>
<path d="M233.487 183.049L247.756 174.808V172.315L233.487 180.556V183.049Z" fill="#AD66E1"/>
<path d="M219.129 174.757L233.486 183.049V180.556L219.129 172.262V174.757Z" fill="#A8A2F6"/>
<path d="M242.862 172.942L233.466 178.381L233.436 178.349L224.038 172.912L233.404 167.506L233.436 167.538L242.862 172.942Z" fill="#5E00A4"/>
<path d="M242.861 172.942L233.466 178.381L233.436 178.349V167.538L242.861 172.942Z" fill="#A8A2F6"/>
<path d="M233.482 206.785L246.765 199.116V172.959L233.482 180.628V206.785Z" fill="#5E00A4"/>
<path d="M220.119 186.018L233.483 206.785V180.628L220.119 172.91V186.018Z" fill="#C899EB"/>
<path d="M233.49 166.832L231.603 165.741L233.477 164.66L235.364 165.749L233.49 166.832Z" fill="#A8A2F6"/>
<path d="M233.49 179.922L235.365 178.84V165.748L233.49 166.831V179.922Z" fill="#AD66E1"/>
<path d="M231.603 178.833L233.49 179.922V166.831L231.603 165.74V178.833Z" fill="#7600CD"/>
<path d="M233.491 166.832L232.219 166.097L233.469 165.379L234.753 166.103L233.491 166.832Z" fill="#096EA8"/>
<path d="M233.503 170.848L233.49 170.84V166.833L234.752 166.104L235.359 166.445V169.781L233.503 170.848Z" fill="#093B7D"/>
<path d="M233.489 170.84L231.609 169.745V166.445L232.217 166.098L233.489 166.833V170.84Z" fill="#096EA8"/>
<path d="M244.897 160.236L243.01 159.147L244.884 158.064L246.773 159.153L244.897 160.236Z" fill="#A8A2F6"/>
<path d="M244.896 173.326L246.773 172.244V159.152L244.896 160.235V173.326Z" fill="#AD66E1"/>
<path d="M243.01 172.237L244.897 173.326V160.235L243.01 159.146V172.237Z" fill="#7600CD"/>
<path d="M244.898 160.236L243.616 159.498L244.437 159.016L245.712 159.766L244.898 160.236Z" fill="#096EA8"/>
<path d="M244.896 164.262V160.238L245.71 159.767L246.773 160.391V163.178L244.896 164.262Z" fill="#093B7D"/>
<path d="M244.89 164.264L243.026 163.398V159.842L243.615 159.497L244.897 160.236V164.26L244.89 164.264Z" fill="#096EA8"/>
<path d="M222.006 160.203L220.117 159.114L221.993 158.031L223.881 159.122L222.006 160.203Z" fill="#A8A2F6"/>
<path d="M222.006 173.295L223.88 172.211V159.121L222.006 160.202V173.295Z" fill="#AD66E1"/>
<path d="M220.117 172.204L222.006 173.295V160.202L220.117 159.113V172.204Z" fill="#7600CD"/>
<path d="M222.007 160.203L221.167 159.72L222.432 158.981L223.264 159.478L222.007 160.203Z" fill="#096EA8"/>
<path d="M222.007 164.225V160.204L223.264 159.479L223.875 159.844V163.181L222.007 164.225Z" fill="#093B7D"/>
<path d="M222 164.227L220.128 163.143V160.324L221.166 159.721L222.006 160.204V164.225L222 164.227Z" fill="#096EA8"/>
<path d="M233.492 166.811L217.699 157.69L233.393 148.628L249.185 157.747L233.492 166.811Z" fill="#FFD700"/>
<path d="M233.493 169.557L249.187 160.493V157.75L233.493 166.814V169.557Z" fill="#A8A2F6"/>
<path d="M217.699 160.436L233.492 169.557V166.814L217.699 157.694V160.436Z" fill="#CBC7FA"/>
<path d="M471.735 356.721L285.037 249.606L343.438 195.241L530.136 302.355L471.735 356.721Z" fill="#5598E9"/>
<path d="M447.635 157.177L379.1 132.358L565.799 239.472L634.332 264.291L447.635 157.177Z" fill="#DDB79B"/>
<path d="M565.801 239.472L530.135 302.355L343.438 195.241L379.101 132.357L565.801 239.472Z" fill="#433E44"/>
<path d="M480.351 365.23L480.346 348.707V365.075L480.351 365.069V365.23Z" fill="#02288E"/>
<path d="M480.351 365.23L293.664 258.146V254.558L471.734 356.721L480.345 348.707V365.227" fill="#5E00A4"/>
<path d="M293.664 241.576V237.203L293.964 237.031L296.802 238.658L293.664 241.576Z" fill="#02288E"/>
<path d="M293.664 237.201V236.856L293.964 237.029L293.664 237.201Z" fill="#0852BE"/>
<path d="M471.734 356.721L293.664 254.557V241.575L296.802 238.656L480.351 343.941L480.345 348.707L471.734 356.721Z" fill="#7600CD"/>
<path d="M493.016 336.914L530.136 302.357L565.802 239.473L562.623 237.649L565.802 239.473L624.81 260.842L607.261 270.971L565.802 255.976L532.979 313.845L493.016 336.914Z" fill="#7600CD"/>
<path d="M480.352 365.07V348.703L493.016 336.915L532.98 313.845L530.136 318.86L480.352 365.07ZM625.418 277.539L607.261 270.972L624.81 260.843L625.418 261.062V277.539Z" fill="#7600CD"/>
<path d="M480.351 348.701V343.941L480.346 333.513L520.11 296.602L530.136 302.356L493.016 336.913L480.351 348.701Z" fill="#033093"/>
<path d="M625.416 259.174L565.561 224.832L565.8 224.412L625.416 253.615V259.174Z" fill="url(#paint3_linear_319_96676)"/>
<path d="M625.417 261.062L624.81 260.843L565.802 239.474L562.623 237.65L565.802 232.046L562.535 230.172L565.562 224.835L625.417 259.177V261.062Z" fill="#073962"/>
<path d="M530.137 302.355L520.111 296.602L525.056 292.011L530.137 294.926L562.624 237.648L565.803 239.472L530.137 302.355Z" fill="#02132B"/>
<path d="M480.346 365.076V348.708L480.351 348.703V365.071L480.346 365.076Z" fill="#000D5A"/>
<path d="M480.346 348.709V343.941L480.351 343.944V348.703L480.346 348.709Z" fill="#00136E"/>
<path d="M471.735 349.295L285.037 242.179L343.438 187.815L530.136 294.93L471.735 349.295Z" fill="#AD66E1"/>
<path d="M447.635 149.745L379.1 124.928L565.799 232.043L634.332 256.859L447.635 149.745Z" fill="#C899EB"/>
<path d="M565.801 232.044L530.135 294.926L343.438 187.813L379.101 124.93L565.801 232.044Z" fill="#C899EB"/>
<path d="M161.051 173.517V181.057L83.0225 201.887V194.345L161.051 173.517Z" fill="#A8A2F6"/>
<path d="M161.05 173.516V181.056L226.554 283.521V275.98L161.05 173.516Z" fill="#A8A2F6"/>
<path d="M634.334 264.29V256.861L565.801 232.044L530.135 294.928L471.734 349.293V356.721L530.135 302.356L565.801 239.472L634.334 264.29Z" fill="#5E00A4"/>
<path d="M395.653 208.873V170.45L385.114 164.359L382.921 143.736H395.653L434.82 165.548L434.155 171.194L424.103 187.547L395.653 208.873Z" fill="#7600CD"/>
<path d="M408.5 164.58V186.37L395.653 208.873V170.45L408.5 164.58Z" fill="#5E00A4"/>
<path d="M395.652 208.873L370.187 194.155V155.734L395.652 170.45V208.873Z" fill="#9133D7"/>
<path d="M392.088 169.582L363.456 153.034L383.395 141.88L412.028 158.428L392.088 169.582Z" fill="#CBC7FA"/>
<path d="M392.088 168.309L363.456 151.759L383.395 140.605L412.028 157.152L392.088 168.309Z" fill="white"/>
<path d="M394.003 172.664L408.501 164.579L412.028 158.428L392.088 169.582L394.003 172.664Z" fill="#5E00A4"/>
<path d="M363.456 153.034L365.372 156.115L394.003 172.664L392.088 169.582L363.456 153.034Z" fill="#A8A2F6"/>
<path d="M392.088 169.582V168.307L412.028 157.151V158.428L392.088 169.582Z" fill="#A8A2F6"/>
<path d="M392.088 169.582V168.307L363.456 151.758V153.034L392.088 169.582Z" fill="#CBC7FA"/>
<path d="M372.45 193.514V163.028L393.394 175.114V205.6L372.45 193.514Z" fill="#C899EB"/>
<path d="M374.904 167.29V192.1L390.939 201.34V176.531L374.904 167.29Z" fill="white"/>
<path d="M377.667 168.886V190.924L390.939 198.567V201.34L374.904 192.102V167.29L377.667 168.886Z" fill="#5E00A4"/>
<path d="M377.667 190.924L374.904 192.102L390.939 201.34V198.567L377.667 190.924Z" fill="#5E00A4"/>
<path d="M379.71 192.102H374.904L377.667 190.924V168.886L379.764 170.091L379.71 192.102Z" fill="#C899EB"/>
<path d="M449.443 239.678L440.311 208.416L436.711 174.541H449.443L488.61 196.352L487.945 201.999L477.891 218.352L449.443 239.678Z" fill="#7600CD"/>
<path d="M462.29 195.383V217.174L449.445 239.678V201.257L462.29 195.383Z" fill="#5E00A4"/>
<path d="M449.445 239.678L423.978 224.96V186.539L449.445 201.257V239.678Z" fill="#9133D7"/>
<path d="M445.879 200.391L417.246 183.843L437.187 172.689L465.818 189.238L445.879 200.391Z" fill="#CBC7FA"/>
<path d="M445.879 199.111L417.246 182.564L437.187 171.409L465.818 187.957L445.879 199.111Z" fill="white"/>
<path d="M447.793 203.471L462.29 195.383L465.817 189.236L445.879 200.389L447.793 203.471Z" fill="#5E00A4"/>
<path d="M417.246 183.841L419.16 186.921L447.793 203.471L445.88 200.389L417.246 183.841Z" fill="#A8A2F6"/>
<path d="M445.879 200.391V199.114L465.817 187.96V189.238L445.879 200.391Z" fill="#A8A2F6"/>
<path d="M445.879 200.391V199.114L417.246 182.566V183.843L445.879 200.391Z" fill="#CBC7FA"/>
<path d="M426.238 224.322V193.837L447.183 205.922V236.408L426.238 224.322Z" fill="#C899EB"/>
<path d="M428.694 198.097V222.906L444.729 232.146V207.337L428.694 198.097Z" fill="white"/>
<path d="M431.457 199.692V221.733L444.729 229.374V232.146L428.694 222.908V198.097L431.457 199.692Z" fill="#5E00A4"/>
<path d="M431.457 221.733L428.694 222.908L444.729 232.146V229.374L431.457 221.733Z" fill="#5E00A4"/>
<path d="M428.694 222.908H433.502L433.556 200.898L431.457 199.692V221.733L428.694 222.908Z" fill="#C899EB"/>
<path d="M503.236 270.484L494.104 239.223L490.502 205.347H503.236L542.401 227.159L541.736 232.806L531.68 249.158L503.236 270.484Z" fill="#7600CD"/>
<path d="M516.081 226.192V247.983L503.236 270.484V232.063L516.081 226.192Z" fill="#5E00A4"/>
<path d="M503.237 270.484L477.77 255.766V217.345L503.237 232.063V270.484Z" fill="#9133D7"/>
<path d="M499.667 231.195L471.035 214.648L490.976 203.493L519.607 220.043L499.667 231.195Z" fill="#CBC7FA"/>
<path d="M499.667 229.92L471.035 213.372L490.976 202.218L519.607 218.768L499.667 229.92Z" fill="white"/>
<path d="M501.582 234.279L516.079 226.194L519.607 220.045L499.666 231.197L501.582 234.279Z" fill="#5E00A4"/>
<path d="M471.035 214.65L472.951 217.73L501.582 234.279L499.667 231.197L471.035 214.65Z" fill="#A8A2F6"/>
<path d="M499.666 231.195V229.919L519.607 218.766V220.043L499.666 231.195Z" fill="#A8A2F6"/>
<path d="M499.667 231.195V229.919L471.035 213.371V214.648L499.667 231.195Z" fill="#CBC7FA"/>
<path d="M480.027 255.129V224.641L500.973 236.727V267.213L480.027 255.129Z" fill="#C899EB"/>
<path d="M482.484 228.905V253.713L498.519 262.953V238.144L482.484 228.905Z" fill="white"/>
<path d="M485.247 230.499V252.539L498.517 260.18V262.953L482.484 253.715V228.904L485.247 230.499Z" fill="#5E00A4"/>
<path d="M485.247 252.539L482.484 253.715L498.517 262.953V260.18L485.247 252.539Z" fill="#5E00A4"/>
<path d="M482.484 253.713H487.292L487.345 231.703L485.247 230.497V252.537L482.484 253.713Z" fill="#C899EB"/>
<path d="M826.098 428.783L675.846 342.018V334.289L826.098 421.054V428.783Z" fill="#7600CD"/>
<path d="M829.494 419.096L826.098 421.055L675.846 334.29L679.244 332.331L829.494 419.096Z" fill="#AD66E1"/>
<path d="M826.098 502.588L675.846 415.825V408.096L826.098 494.859V502.588Z" fill="#7600CD"/>
<path d="M829.494 492.898L826.098 494.857L675.846 408.094L679.244 406.135L829.494 492.898Z" fill="#AD66E1"/>
<path d="M695.756 438.109L683.732 431.166V323.031L689.743 319.187L695.756 329.973V438.109Z" fill="#AD66E1"/>
<path d="M695.758 438.109L699.274 436.09V327.956L695.758 329.973V438.109Z" fill="#7600CD"/>
<path d="M695.757 329.973L699.273 327.956L693.262 317.171L689.744 319.186L695.757 329.973Z" fill="#C899EB"/>
<path d="M692.34 350.674C692.34 352.318 691.178 352.981 689.744 352.153C688.31 351.326 687.148 349.321 687.148 347.677C687.148 346.032 688.31 345.368 689.744 346.197C691.178 347.025 692.34 349.029 692.34 350.674Z" fill="#C899EB"/>
<path d="M692.34 422.234C692.34 423.88 691.178 424.542 689.744 423.713C688.31 422.885 687.148 420.881 687.148 419.236C687.148 417.592 688.31 416.93 689.744 417.757C691.178 418.583 692.34 420.589 692.34 422.234Z" fill="#C899EB"/>
<path d="M715.143 449.316L703.121 442.375V334.24L709.132 330.397L715.143 341.182V449.316Z" fill="#AD66E1"/>
<path d="M715.143 449.316L718.659 447.299V339.165L715.143 341.182V449.316Z" fill="#7600CD"/>
<path d="M715.142 341.182L718.658 339.164L712.647 328.378L709.131 330.397L715.142 341.182Z" fill="#C899EB"/>
<path d="M711.729 361.879C711.729 363.525 710.567 364.188 709.133 363.36C707.699 362.533 706.537 360.528 706.537 358.882C706.537 357.239 707.699 356.575 709.133 357.403C710.567 358.232 711.729 360.236 711.729 361.879Z" fill="#C899EB"/>
<path d="M711.729 433.442C711.729 435.087 710.567 435.751 709.133 434.923C707.699 434.096 706.537 432.092 706.537 430.447C706.537 428.801 707.699 428.138 709.133 428.966C710.567 429.793 711.729 431.798 711.729 433.442Z" fill="#C899EB"/>
<path d="M734.53 460.523L722.508 453.58V345.446L728.519 341.602L734.53 352.389V460.523Z" fill="#AD66E1"/>
<path d="M734.531 460.523L738.049 458.504V350.37L734.531 352.389V460.523Z" fill="#7600CD"/>
<path d="M734.53 352.389L738.048 350.37L732.037 339.585L728.52 341.602L734.53 352.389Z" fill="#C899EB"/>
<path d="M731.115 373.088C731.115 374.734 729.953 375.397 728.52 374.569C727.086 373.742 725.922 371.737 725.922 370.091C725.922 368.448 727.086 367.784 728.52 368.613C729.953 369.439 731.115 371.445 731.115 373.088Z" fill="#C899EB"/>
<path d="M731.115 444.652C731.115 446.297 729.953 446.959 728.52 446.132C727.086 445.302 725.922 443.298 725.922 441.653C725.922 440.007 727.086 439.345 728.52 440.172C729.953 441 731.115 443.006 731.115 444.652Z" fill="#C899EB"/>
<path d="M753.918 471.734L741.896 464.793V356.657L747.907 352.813L753.918 363.598V471.734Z" fill="#AD66E1"/>
<path d="M753.918 471.734L757.436 469.717V361.581L753.918 363.598V471.734Z" fill="#7600CD"/>
<path d="M753.917 363.598L757.435 361.581L751.424 350.795L747.906 352.813L753.917 363.598Z" fill="#C899EB"/>
<path d="M750.502 384.297C750.502 385.943 749.338 386.606 747.906 385.778C746.473 384.95 745.311 382.946 745.311 381.302C745.311 379.655 746.473 378.993 747.906 379.822C749.338 380.648 750.502 382.652 750.502 384.297Z" fill="#C899EB"/>
<path d="M750.502 455.86C750.502 457.505 749.338 458.169 747.906 457.34C746.473 456.514 745.311 454.508 745.311 452.863C745.311 451.219 746.473 450.556 747.906 451.384C749.338 452.211 750.502 454.214 750.502 455.86Z" fill="#C899EB"/>
<path d="M773.307 482.941L761.283 475.998V367.864L767.296 364.021L773.307 374.805V482.941Z" fill="#AD66E1"/>
<path d="M773.307 482.941L776.825 480.922V372.79L773.307 374.805V482.941Z" fill="#7600CD"/>
<path d="M773.306 374.807L776.824 372.791L770.811 362.004L767.295 364.022L773.306 374.807Z" fill="#C899EB"/>
<path d="M769.891 395.505C769.891 397.151 768.727 397.812 767.295 396.986C765.861 396.159 764.699 394.152 764.699 392.508C764.699 390.863 765.861 390.201 767.295 391.027C768.727 391.856 769.891 393.861 769.891 395.505Z" fill="#C899EB"/>
<path d="M769.891 467.071C769.891 468.715 768.727 469.377 767.295 468.55C765.861 467.722 764.699 465.718 764.699 464.073C764.699 462.427 765.861 461.765 767.295 462.594C768.727 463.42 769.891 465.426 769.891 467.071Z" fill="#C899EB"/>
<path d="M792.692 494.148L780.67 487.208V379.072L786.681 375.229L792.692 386.014V494.148Z" fill="#AD66E1"/>
<path d="M792.691 494.148L796.209 492.133V383.997L792.691 386.014V494.148Z" fill="#7600CD"/>
<path d="M792.693 386.014L796.211 383.997L790.2 373.212L786.682 375.229L792.693 386.014Z" fill="#C899EB"/>
<path d="M789.278 406.715C789.278 408.359 788.116 409.022 786.68 408.194C785.248 407.367 784.086 405.364 784.086 403.718C784.086 402.074 785.248 401.409 786.68 402.239C788.116 403.066 789.278 405.07 789.278 406.715Z" fill="#C899EB"/>
<path d="M789.278 478.275C789.278 479.92 788.116 480.584 786.68 479.753C785.248 478.927 784.086 476.923 784.086 475.278C784.086 473.632 785.248 472.97 786.68 473.799C788.116 474.625 789.278 476.629 789.278 478.275Z" fill="#C899EB"/>
<defs>
<linearGradient id="paint0_linear_319_96676" x1="362.189" y1="136.987" x2="362.189" y2="324.477" gradientUnits="userSpaceOnUse">
<stop stop-color="#F1E6FA"/>
<stop offset="1" stop-color="#E4CCF5"/>
</linearGradient>
<linearGradient id="paint1_linear_319_96676" x1="362.19" y1="136.989" x2="362.19" y2="324.48" gradientUnits="userSpaceOnUse">
<stop stop-color="#FFFCF7"/>
<stop offset="1" stop-color="#E8E6F9"/>
</linearGradient>
<linearGradient id="paint2_linear_319_96676" x1="362.187" y1="136.987" x2="362.187" y2="324.478" gradientUnits="userSpaceOnUse">
<stop stop-color="#E8E6F9"/>
<stop offset="1" stop-color="#D1CEF3"/>
</linearGradient>
<linearGradient id="paint3_linear_319_96676" x1="362.187" y1="136.987" x2="362.187" y2="324.478" gradientUnits="userSpaceOnUse">
<stop stop-color="#0850A1"/>
<stop offset="1" stop-color="#074CA1"/>
</linearGradient>
</defs>
</svg>
