<svg width="41" height="41" viewBox="0 0 41 41" fill="none" xmlns="http://www.w3.org/2000/svg">
<path fill-rule="evenodd" clip-rule="evenodd" d="M28.6423 2.33454C28.6423 1.86094 28.4542 1.40674 28.1193 1.07185C27.7844 0.736965 27.3302 0.548828 26.8566 0.548828C26.383 0.548828 25.9288 0.736965 25.5939 1.07185C25.259 1.40674 25.0709 1.86094 25.0709 2.33454V4.62026C25.0709 5.09386 25.259 5.54806 25.5939 5.88295C25.9288 6.21783 26.383 6.40597 26.8566 6.40597C27.3302 6.40597 27.7844 6.21783 28.1193 5.88295C28.4542 5.54806 28.6423 5.09386 28.6423 4.62026V2.33454ZM37.6623 7.22311C37.8361 7.05912 37.9751 6.86191 38.0713 6.64319C38.1675 6.42447 38.2188 6.18867 38.2221 5.94977C38.2255 5.71086 38.1809 5.4737 38.091 5.25235C38.0011 5.03099 37.8676 4.82993 37.6986 4.66108C37.5295 4.49222 37.3283 4.35901 37.1069 4.26933C36.8854 4.17965 36.6482 4.13532 36.4093 4.13897C36.1704 4.14263 35.9347 4.19419 35.716 4.2906C35.4974 4.38701 35.3004 4.52631 35.1366 4.70026L33.5223 6.31454C33.3484 6.47834 33.2091 6.67539 33.1126 6.894C33.0162 7.11262 32.9647 7.34835 32.961 7.58726C32.9574 7.82616 33.0017 8.06336 33.0914 8.28482C33.1811 8.50628 33.3143 8.70749 33.4831 8.87654C33.652 9.04558 33.853 9.17902 34.0744 9.26895C34.2957 9.35889 34.5329 9.40348 34.7718 9.4001C35.0107 9.39672 35.2465 9.34542 35.4652 9.24926C35.684 9.15309 35.8812 9.01401 36.0452 8.84026L37.6623 7.22311ZM16.1766 4.70026C16.5114 4.36614 16.965 4.17849 17.438 4.17849C17.911 4.17849 18.3647 4.36614 18.6994 4.70026L20.3166 6.31454C20.4824 6.48038 20.614 6.67727 20.7037 6.89395C20.7935 7.11063 20.8397 7.34287 20.8397 7.5774C20.8397 7.81193 20.7935 8.04417 20.7037 8.26085C20.614 8.47753 20.4824 8.67442 20.3166 8.84026C20.1507 9.0061 19.9539 9.13765 19.7372 9.2274C19.5205 9.31715 19.2883 9.36335 19.0537 9.36335C18.8192 9.36335 18.587 9.31715 18.3703 9.2274C18.1536 9.13765 17.9567 9.0061 17.7909 8.84026L16.1737 7.22311C15.8396 6.88833 15.652 6.43467 15.652 5.96169C15.652 5.4887 15.8425 5.03504 16.1766 4.70026ZM24.888 18.2688C24.2553 17.9436 23.7215 17.4543 23.3425 16.8522C22.9636 16.25 22.7533 15.5572 22.7337 14.846C22.7404 14.3243 22.8505 13.809 23.0577 13.3302C23.265 12.8514 23.5652 12.4184 23.941 12.0564C24.3167 11.6945 24.7606 11.4107 25.2469 11.2216C25.7332 11.0324 26.2521 10.9416 26.7737 10.9545C27.8145 10.9484 28.8156 11.3541 29.5585 12.0831C30.3014 12.8121 30.7259 13.8052 30.7394 14.846C30.7194 16.2603 29.8537 17.6374 28.5852 18.2688C28.2889 18.4185 28.0397 18.6471 27.8653 18.9294C27.6908 19.2118 27.5978 19.5369 27.5966 19.8688V21.5317H25.8766V19.866C25.8753 19.5341 25.7824 19.209 25.6079 18.9266C25.4334 18.6442 25.1843 18.4185 24.888 18.2688ZM19.1623 14.866C19.166 13.8765 19.3651 12.8975 19.7482 11.9852C20.1313 11.0729 20.6907 10.2453 21.3945 9.54974C22.0982 8.85422 22.9324 8.30453 23.8492 7.93223C24.7659 7.55993 25.7472 7.37235 26.7366 7.38026C27.726 7.37235 28.7073 7.55993 29.624 7.93223C30.5408 8.30453 31.3749 8.85422 32.0787 9.54974C32.7825 10.2453 33.3419 11.0729 33.725 11.9852C34.108 12.8975 34.3071 13.8765 34.3109 14.866V14.8803C34.2866 16.0533 33.99 17.2046 33.4446 18.2434C32.8992 19.2822 32.1198 20.18 31.168 20.866V22.746C31.1488 23.3751 30.886 23.9722 30.4351 24.4114C29.9842 24.8506 29.3803 25.0976 28.7509 25.1003H24.7223C24.0933 25.0969 23.4902 24.8496 23.0399 24.4104C22.5896 23.9713 22.3272 23.3746 22.308 22.746V20.866C21.3562 20.18 20.5768 19.2822 20.0314 18.2434C19.486 17.2046 19.1894 16.0533 19.1652 14.8803L19.1623 14.866ZM35.0023 14.8574C35.0023 13.8717 35.8023 13.0717 36.788 13.0717H39.0737C39.5473 13.0717 40.0015 13.2598 40.3364 13.5947C40.6713 13.9296 40.8594 14.3838 40.8594 14.8574C40.8594 15.331 40.6713 15.7852 40.3364 16.1201C40.0015 16.455 39.5473 16.6431 39.0737 16.6431H36.788C36.3144 16.6431 35.8602 16.455 35.5253 16.1201C35.1904 15.7852 35.0023 15.331 35.0023 14.8574ZM14.6423 13.0717C14.1687 13.0717 13.7145 13.2598 13.3796 13.5947C13.0447 13.9296 12.8566 14.3838 12.8566 14.8574C12.8566 15.331 13.0447 15.7852 13.3796 16.1201C13.7145 16.455 14.1687 16.6431 14.6423 16.6431H16.928C17.4016 16.6431 17.8558 16.455 18.1907 16.1201C18.5256 15.7852 18.7137 15.331 18.7137 14.8574C18.7137 14.3838 18.5256 13.9296 18.1907 13.5947C17.8558 13.2598 17.4016 13.0717 16.928 13.0717H14.6423ZM12.7823 27.2917H12.7766C10.6682 27.3035 8.59995 27.8693 6.77915 28.9324C4.95835 29.9955 3.44897 31.5185 2.4023 33.3488C1.41203 35.1076 0.881377 37.0877 0.859446 39.106C0.857558 39.2948 0.893116 39.4821 0.964062 39.6571C1.03501 39.832 1.13994 39.9912 1.27278 40.1254C1.40562 40.2595 1.56375 40.3661 1.73801 40.4387C1.91227 40.5114 2.09921 40.5488 2.28802 40.5488H23.2709C23.4597 40.5488 23.6466 40.5114 23.8209 40.4387C23.9951 40.3661 24.1533 40.2595 24.2861 40.1254C24.419 39.9912 24.5239 39.832 24.5948 39.6571C24.6658 39.4821 24.7013 39.2948 24.6994 39.106C24.6753 37.0882 24.1427 35.1091 23.1509 33.3517C22.1054 31.5212 20.5973 29.9975 18.7775 28.9335C16.9577 27.8694 14.8903 27.3051 12.7823 27.2917ZM16.7194 19.8231C17.748 19.8231 18.6994 19.5145 19.4937 18.9831C19.3946 20.1718 18.982 21.3129 18.2979 22.29C17.6139 23.2672 16.6829 24.0453 15.5999 24.5452C14.5169 25.045 13.3206 25.2487 12.1333 25.1353C10.9459 25.0219 9.8098 24.5956 8.84097 23.8998C7.87213 23.2041 7.1052 22.2637 6.61841 21.1748C6.13162 20.0859 5.9424 18.8873 6.07005 17.7014C6.1977 16.5154 6.63765 15.3846 7.34503 14.4242C8.0524 13.4638 9.00188 12.7082 10.0966 12.2345C9.63831 12.993 9.38985 13.8597 9.37664 14.7457C9.36343 15.6318 9.58595 16.5055 10.0214 17.2772C10.4569 18.049 11.0896 18.6912 11.8549 19.1381C12.6202 19.5849 13.4904 19.8203 14.3766 19.8203L16.7194 19.8231Z" fill="#7600CD"/>
</svg>
