<svg width="25" height="25" viewBox="0 0 25 25" fill="none" xmlns="http://www.w3.org/2000/svg">
<path d="M12.2109 2.24609C10.2331 2.24609 8.29973 2.83258 6.65524 3.9314C5.01075 5.03021 3.72902 6.592 2.97215 8.41926C2.21527 10.2465 2.01724 12.2572 2.40309 14.197C2.78894 16.1368 3.74135 17.9186 5.13987 19.3172C6.5384 20.7157 8.32023 21.6681 10.26 22.0539C12.1998 22.4398 14.2105 22.2418 16.0378 21.4849C17.865 20.728 19.4268 19.4463 20.5256 17.8018C21.6245 16.1573 22.2109 14.2239 22.2109 12.2461C22.2109 10.9329 21.9523 9.63251 21.4497 8.41926C20.9472 7.206 20.2106 6.10361 19.282 5.17503C18.3534 4.24644 17.251 3.50985 16.0378 3.0073C14.8245 2.50475 13.5242 2.24609 12.2109 2.24609ZM12.2109 20.2461C10.6287 20.2461 9.08197 19.7769 7.76638 18.8979C6.45079 18.0188 5.42541 16.7694 4.81991 15.3076C4.21441 13.8458 4.05598 12.2372 4.36466 10.6854C4.67334 9.13352 5.43527 7.70806 6.55409 6.58924C7.67291 5.47042 9.09837 4.70849 10.6502 4.39981C12.2021 4.09113 13.8106 4.24956 15.2724 4.85506C16.7342 5.46056 17.9836 6.48594 18.8627 7.80153C19.7417 9.11713 20.2109 10.6638 20.2109 12.2461C20.2109 14.3678 19.3681 16.4027 17.8678 17.9029C16.3675 19.4032 14.3327 20.2461 12.2109 20.2461Z" fill="#7F7F7F"/>
<path d="M12.2109 6.24616C11.2827 6.24616 10.3924 6.61491 9.73606 7.27129C9.07969 7.92766 8.71094 8.8179 8.71094 9.74616C8.71094 10.0114 8.81629 10.2657 9.00383 10.4533C9.19137 10.6408 9.44572 10.7462 9.71094 10.7462C9.97615 10.7462 10.2305 10.6408 10.418 10.4533C10.6056 10.2657 10.7109 10.0114 10.7109 9.74616C10.7109 9.44949 10.7989 9.15948 10.9637 8.91281C11.1286 8.66613 11.3628 8.47387 11.6369 8.36034C11.911 8.24681 12.2126 8.21711 12.5036 8.27498C12.7945 8.33286 13.0618 8.47572 13.2716 8.6855C13.4814 8.89528 13.6242 9.16255 13.6821 9.45353C13.74 9.7445 13.7103 10.0461 13.5968 10.3202C13.4832 10.5943 13.291 10.8285 13.0443 10.9934C12.7976 11.1582 12.5076 11.2462 12.2109 11.2462C11.9457 11.2462 11.6914 11.3515 11.5038 11.5391C11.3163 11.7266 11.2109 11.9809 11.2109 12.2462V14.2462C11.2109 14.5114 11.3163 14.7657 11.5038 14.9533C11.6914 15.1408 11.9457 15.2462 12.2109 15.2462C12.4762 15.2462 12.7305 15.1408 12.918 14.9533C13.1056 14.7657 13.2109 14.5114 13.2109 14.2462V13.0862C14.019 12.8502 14.7146 12.33 15.1694 11.6216C15.6242 10.9132 15.8077 10.0642 15.6859 9.23123C15.5641 8.39822 15.1453 7.63732 14.5067 7.08875C13.8681 6.54018 13.0528 6.24094 12.2109 6.24616Z" fill="#7F7F7F"/>
<path d="M12.2109 18.2461C12.7632 18.2461 13.2109 17.7984 13.2109 17.2461C13.2109 16.6938 12.7632 16.2461 12.2109 16.2461C11.6587 16.2461 11.2109 16.6938 11.2109 17.2461C11.2109 17.7984 11.6587 18.2461 12.2109 18.2461Z" fill="#7F7F7F"/>
</svg>
