<svg width="65" height="65" viewBox="0 0 65 65" fill="none" xmlns="http://www.w3.org/2000/svg">
<circle cx="32.3457" cy="32.5039" r="31.5" fill="white" stroke="#F1E6FA"/>
<circle cx="32.3457" cy="32.5039" r="28" fill="#F1E6FA"/>
<rect x="40.3457" y="40.5039" width="24" height="24" rx="12" fill="#7600CD"/>
<path d="M51.846 49.8906V51.7973L51.1726 51.564C50.8326 51.444 50.626 51.3306 50.626 50.7506C50.626 50.2773 50.9793 49.8906 51.4126 49.8906H51.846Z" fill="white"/>
<path d="M54.0657 54.2576C54.0657 54.7309 53.7124 55.1176 53.279 55.1176H52.8457V53.2109L53.519 53.4443C53.859 53.5643 54.0657 53.6776 54.0657 54.2576Z" fill="white"/>
<path d="M55.1387 45.8359H49.552C47.1254 45.8359 45.6787 47.2826 45.6787 49.7093V55.2959C45.6787 57.7226 47.1254 59.1693 49.552 59.1693H55.1387C57.5654 59.1693 59.012 57.7226 59.012 55.2959V49.7093C59.012 47.2826 57.5654 45.8359 55.1387 45.8359ZM53.852 52.5026C54.372 52.6826 55.0654 53.0626 55.0654 54.2559C55.0654 55.2826 54.2654 56.1159 53.2787 56.1159H52.8454V56.5026C52.8454 56.7759 52.6187 57.0026 52.3454 57.0026C52.072 57.0026 51.8454 56.7759 51.8454 56.5026V56.1159H51.6054C50.512 56.1159 49.6254 55.1893 49.6254 54.0559C49.6254 53.7826 49.8454 53.5559 50.1254 53.5559C50.3987 53.5559 50.6254 53.7826 50.6254 54.0559C50.6254 54.6426 51.0654 55.1159 51.6054 55.1159H51.8454V52.8559L50.8387 52.5026C50.3187 52.3226 49.6254 51.9426 49.6254 50.7493C49.6254 49.7226 50.4254 48.8893 51.412 48.8893H51.8454V48.5026C51.8454 48.2293 52.072 48.0026 52.3454 48.0026C52.6187 48.0026 52.8454 48.2293 52.8454 48.5026V48.8893H53.0854C54.1787 48.8893 55.0654 49.8159 55.0654 50.9493C55.0654 51.2226 54.8454 51.4493 54.5654 51.4493C54.292 51.4493 54.0654 51.2226 54.0654 50.9493C54.0654 50.3626 53.6254 49.8893 53.0854 49.8893H52.8454V52.1493L53.852 52.5026Z" fill="white"/>
<path d="M32.346 44.5039L45.6794 35.1706H40.3594L40.346 20.5039H24.346V35.1706H19.0127L32.346 44.5039Z" fill="white" stroke="white" stroke-width="2" stroke-linecap="round" stroke-linejoin="round"/>
<g filter="url(#filter0_d_319_100621)">
<path d="M28.3457 35.1719L36.3457 27.1719" stroke="#7600CD" stroke-width="2" stroke-linecap="round" stroke-linejoin="round"/>
</g>
<g filter="url(#filter1_d_319_100621)">
<path d="M29.0124 28.5052C29.3806 28.5052 29.679 28.2067 29.679 27.8385C29.679 27.4704 29.3806 27.1719 29.0124 27.1719C28.6442 27.1719 28.3457 27.4704 28.3457 27.8385C28.3457 28.2067 28.6442 28.5052 29.0124 28.5052Z" fill="#7600CD"/>
<path d="M29.0124 28.5052C29.3806 28.5052 29.679 28.2067 29.679 27.8385C29.679 27.4704 29.3806 27.1719 29.0124 27.1719C28.6442 27.1719 28.3457 27.4704 28.3457 27.8385C28.3457 28.2067 28.6442 28.5052 29.0124 28.5052Z" stroke="#7600CD" stroke-width="2" stroke-linecap="round" stroke-linejoin="round"/>
</g>
<path d="M35.6794 35.1693C36.0476 35.1693 36.346 34.8708 36.346 34.5026C36.346 34.1344 36.0476 33.8359 35.6794 33.8359C35.3112 33.8359 35.0127 34.1344 35.0127 34.5026C35.0127 34.8708 35.3112 35.1693 35.6794 35.1693Z" fill="#7600CD" stroke="#7600CD" stroke-width="2" stroke-linecap="round" stroke-linejoin="round"/>
<defs>
<filter id="filter0_d_319_100621" x="25.3457" y="24.1719" width="18" height="18" filterUnits="userSpaceOnUse" color-interpolation-filters="sRGB">
<feFlood flood-opacity="0" result="BackgroundImageFix"/>
<feColorMatrix in="SourceAlpha" type="matrix" values="0 0 0 0 0 0 0 0 0 0 0 0 0 0 0 0 0 0 127 0" result="hardAlpha"/>
<feOffset dx="2" dy="2"/>
<feGaussianBlur stdDeviation="2"/>
<feComposite in2="hardAlpha" operator="out"/>
<feColorMatrix type="matrix" values="0 0 0 0 0.439216 0 0 0 0 0.396078 0 0 0 0 0.941176 0 0 0 0.1 0"/>
<feBlend mode="normal" in2="BackgroundImageFix" result="effect1_dropShadow_319_100621"/>
<feBlend mode="normal" in="SourceGraphic" in2="effect1_dropShadow_319_100621" result="shape"/>
</filter>
<filter id="filter1_d_319_100621" x="25.3457" y="24.1719" width="11.333" height="11.332" filterUnits="userSpaceOnUse" color-interpolation-filters="sRGB">
<feFlood flood-opacity="0" result="BackgroundImageFix"/>
<feColorMatrix in="SourceAlpha" type="matrix" values="0 0 0 0 0 0 0 0 0 0 0 0 0 0 0 0 0 0 127 0" result="hardAlpha"/>
<feOffset dx="2" dy="2"/>
<feGaussianBlur stdDeviation="2"/>
<feComposite in2="hardAlpha" operator="out"/>
<feColorMatrix type="matrix" values="0 0 0 0 0.439216 0 0 0 0 0.396078 0 0 0 0 0.941176 0 0 0 0.1 0"/>
<feBlend mode="normal" in2="BackgroundImageFix" result="effect1_dropShadow_319_100621"/>
<feBlend mode="normal" in="SourceGraphic" in2="effect1_dropShadow_319_100621" result="shape"/>
</filter>
</defs>
</svg>
