<svg width="178" height="28" viewBox="0 0 178 28" fill="none" xmlns="http://www.w3.org/2000/svg">
<g clip-path="url(#clip0_510_5389)">
<path d="M22.439 26.6242H5.50673C4.0453 26.624 2.6438 26.0433 1.61042 25.0099C0.577031 23.9765 -0.00363822 22.575 -0.00390625 21.1136L1.34873 6.88563C1.349 5.4242 1.92967 4.02271 2.96305 2.98932C3.99644 1.95594 5.39793 1.37527 6.85936 1.375L21.0873 1.375C22.5488 1.375 23.9505 1.95558 24.9839 2.98903C26.0174 4.02247 26.598 5.42412 26.598 6.88563L27.9506 21.1136C27.9506 21.8374 27.808 22.554 27.531 23.2227C27.254 23.8913 26.848 24.4988 26.3362 25.0106C25.8244 25.5223 25.2168 25.9282 24.5481 26.205C23.8794 26.4819 23.1627 26.6244 22.439 26.6242Z" fill="#7600CD"/>
<path d="M22.485 26.6255C23.2089 26.6258 23.9257 26.4834 24.5946 26.2066C25.2634 25.9298 25.8712 25.524 26.3832 25.0122C26.8952 24.5005 27.3014 23.8929 27.5786 23.2242C27.8558 22.5555 27.9985 21.8387 27.9986 21.1149L27.9127 20.2141C27.6488 20.0113 27.3596 19.8438 27.0524 19.7157L20.8857 17.1227V13.3882C20.8857 12.1397 20.088 10.9953 18.8183 10.4272L13.7808 8.16876C13.2293 7.92504 12.6327 7.80033 12.0298 7.80277C11.427 7.80521 10.8314 7.93474 10.2819 8.18291L3.16895 11.4493V26.0846C3.91365 26.4424 4.72958 26.6273 5.55577 26.6255H8.02954V13.1507L11.9247 11.5433V20.9996L20.4307 17.0519L20.6208 17.3349V26.6255H22.485Z" fill="white"/>
</g>
<path d="M43.74 13.8C44.5533 13.9733 45.2067 14.38 45.7 15.02C46.1933 15.6467 46.44 16.3667 46.44 17.18C46.44 18.3533 46.0267 19.2867 45.2 19.98C44.3867 20.66 43.2467 21 41.78 21H35.24V6.96H41.56C42.9867 6.96 44.1 7.28667 44.9 7.94C45.7133 8.59333 46.12 9.48 46.12 10.6C46.12 11.4267 45.9 12.1133 45.46 12.66C45.0333 13.2067 44.46 13.5867 43.74 13.8ZM38.66 12.64H40.9C41.46 12.64 41.8867 12.52 42.18 12.28C42.4867 12.0267 42.64 11.66 42.64 11.18C42.64 10.7 42.4867 10.3333 42.18 10.08C41.8867 9.82667 41.46 9.7 40.9 9.7H38.66V12.64ZM41.18 18.24C41.7533 18.24 42.1933 18.1133 42.5 17.86C42.82 17.5933 42.98 17.2133 42.98 16.72C42.98 16.2267 42.8133 15.84 42.48 15.56C42.16 15.28 41.7133 15.14 41.14 15.14H38.66V18.24H41.18ZM51.8436 11.7C52.2436 11.0867 52.7436 10.6067 53.3436 10.26C53.9436 9.9 54.6103 9.72 55.3436 9.72V13.34H54.4036C53.5503 13.34 52.9103 13.5267 52.4836 13.9C52.0569 14.26 51.8436 14.9 51.8436 15.82V21H48.4236V9.84H51.8436V11.7ZM67.4983 15.24C67.4983 15.56 67.4783 15.8933 67.4383 16.24H59.6983C59.7516 16.9333 59.9716 17.4667 60.3583 17.84C60.7583 18.2 61.2449 18.38 61.8183 18.38C62.6716 18.38 63.2649 18.02 63.5983 17.3H67.2383C67.0516 18.0333 66.7116 18.6933 66.2183 19.28C65.7383 19.8667 65.1316 20.3267 64.3983 20.66C63.6649 20.9933 62.8449 21.16 61.9383 21.16C60.8449 21.16 59.8716 20.9267 59.0183 20.46C58.1649 19.9933 57.4983 19.3267 57.0183 18.46C56.5383 17.5933 56.2983 16.58 56.2983 15.42C56.2983 14.26 56.5316 13.2467 56.9983 12.38C57.4783 11.5133 58.1449 10.8467 58.9983 10.38C59.8516 9.91333 60.8316 9.68 61.9383 9.68C63.0183 9.68 63.9783 9.90667 64.8183 10.36C65.6583 10.8133 66.3116 11.46 66.7783 12.3C67.2583 13.14 67.4983 14.12 67.4983 15.24ZM63.9983 14.34C63.9983 13.7533 63.7983 13.2867 63.3983 12.94C62.9983 12.5933 62.4983 12.42 61.8983 12.42C61.3249 12.42 60.8383 12.5867 60.4383 12.92C60.0516 13.2533 59.8116 13.7267 59.7183 14.34H63.9983ZM79.8225 15.24C79.8225 15.56 79.8025 15.8933 79.7625 16.24H72.0225C72.0758 16.9333 72.2958 17.4667 72.6825 17.84C73.0825 18.2 73.5692 18.38 74.1425 18.38C74.9958 18.38 75.5892 18.02 75.9225 17.3H79.5625C79.3758 18.0333 79.0358 18.6933 78.5425 19.28C78.0625 19.8667 77.4558 20.3267 76.7225 20.66C75.9892 20.9933 75.1692 21.16 74.2625 21.16C73.1692 21.16 72.1958 20.9267 71.3425 20.46C70.4892 19.9933 69.8225 19.3267 69.3425 18.46C68.8625 17.5933 68.6225 16.58 68.6225 15.42C68.6225 14.26 68.8558 13.2467 69.3225 12.38C69.8025 11.5133 70.4692 10.8467 71.3225 10.38C72.1758 9.91333 73.1558 9.68 74.2625 9.68C75.3425 9.68 76.3025 9.90667 77.1425 10.36C77.9825 10.8133 78.6358 11.46 79.1025 12.3C79.5825 13.14 79.8225 14.12 79.8225 15.24ZM76.3225 14.34C76.3225 13.7533 76.1225 13.2867 75.7225 12.94C75.3225 12.5933 74.8225 12.42 74.2225 12.42C73.6492 12.42 73.1625 12.5867 72.7625 12.92C72.3758 13.2533 72.1358 13.7267 72.0425 14.34H76.3225ZM80.9467 15.4C80.9467 14.2533 81.1601 13.2467 81.5867 12.38C82.0267 11.5133 82.6201 10.8467 83.3667 10.38C84.1134 9.91333 84.9467 9.68 85.8667 9.68C86.6001 9.68 87.2667 9.83333 87.8667 10.14C88.4801 10.4467 88.9601 10.86 89.3067 11.38V6.2H92.7267V21H89.3067V19.4C88.9867 19.9333 88.5267 20.36 87.9267 20.68C87.3401 21 86.6534 21.16 85.8667 21.16C84.9467 21.16 84.1134 20.9267 83.3667 20.46C82.6201 19.98 82.0267 19.3067 81.5867 18.44C81.1601 17.56 80.9467 16.5467 80.9467 15.4ZM89.3067 15.42C89.3067 14.5667 89.0667 13.8933 88.5867 13.4C88.1201 12.9067 87.5467 12.66 86.8667 12.66C86.1867 12.66 85.6067 12.9067 85.1267 13.4C84.6601 13.88 84.4267 14.5467 84.4267 15.4C84.4267 16.2533 84.6601 16.9333 85.1267 17.44C85.6067 17.9333 86.1867 18.18 86.8667 18.18C87.5467 18.18 88.1201 17.9333 88.5867 17.44C89.0667 16.9467 89.3067 16.2733 89.3067 15.42ZM99.4409 9.68C100.228 9.68 100.914 9.84 101.501 10.16C102.101 10.48 102.561 10.9 102.881 11.42V9.84H106.301V20.98C106.301 22.0067 106.094 22.9333 105.681 23.76C105.281 24.6 104.661 25.2667 103.821 25.76C102.994 26.2533 101.961 26.5 100.721 26.5C99.0676 26.5 97.7276 26.1067 96.7009 25.32C95.6743 24.5467 95.0876 23.4933 94.9409 22.16H98.3209C98.4276 22.5867 98.6809 22.92 99.0809 23.16C99.4809 23.4133 99.9743 23.54 100.561 23.54C101.268 23.54 101.828 23.3333 102.241 22.92C102.668 22.52 102.881 21.8733 102.881 20.98V19.4C102.548 19.92 102.088 20.3467 101.501 20.68C100.914 21 100.228 21.16 99.4409 21.16C98.5209 21.16 97.6876 20.9267 96.9409 20.46C96.1943 19.98 95.6009 19.3067 95.1609 18.44C94.7343 17.56 94.5209 16.5467 94.5209 15.4C94.5209 14.2533 94.7343 13.2467 95.1609 12.38C95.6009 11.5133 96.1943 10.8467 96.9409 10.38C97.6876 9.91333 98.5209 9.68 99.4409 9.68ZM102.881 15.42C102.881 14.5667 102.641 13.8933 102.161 13.4C101.694 12.9067 101.121 12.66 100.441 12.66C99.7609 12.66 99.1809 12.9067 98.7009 13.4C98.2343 13.88 98.0009 14.5467 98.0009 15.4C98.0009 16.2533 98.2343 16.9333 98.7009 17.44C99.1809 17.9333 99.7609 18.18 100.441 18.18C101.121 18.18 101.694 17.9333 102.161 17.44C102.641 16.9467 102.881 16.2733 102.881 15.42ZM119.295 15.24C119.295 15.56 119.275 15.8933 119.235 16.24H111.495C111.548 16.9333 111.768 17.4667 112.155 17.84C112.555 18.2 113.042 18.38 113.615 18.38C114.468 18.38 115.062 18.02 115.395 17.3H119.035C118.848 18.0333 118.508 18.6933 118.015 19.28C117.535 19.8667 116.928 20.3267 116.195 20.66C115.462 20.9933 114.642 21.16 113.735 21.16C112.642 21.16 111.668 20.9267 110.815 20.46C109.962 19.9933 109.295 19.3267 108.815 18.46C108.335 17.5933 108.095 16.58 108.095 15.42C108.095 14.26 108.328 13.2467 108.795 12.38C109.275 11.5133 109.942 10.8467 110.795 10.38C111.648 9.91333 112.628 9.68 113.735 9.68C114.815 9.68 115.775 9.90667 116.615 10.36C117.455 10.8133 118.108 11.46 118.575 12.3C119.055 13.14 119.295 14.12 119.295 15.24ZM115.795 14.34C115.795 13.7533 115.595 13.2867 115.195 12.94C114.795 12.5933 114.295 12.42 113.695 12.42C113.122 12.42 112.635 12.5867 112.235 12.92C111.848 13.2533 111.608 13.7267 111.515 14.34H115.795ZM125.639 21.16C124.666 21.16 123.799 20.9933 123.039 20.66C122.279 20.3267 121.679 19.8733 121.239 19.3C120.799 18.7133 120.553 18.06 120.499 17.34H123.879C123.919 17.7267 124.099 18.04 124.419 18.28C124.739 18.52 125.133 18.64 125.599 18.64C126.026 18.64 126.353 18.56 126.579 18.4C126.819 18.2267 126.939 18.0067 126.939 17.74C126.939 17.42 126.773 17.1867 126.439 17.04C126.106 16.88 125.566 16.7067 124.819 16.52C124.019 16.3333 123.353 16.14 122.819 15.94C122.286 15.7267 121.826 15.4 121.439 14.96C121.053 14.5067 120.859 13.9 120.859 13.14C120.859 12.5 121.033 11.92 121.379 11.4C121.739 10.8667 122.259 10.4467 122.939 10.14C123.633 9.83333 124.453 9.68 125.399 9.68C126.799 9.68 127.899 10.0267 128.699 10.72C129.513 11.4133 129.979 12.3333 130.099 13.48H126.939C126.886 13.0933 126.713 12.7867 126.419 12.56C126.139 12.3333 125.766 12.22 125.299 12.22C124.899 12.22 124.593 12.3 124.379 12.46C124.166 12.6067 124.059 12.8133 124.059 13.08C124.059 13.4 124.226 13.64 124.559 13.8C124.906 13.96 125.439 14.12 126.159 14.28C126.986 14.4933 127.659 14.7067 128.179 14.92C128.699 15.12 129.153 15.4533 129.539 15.92C129.939 16.3733 130.146 16.9867 130.159 17.76C130.159 18.4133 129.973 19 129.599 19.52C129.239 20.0267 128.713 20.4267 128.019 20.72C127.339 21.0133 126.546 21.16 125.639 21.16ZM138.472 18.1V21H136.732C135.492 21 134.525 20.7 133.832 20.1C133.138 19.4867 132.792 18.4933 132.792 17.12V12.68H131.432V9.84H132.792V7.12H136.212V9.84H138.452V12.68H136.212V17.16C136.212 17.4933 136.292 17.7333 136.452 17.88C136.612 18.0267 136.878 18.1 137.252 18.1H138.472ZM145.457 21.16C144.363 21.16 143.377 20.9267 142.497 20.46C141.63 19.9933 140.943 19.3267 140.437 18.46C139.943 17.5933 139.697 16.58 139.697 15.42C139.697 14.2733 139.95 13.2667 140.457 12.4C140.963 11.52 141.657 10.8467 142.537 10.38C143.417 9.91333 144.403 9.68 145.497 9.68C146.59 9.68 147.577 9.91333 148.457 10.38C149.337 10.8467 150.03 11.52 150.537 12.4C151.043 13.2667 151.297 14.2733 151.297 15.42C151.297 16.5667 151.037 17.58 150.517 18.46C150.01 19.3267 149.31 19.9933 148.417 20.46C147.537 20.9267 146.55 21.16 145.457 21.16ZM145.457 18.2C146.11 18.2 146.663 17.96 147.117 17.48C147.583 17 147.817 16.3133 147.817 15.42C147.817 14.5267 147.59 13.84 147.137 13.36C146.697 12.88 146.15 12.64 145.497 12.64C144.83 12.64 144.277 12.88 143.837 13.36C143.397 13.8267 143.177 14.5133 143.177 15.42C143.177 16.3133 143.39 17 143.817 17.48C144.257 17.96 144.803 18.2 145.457 18.2ZM159.911 9.72C161.218 9.72 162.258 10.1467 163.031 11C163.818 11.84 164.211 13 164.211 14.48V21H160.811V14.94C160.811 14.1933 160.618 13.6133 160.231 13.2C159.844 12.7867 159.324 12.58 158.671 12.58C158.018 12.58 157.498 12.7867 157.111 13.2C156.724 13.6133 156.531 14.1933 156.531 14.94V21H153.111V9.84H156.531V11.32C156.878 10.8267 157.344 10.44 157.931 10.16C158.518 9.86667 159.178 9.72 159.911 9.72ZM177.108 15.24C177.108 15.56 177.088 15.8933 177.048 16.24H169.308C169.361 16.9333 169.581 17.4667 169.968 17.84C170.368 18.2 170.854 18.38 171.428 18.38C172.281 18.38 172.874 18.02 173.208 17.3H176.848C176.661 18.0333 176.321 18.6933 175.828 19.28C175.348 19.8667 174.741 20.3267 174.008 20.66C173.274 20.9933 172.454 21.16 171.548 21.16C170.454 21.16 169.481 20.9267 168.628 20.46C167.774 19.9933 167.108 19.3267 166.628 18.46C166.148 17.5933 165.908 16.58 165.908 15.42C165.908 14.26 166.141 13.2467 166.608 12.38C167.088 11.5133 167.754 10.8467 168.608 10.38C169.461 9.91333 170.441 9.68 171.548 9.68C172.628 9.68 173.588 9.90667 174.428 10.36C175.268 10.8133 175.921 11.46 176.388 12.3C176.868 13.14 177.108 14.12 177.108 15.24ZM173.608 14.34C173.608 13.7533 173.408 13.2867 173.008 12.94C172.608 12.5933 172.108 12.42 171.508 12.42C170.934 12.42 170.448 12.5867 170.048 12.92C169.661 13.2533 169.421 13.7267 169.328 14.34H173.608Z" fill="#7600CD"/>
<defs>
<clipPath id="clip0_510_5389">
<rect width="28" height="25.2492" fill="white" transform="translate(0 1.375)"/>
</clipPath>
</defs>
</svg>
