<svg width="20" height="20" viewBox="0 0 20 20" fill="none" xmlns="http://www.w3.org/2000/svg">
<path d="M1.5 0.480469H7.5C7.78594 0.480469 8.06051 0.593711 8.2627 0.795898C8.46488 0.998086 8.57812 1.27266 8.57812 1.55859C8.57812 1.84453 8.46488 2.1191 8.2627 2.32129C8.06051 2.52348 7.78594 2.63672 7.5 2.63672H2.57812V16.9805H7.5C7.78594 16.9805 8.06051 17.0937 8.2627 17.2959C8.46488 17.4981 8.57812 17.7727 8.57812 18.0586C8.57812 18.3445 8.46488 18.6191 8.2627 18.8213C8.06051 19.0235 7.78594 19.1367 7.5 19.1367H1.5C1.21406 19.1367 0.939492 19.0235 0.737305 18.8213C0.535117 18.6191 0.421875 18.3445 0.421875 18.0586V1.55859C0.421875 1.27266 0.535117 0.998086 0.737305 0.795898C0.939492 0.593711 1.21406 0.480469 1.5 0.480469ZM14.249 4.97949C14.5355 4.97949 14.8101 5.09335 15.0127 5.2959L18.7627 9.0459C18.8631 9.14612 18.9427 9.2654 18.9971 9.39648C19.0513 9.52748 19.0792 9.66778 19.0791 9.80957C19.079 9.9513 19.0514 10.0918 18.9971 10.2227C18.9561 10.3211 18.9006 10.4132 18.833 10.4951L18.7617 10.5732L15.0117 14.3232C14.8092 14.5258 14.5345 14.6396 14.248 14.6396C13.9616 14.6396 13.6869 14.5258 13.4844 14.3232C13.2818 14.1207 13.168 13.846 13.168 13.5596C13.168 13.2731 13.2819 12.9984 13.4844 12.7959L15.3145 10.9668L15.3945 10.8867H7.5C7.21406 10.8867 6.93949 10.7735 6.7373 10.5713C6.53512 10.3691 6.42188 10.0945 6.42188 9.80859C6.42188 9.52266 6.53512 9.24809 6.7373 9.0459C6.93949 8.84371 7.21406 8.73047 7.5 8.73047H15.3945L15.3145 8.65039L13.4854 6.82324C13.2828 6.6207 13.169 6.34601 13.1689 6.05957C13.1689 5.77314 13.2828 5.49845 13.4854 5.2959C13.6879 5.09335 13.9626 4.9795 14.249 4.97949Z" fill="#DC3545" stroke="#DC3545" stroke-width="0.09375"/>
</svg>
