        <svg width="168" height="32" viewBox="0 0 168 32" fill="none" xmlns="http://www.w3.org/2000/svg">
                    <path
                        d="M46.1306 15.8C46.944 15.9733 47.5973 16.38 48.0906 17.02C48.584 17.6467 48.8306 18.3667 48.8306 19.18C48.8306 20.3533 48.4173 21.2867 47.5906 21.98C46.7773 22.66 45.6373 23 44.1706 23H37.6306V8.96H43.9506C45.3773 8.96 46.4906 9.28667 47.2906 9.94C48.104 10.5933 48.5106 11.48 48.5106 12.6C48.5106 13.4267 48.2906 14.1133 47.8506 14.66C47.424 15.2067 46.8506 15.5867 46.1306 15.8ZM41.0506 14.64H43.2906C43.8506 14.64 44.2773 14.52 44.5706 14.28C44.8773 14.0267 45.0306 13.66 45.0306 13.18C45.0306 12.7 44.8773 12.3333 44.5706 12.08C44.2773 11.8267 43.8506 11.7 43.2906 11.7H41.0506V14.64ZM43.5706 20.24C44.144 20.24 44.584 20.1133 44.8906 19.86C45.2106 19.5933 45.3706 19.2133 45.3706 18.72C45.3706 18.2267 45.204 17.84 44.8706 17.56C44.5506 17.28 44.104 17.14 43.5306 17.14H41.0506V20.24H43.5706ZM54.2342 13.7C54.6342 13.0867 55.1342 12.6067 55.7342 12.26C56.3342 11.9 57.0009 11.72 57.7342 11.72V15.34H56.7942C55.9409 15.34 55.3009 15.5267 54.8742 15.9C54.4476 16.26 54.2342 16.9 54.2342 17.82V23H50.8142V11.84H54.2342V13.7ZM69.8889 17.24C69.8889 17.56 69.8689 17.8933 69.8289 18.24H62.0889C62.1422 18.9333 62.3622 19.4667 62.7489 19.84C63.1489 20.2 63.6356 20.38 64.2089 20.38C65.0622 20.38 65.6556 20.02 65.9889 19.3H69.6289C69.4422 20.0333 69.1022 20.6933 68.6089 21.28C68.1289 21.8667 67.5222 22.3267 66.7889 22.66C66.0556 22.9933 65.2356 23.16 64.3289 23.16C63.2356 23.16 62.2622 22.9267 61.4089 22.46C60.5556 21.9933 59.8889 21.3267 59.4089 20.46C58.9289 19.5933 58.6889 18.58 58.6889 17.42C58.6889 16.26 58.9222 15.2467 59.3889 14.38C59.8689 13.5133 60.5356 12.8467 61.3889 12.38C62.2422 11.9133 63.2222 11.68 64.3289 11.68C65.4089 11.68 66.3689 11.9067 67.2089 12.36C68.0489 12.8133 68.7022 13.46 69.1689 14.3C69.6489 15.14 69.8889 16.12 69.8889 17.24ZM66.3889 16.34C66.3889 15.7533 66.1889 15.2867 65.7889 14.94C65.3889 14.5933 64.8889 14.42 64.2889 14.42C63.7156 14.42 63.2289 14.5867 62.8289 14.92C62.4422 15.2533 62.2022 15.7267 62.1089 16.34H66.3889ZM82.2131 17.24C82.2131 17.56 82.1931 17.8933 82.1531 18.24H74.4131C74.4665 18.9333 74.6865 19.4667 75.0731 19.84C75.4731 20.2 75.9598 20.38 76.5331 20.38C77.3865 20.38 77.9798 20.02 78.3131 19.3H81.9531C81.7665 20.0333 81.4265 20.6933 80.9331 21.28C80.4531 21.8667 79.8465 22.3267 79.1131 22.66C78.3798 22.9933 77.5598 23.16 76.6531 23.16C75.5598 23.16 74.5865 22.9267 73.7331 22.46C72.8798 21.9933 72.2131 21.3267 71.7331 20.46C71.2531 19.5933 71.0131 18.58 71.0131 17.42C71.0131 16.26 71.2465 15.2467 71.7131 14.38C72.1931 13.5133 72.8598 12.8467 73.7131 12.38C74.5665 11.9133 75.5465 11.68 76.6531 11.68C77.7331 11.68 78.6931 11.9067 79.5331 12.36C80.3731 12.8133 81.0265 13.46 81.4931 14.3C81.9731 15.14 82.2131 16.12 82.2131 17.24ZM78.7131 16.34C78.7131 15.7533 78.5131 15.2867 78.1131 14.94C77.7131 14.5933 77.2131 14.42 76.6131 14.42C76.0398 14.42 75.5531 14.5867 75.1531 14.92C74.7665 15.2533 74.5265 15.7267 74.4331 16.34H78.7131ZM83.3373 17.4C83.3373 16.2533 83.5507 15.2467 83.9773 14.38C84.4173 13.5133 85.0107 12.8467 85.7573 12.38C86.504 11.9133 87.3373 11.68 88.2573 11.68C88.9907 11.68 89.6573 11.8333 90.2573 12.14C90.8707 12.4467 91.3507 12.86 91.6973 13.38V8.2H95.1173V23H91.6973V21.4C91.3773 21.9333 90.9173 22.36 90.3173 22.68C89.7307 23 89.044 23.16 88.2573 23.16C87.3373 23.16 86.504 22.9267 85.7573 22.46C85.0107 21.98 84.4173 21.3067 83.9773 20.44C83.5507 19.56 83.3373 18.5467 83.3373 17.4ZM91.6973 17.42C91.6973 16.5667 91.4573 15.8933 90.9773 15.4C90.5107 14.9067 89.9373 14.66 89.2573 14.66C88.5773 14.66 87.9973 14.9067 87.5173 15.4C87.0507 15.88 86.8173 16.5467 86.8173 17.4C86.8173 18.2533 87.0507 18.9333 87.5173 19.44C87.9973 19.9333 88.5773 20.18 89.2573 20.18C89.9373 20.18 90.5107 19.9333 90.9773 19.44C91.4573 18.9467 91.6973 18.2733 91.6973 17.42ZM108.112 17.24C108.112 17.56 108.092 17.8933 108.052 18.24H100.312C100.365 18.9333 100.585 19.4667 100.972 19.84C101.372 20.2 101.858 20.38 102.432 20.38C103.285 20.38 103.878 20.02 104.212 19.3H107.852C107.665 20.0333 107.325 20.6933 106.832 21.28C106.352 21.8667 105.745 22.3267 105.012 22.66C104.278 22.9933 103.458 23.16 102.552 23.16C101.458 23.16 100.485 22.9267 99.6316 22.46C98.7782 21.9933 98.1116 21.3267 97.6316 20.46C97.1516 19.5933 96.9116 18.58 96.9116 17.42C96.9116 16.26 97.1449 15.2467 97.6116 14.38C98.0916 13.5133 98.7582 12.8467 99.6116 12.38C100.465 11.9133 101.445 11.68 102.552 11.68C103.632 11.68 104.592 11.9067 105.432 12.36C106.272 12.8133 106.925 13.46 107.392 14.3C107.872 15.14 108.112 16.12 108.112 17.24ZM104.612 16.34C104.612 15.7533 104.412 15.2867 104.012 14.94C103.612 14.5933 103.112 14.42 102.512 14.42C101.938 14.42 101.452 14.5867 101.052 14.92C100.665 15.2533 100.425 15.7267 100.332 16.34H104.612ZM114.456 23.16C113.482 23.16 112.616 22.9933 111.856 22.66C111.096 22.3267 110.496 21.8733 110.056 21.3C109.616 20.7133 109.369 20.06 109.316 19.34H112.696C112.736 19.7267 112.916 20.04 113.236 20.28C113.556 20.52 113.949 20.64 114.416 20.64C114.842 20.64 115.169 20.56 115.396 20.4C115.636 20.2267 115.756 20.0067 115.756 19.74C115.756 19.42 115.589 19.1867 115.256 19.04C114.922 18.88 114.382 18.7067 113.636 18.52C112.836 18.3333 112.169 18.14 111.636 17.94C111.102 17.7267 110.642 17.4 110.256 16.96C109.869 16.5067 109.676 15.9 109.676 15.14C109.676 14.5 109.849 13.92 110.196 13.4C110.556 12.8667 111.076 12.4467 111.756 12.14C112.449 11.8333 113.269 11.68 114.216 11.68C115.616 11.68 116.716 12.0267 117.516 12.72C118.329 13.4133 118.796 14.3333 118.916 15.48H115.756C115.702 15.0933 115.529 14.7867 115.236 14.56C114.956 14.3333 114.582 14.22 114.116 14.22C113.716 14.22 113.409 14.3 113.196 14.46C112.982 14.6067 112.876 14.8133 112.876 15.08C112.876 15.4 113.042 15.64 113.376 15.8C113.722 15.96 114.256 16.12 114.976 16.28C115.802 16.4933 116.476 16.7067 116.996 16.92C117.516 17.12 117.969 17.4533 118.356 17.92C118.756 18.3733 118.962 18.9867 118.976 19.76C118.976 20.4133 118.789 21 118.416 21.52C118.056 22.0267 117.529 22.4267 116.836 22.72C116.156 23.0133 115.362 23.16 114.456 23.16ZM127.288 20.1V23H125.548C124.308 23 123.341 22.7 122.648 22.1C121.955 21.4867 121.608 20.4933 121.608 19.12V14.68H120.248V11.84H121.608V9.12H125.028V11.84H127.268V14.68H125.028V19.16C125.028 19.4933 125.108 19.7333 125.268 19.88C125.428 20.0267 125.695 20.1 126.068 20.1H127.288ZM134.273 23.16C133.18 23.16 132.193 22.9267 131.313 22.46C130.446 21.9933 129.76 21.3267 129.253 20.46C128.76 19.5933 128.513 18.58 128.513 17.42C128.513 16.2733 128.766 15.2667 129.273 14.4C129.78 13.52 130.473 12.8467 131.353 12.38C132.233 11.9133 133.22 11.68 134.313 11.68C135.406 11.68 136.393 11.9133 137.273 12.38C138.153 12.8467 138.846 13.52 139.353 14.4C139.86 15.2667 140.113 16.2733 140.113 17.42C140.113 18.5667 139.853 19.58 139.333 20.46C138.826 21.3267 138.126 21.9933 137.233 22.46C136.353 22.9267 135.366 23.16 134.273 23.16ZM134.273 20.2C134.926 20.2 135.48 19.96 135.933 19.48C136.4 19 136.633 18.3133 136.633 17.42C136.633 16.5267 136.406 15.84 135.953 15.36C135.513 14.88 134.966 14.64 134.313 14.64C133.646 14.64 133.093 14.88 132.653 15.36C132.213 15.8267 131.993 16.5133 131.993 17.42C131.993 18.3133 132.206 19 132.633 19.48C133.073 19.96 133.62 20.2 134.273 20.2ZM148.728 11.72C150.034 11.72 151.074 12.1467 151.848 13C152.634 13.84 153.028 15 153.028 16.48V23H149.628V16.94C149.628 16.1933 149.434 15.6133 149.048 15.2C148.661 14.7867 148.141 14.58 147.488 14.58C146.834 14.58 146.314 14.7867 145.928 15.2C145.541 15.6133 145.348 16.1933 145.348 16.94V23H141.928V11.84H145.348V13.32C145.694 12.8267 146.161 12.44 146.748 12.16C147.334 11.8667 147.994 11.72 148.728 11.72ZM165.924 17.24C165.924 17.56 165.904 17.8933 165.864 18.24H158.124C158.177 18.9333 158.397 19.4667 158.784 19.84C159.184 20.2 159.671 20.38 160.244 20.38C161.097 20.38 161.691 20.02 162.024 19.3H165.664C165.477 20.0333 165.137 20.6933 164.644 21.28C164.164 21.8667 163.557 22.3267 162.824 22.66C162.091 22.9933 161.271 23.16 160.364 23.16C159.271 23.16 158.297 22.9267 157.444 22.46C156.591 21.9933 155.924 21.3267 155.444 20.46C154.964 19.5933 154.724 18.58 154.724 17.42C154.724 16.26 154.957 15.2467 155.424 14.38C155.904 13.5133 156.571 12.8467 157.424 12.38C158.277 11.9133 159.257 11.68 160.364 11.68C161.444 11.68 162.404 11.9067 163.244 12.36C164.084 12.8133 164.737 13.46 165.204 14.3C165.684 15.14 165.924 16.12 165.924 17.24ZM162.424 16.34C162.424 15.7533 162.224 15.2867 161.824 14.94C161.424 14.5933 160.924 14.42 160.324 14.42C159.751 14.42 159.264 14.5867 158.864 14.92C158.477 15.2533 158.237 15.7267 158.144 16.34H162.424Z"
                        fill="#100A55" />
                    <g clip-path="url(#clip0_220_19032)">
                        <path
                            d="M25.7242 11.6117L18.6135 6.08106C17.9895 5.5956 17.2214 5.33203 16.4308 5.33203C15.6402 5.33203 14.8722 5.5956 14.2482 6.08106L7.13616 11.6117C6.70875 11.9441 6.36295 12.3698 6.12517 12.8562C5.88738 13.3426 5.7639 13.877 5.76416 14.4184V24.0184C5.76416 24.7256 6.04511 25.4039 6.54521 25.904C7.04531 26.4041 7.72358 26.6851 8.43083 26.6851H24.4308C25.1381 26.6851 25.8164 26.4041 26.3164 25.904C26.8165 25.4039 27.0975 24.7256 27.0975 24.0184V14.4184C27.0975 13.3211 26.5908 12.2851 25.7242 11.6117Z"
                            fill="#7600CD" stroke="#7600CD" stroke-width="3" stroke-linecap="round"
                            stroke-linejoin="round" />
                        <path d="M21.7238 20C18.7771 21.7773 14.0011 21.7773 11.0571 20" stroke="#F9FAFB"
                            stroke-width="3" stroke-linecap="round" stroke-linejoin="round" />
                    </g>
                    <defs>
                        <clipPath id="clip0_220_19032">
                            <rect width="32" height="32" fill="white" transform="translate(0.390625)" />
                        </clipPath>
                    </defs>
                </svg>