<svg width="65" height="65" viewBox="0 0 65 65" fill="none" xmlns="http://www.w3.org/2000/svg">
<circle cx="32.623" cy="32.1191" r="32" fill="white"/>
<path d="M28.6234 45.4518H36.6234C43.29 45.4518 45.9567 42.7852 45.9567 36.1185V28.1185C45.9567 21.4518 43.29 18.7852 36.6234 18.7852H28.6234C21.9567 18.7852 19.29 21.4518 19.29 28.1185V36.1185C19.29 42.7852 21.9567 45.4518 28.6234 45.4518Z" stroke="#7600CD" stroke-width="3" stroke-linecap="round" stroke-linejoin="round"/>
<path d="M28.7559 32.1191V30.1458C28.7559 27.5991 30.5559 26.5725 32.7559 27.8391L34.4625 28.8258L36.1692 29.8125C38.3692 31.0791 38.3692 33.1591 36.1692 34.4258L34.4625 35.4125L32.7559 36.3991C30.5559 37.6658 28.7559 36.6258 28.7559 34.0925V32.1191Z" stroke="#7600CD" stroke-width="3" stroke-miterlimit="10" stroke-linecap="round" stroke-linejoin="round"/>
</svg>
