<svg width="449" height="141" viewBox="0 0 449 141" fill="none" xmlns="http://www.w3.org/2000/svg">
<mask id="path-1-outside-1_319_116215" maskUnits="userSpaceOnUse" x="-1.19769e-05" y="0.499999" width="449" height="141" fill="black">
<rect fill="white" x="-1.19769e-05" y="0.499999" width="449" height="141"/>
<path d="M417.194 87.4466L399.311 129.681L399.311 91.8046C399.311 89.4974 401.554 88.7925 404.182 88.472L404.182 88.1516L387.261 88.1516L387.261 88.472C389.889 88.7925 392.132 89.4974 392.132 91.8046L392.132 129.361C392.132 131.668 389.889 132.373 387.261 132.693L387.261 133.014L399.311 133.014L414.374 97.4445L432.193 133.014L442 133.014C439.244 130.963 438.026 129.04 436.808 126.605L436.808 98.2135C436.808 89.4974 439.052 88.7925 441.68 88.472L441.68 88.1516L430.655 88.1516L430.655 88.472C433.283 88.7925 435.526 90.7792 435.526 99.4953L435.526 124.041L417.194 87.4466Z"/>
<path d="M369.233 87.703C359.298 87.703 352.503 94.24 352.503 103.661C352.503 113.21 359.298 119.619 369.233 119.619C379.104 119.619 385.962 113.082 385.962 103.661C385.962 94.1759 379.104 87.703 369.233 87.703ZM379.424 108.019C379.424 114.556 376.668 118.53 371.732 118.53C363.848 118.53 359.041 108.083 359.041 99.303C359.041 92.766 361.797 88.7925 366.733 88.7925C374.617 88.7925 379.424 99.303 379.424 108.019Z"/>
<path d="M324.072 130.386L324.072 119.235C325.546 119.491 327.149 119.619 328.751 119.619C342.147 119.619 348.685 111.672 348.685 102.443C348.685 93.2146 342.276 87.703 333.238 87.703C330.225 87.703 327.661 88.3438 325.61 89.4334L325.674 89.3693L315.034 87.3825L315.034 87.5748C316.957 88.8566 317.534 89.9461 317.534 93.4069L317.534 134.936L317.213 137.5L329.392 131.796L329.392 131.412C325.418 132.629 324.072 132.95 324.072 130.386ZM341.891 105.968C341.891 113.467 338.302 118.402 331.828 118.402C328.431 118.402 325.995 116.992 324.072 114.877L324.072 94.24C324.072 93.2146 324.136 92.4455 324.2 91.8046C325.482 90.3947 327.02 89.5615 329.392 89.5615C336.507 89.5615 341.891 96.7395 341.891 105.968Z"/>
<path d="M294.997 87.703C288.33 87.703 283.139 90.7151 281.216 94.3041L281.536 94.5605C283.523 91.8047 288.587 90.6511 291.856 90.6511C299.548 90.6511 304.611 97.124 304.675 105.968L286.792 105.968C283.523 105.968 281.793 108.211 281.793 110.903C281.793 114.813 285.574 119.619 293.587 119.619C302.945 119.619 311.534 113.339 311.534 103.02C311.534 93.535 304.291 87.703 294.997 87.703ZM304.675 107.058C304.419 114.236 300.765 118.53 295.83 118.53C290.446 118.53 287.754 113.531 287.754 110.198C287.754 108.468 288.395 107.186 289.741 107.186L304.675 107.058Z"/>
<path d="M277.16 88.1516L267.802 88.1516C269.725 89.4334 270.302 90.6511 270.302 94.1119L270.302 107.186C269.661 111.672 267.738 115.71 264.597 115.71C262.418 115.71 261.007 113.531 262.674 109.365L262.418 109.365L256.649 118.786C257.867 119.363 258.892 119.555 260.046 119.555C264.405 119.555 267.994 116.863 269.468 112.762L270.302 112.762L270.302 114.813L269.981 119.555L280.749 118.594L280.749 118.337C279.403 118.209 277.737 117.761 276.839 117.184L276.839 92.5737L277.16 88.1516Z"/>
<path d="M252.779 88.1516L243.357 88.1516C245.28 89.4334 245.857 90.6511 245.857 94.1119L245.857 112.249C242.844 114.3 239.703 116.799 235.665 116.799C232.396 116.799 229.127 115.133 229.127 107.827L229.127 92.5737L229.512 88.1516L220.09 88.1516C222.013 89.4334 222.589 90.6511 222.589 94.1119L222.589 107.955C222.589 117.632 227.717 119.619 231.819 119.619C237.588 119.619 242.524 115.902 245.857 113.659L245.857 114.813L245.536 119.555L256.305 118.594L256.305 118.337C254.959 118.209 253.292 117.761 252.395 117.184L252.395 92.5737L252.779 88.1516Z"/>
<path d="M206.907 88.472L206.907 88.1516L189.985 88.1516L189.985 88.472C192.613 88.7925 194.857 89.4975 194.857 91.8047L194.857 129.361C194.857 131.668 192.613 132.373 189.985 132.693L189.985 133.014L206.907 133.014L206.907 132.693C204.279 132.373 202.036 131.668 202.036 129.361L202.036 91.8047C202.036 89.4975 204.279 88.7925 206.907 88.472Z"/>
<path d="M186.143 88.1516L176.721 88.1516C178.643 89.4334 179.22 90.6511 179.22 94.1119L179.22 112.249C176.208 114.3 173.067 116.799 169.029 116.799C165.76 116.799 162.491 115.133 162.491 107.827L162.491 92.5737L162.875 88.1516L153.453 88.1516C155.376 89.4334 155.953 90.6511 155.953 94.1119L155.953 107.955C155.953 117.632 161.081 119.619 165.183 119.619C170.952 119.619 175.887 115.902 179.22 113.659L179.22 114.813L178.9 119.555L189.668 118.594L189.668 118.337C188.322 118.209 186.656 117.761 185.758 117.184L185.758 92.5737L186.143 88.1516Z"/>
<path d="M142.96 87.1262L141.614 87.1262L133.538 89.3052L133.538 89.5616L141.614 89.3052L141.614 117.697L134.179 117.697L133.858 119.235L141.614 119.235L141.614 127.566L141.101 130.322L153.729 124.49L153.729 124.105C149.498 125.323 148.152 125.579 148.152 122.888L148.152 92.5737L148.344 88.7284L142.96 87.1262Z"/>
<path d="M116.059 87.703C109.393 87.703 104.201 90.7152 102.278 94.3041L102.599 94.5605C104.586 91.8047 109.649 90.6511 112.918 90.6511C120.61 90.6511 125.674 97.124 125.738 105.968L107.855 105.968C104.586 105.968 102.855 108.211 102.855 110.903C102.855 114.813 106.637 119.619 114.649 119.619C124.007 119.619 132.596 113.339 132.596 103.02C132.596 93.5351 125.353 87.703 116.059 87.703ZM125.738 107.058C125.482 114.236 121.828 118.53 116.892 118.53C111.508 118.53 108.816 113.531 108.816 110.198C108.816 108.468 109.457 107.186 110.803 107.186L125.738 107.058Z"/>
<path d="M98.2225 88.1516L88.8643 88.1516C90.7872 89.4334 91.3641 90.6511 91.3641 94.1119L91.3641 107.186C90.7231 111.672 88.8002 115.71 85.6594 115.71C83.4801 115.71 82.0699 113.531 83.7365 109.365L83.4801 109.365L77.7113 118.786C78.9291 119.363 79.9547 119.555 81.1085 119.555C85.4671 119.555 89.0565 116.863 90.5308 112.762L91.3641 112.762L91.3641 114.813L91.0436 119.555L101.812 118.594L101.812 118.337C100.466 118.209 98.7994 117.761 97.902 117.184L97.902 92.5737L98.2225 88.1516Z"/>
<path d="M73.8419 88.1516L64.4195 88.1516C66.3425 89.4334 66.9193 90.6511 66.9193 94.1119L66.9193 114.813L66.5988 119.555L77.3672 118.594L77.3672 118.337C76.0212 118.209 74.3547 117.761 73.4573 117.184L73.4573 92.5737L73.8419 88.1516ZM74.547 129.681C74.547 127.438 72.8163 125.708 70.5088 125.708C68.3295 125.708 66.5988 127.438 66.5988 129.681C66.5988 131.924 68.3295 133.655 70.5088 133.655C72.8163 133.655 74.547 131.924 74.547 129.681Z"/>
<path d="M45.0991 87.703C35.164 87.703 28.3696 94.2401 28.3696 103.661C28.3696 113.21 35.164 119.619 45.0991 119.619C54.9702 119.619 61.8286 113.082 61.8286 103.661C61.8286 94.176 54.9701 87.703 45.0991 87.703ZM55.2906 108.019C55.2906 114.556 52.5345 118.53 47.5989 118.53C39.7149 118.53 34.9076 108.083 34.9076 99.3031C34.9076 92.766 37.6638 88.7925 42.5993 88.7925C50.4833 88.7925 55.2906 99.3031 55.2906 108.019Z"/>
<path d="M23.5113 88.1516L14.153 88.1516C16.0759 89.4334 16.6528 90.6511 16.6528 94.1119L16.6528 107.186C16.0118 111.672 14.0889 115.71 10.9481 115.71C8.7688 115.71 7.35867 113.531 9.02521 109.365L8.7688 109.365L3 118.786C4.21786 119.363 5.24344 119.555 6.39718 119.555C10.7558 119.555 14.3453 116.863 15.8195 112.762L16.6528 112.762L16.6528 114.813L16.3323 119.555L27.1007 118.594L27.1007 118.337C25.7547 118.209 24.0881 117.761 23.1908 117.184L23.1908 92.5737L23.5113 88.1516Z"/>
<path d="M441.68 16.215L441.68 15.8945L422.835 15.8945C408.285 15.8945 396.939 24.2902 396.939 39.4792C396.939 52.9379 405.721 60.7567 421.553 60.7567L441.68 60.7567L441.68 60.4363C439.052 60.1158 436.808 59.4109 436.808 57.1037L436.808 20.8294C436.808 18.5222 439.051 17.1763 441.68 16.215ZM429.629 18.9067L429.629 59.7313L424.117 59.7313C410.336 59.7313 404.631 49.8616 404.631 36.0184C404.631 21.3421 411.041 16.984 420.784 16.984C424.373 16.984 427.193 17.7531 429.629 18.9067Z"/>
<path d="M376.561 15.4459C369.895 15.4459 364.703 18.4581 362.78 22.0471L363.1 22.3034C365.087 19.5476 370.151 18.394 373.42 18.394C381.112 18.394 386.175 24.867 386.24 33.7112L368.356 33.7112C365.087 33.7112 363.357 35.9543 363.357 38.6461C363.357 42.5555 367.138 47.3622 375.151 47.3622C384.509 47.3622 393.098 41.0814 393.098 30.7631C393.098 21.278 385.855 15.4459 376.561 15.4459ZM386.24 34.8007C385.983 41.9787 382.33 46.2726 377.394 46.2726C372.01 46.2727 369.318 41.2737 369.318 37.9411C369.318 36.2107 369.959 34.9289 371.305 34.9289L386.24 34.8007Z"/>
<path d="M347.65 15.4459C339.702 15.4459 334.767 19.6758 334.767 25.3797C334.767 29.3532 337.202 33.3908 346.24 34.8648C350.342 35.5698 354.509 36.9157 354.509 41.2737C354.509 43.5168 353.483 46.4008 349.253 46.4008C344.83 46.4008 339.318 43.1323 339.638 37.6847L339.51 37.6847L335.344 43.7091C337.843 45.7599 342.138 47.3622 346.945 47.3622C353.932 47.3622 359.316 44.0295 359.316 38.2615C359.316 34.8007 357.329 29.8659 347.522 28.3919C342.394 27.6228 339.382 25.8924 339.382 21.7907C339.382 18.7785 340.92 16.4713 345.215 16.4713C350.278 16.4713 356.303 19.804 356.239 25.3797L356.368 25.3797L360.085 19.2271C357.393 17.1122 352.65 15.4459 347.65 15.4459Z"/>
<path d="M329.649 15.8945L320.227 15.8945C322.149 17.1763 322.726 18.394 322.726 21.8548L322.726 42.5555L322.406 47.2981L333.174 46.3367L333.174 46.0804C331.828 45.9522 330.162 45.5036 329.264 44.9268L329.264 20.3167L329.649 15.8945ZM330.354 57.4241C330.354 55.181 328.623 53.4506 326.316 53.4506C324.137 53.4506 322.406 55.181 322.406 57.4241C322.406 59.6672 324.137 61.3976 326.316 61.3976C328.623 61.3976 330.354 59.6672 330.354 57.4241Z"/>
<path d="M304.752 2.49997C298.022 2.49997 286.484 9.42155 286.484 12.7542L286.484 44.9909C289.945 46.5931 293.599 47.3622 297.701 47.3622C311.098 47.3622 317.636 39.4151 317.636 30.1864C317.636 20.9576 311.226 15.4459 302.188 15.4459C298.342 15.4459 295.201 16.4713 293.022 18.1376L293.022 12.626C293.022 8.20387 295.971 4.67898 299.945 4.67898C301.868 4.67898 305.778 4.93533 308.406 10.3829L314.879 8.46022C312.316 3.78173 307.7 2.49997 304.752 2.49997ZM310.841 33.7112C310.841 41.2096 307.252 46.1445 300.778 46.1445C297.381 46.1445 294.945 44.7345 293.022 42.6196L293.022 19.7399C294.24 18.2017 295.842 17.3686 298.342 17.3686C305.457 17.3686 310.841 24.4824 310.841 33.7112Z"/>
<path d="M280.071 15.8945L270.649 15.8945C272.571 17.1763 273.148 18.394 273.148 21.8548L273.148 39.992C270.136 42.0428 266.995 44.5423 262.957 44.5423C259.688 44.5423 256.419 42.876 256.419 35.5698L256.419 20.3167L256.803 15.8945L247.381 15.8945C249.304 17.1763 249.881 18.394 249.881 21.8548L249.881 35.698C249.881 45.3754 255.009 47.3622 259.111 47.3622C264.88 47.3622 269.815 43.645 273.148 41.4019L273.148 42.5555L272.828 47.2981L283.596 46.3368L283.596 46.0804C282.25 45.9522 280.584 45.5036 279.686 44.9268L279.686 20.3167L280.071 15.8945Z"/>
<path d="M215.674 14.9973C204.393 14.9973 198.304 21.1498 198.304 28.5201C198.304 33.0704 200.611 38.9665 212.982 41.8505C219.713 43.3887 225.802 45.5036 225.802 52.6175C225.802 56.7832 223.815 60.6286 217.725 60.6286C210.547 60.6286 203.816 55.3733 204.842 46.7213L199.073 55.8219C202.47 59.0904 207.47 61.654 214.777 61.654C224.904 61.654 231.314 56.7832 231.314 49.2208C231.314 43.9655 228.237 37.8129 215.995 34.9289C208.367 33.1345 203.688 31.4041 203.688 25.1874C203.688 21.2139 205.547 16.1509 212.918 16.1509C220.482 16.1509 227.853 21.3421 226.891 30.0582L232.596 21.0216C229.135 17.689 223.238 14.9973 215.674 14.9973Z"/>
<path d="M186.559 14.8691L185.213 14.8691L177.137 17.0481L177.137 17.3045L185.213 17.0481L185.213 45.4395L177.778 45.4395L177.457 46.9776L185.213 46.9776L185.213 55.3092L184.7 58.065L197.327 52.2329L197.327 51.8484C193.097 53.0661 191.751 53.3224 191.751 50.6307L191.751 20.3167L191.943 16.4713L186.559 14.8691Z"/>
<path d="M163.422 15.4459C157.397 15.4459 152.397 19.099 149.128 21.5985L149.128 15.5741L139.001 16.5354L139.001 16.7918C140.027 16.92 141.693 17.3686 142.591 17.9454L142.591 42.5555L142.206 46.9776L152.59 46.9776L152.59 46.8495C149.705 45.5677 149.129 44.35 149.129 40.8892L149.128 23.0084C152.077 20.7012 155.282 18.2658 159.576 18.2658C162.525 18.2658 165.858 19.9962 165.858 27.2383L165.858 42.5555L165.473 46.9776L175.857 46.9776L175.857 46.8495C172.973 45.5677 172.396 44.35 172.396 40.8892L172.396 27.1101C172.396 17.4327 167.268 15.4459 163.422 15.4459Z"/>
<path d="M112.74 58.1291L112.74 46.9776C114.214 47.234 115.817 47.3622 117.419 47.3622C130.816 47.3622 137.354 39.4152 137.354 30.1864C137.354 20.9576 130.944 15.4459 121.906 15.4459C118.893 15.4459 116.33 16.0868 114.278 17.1763L114.343 17.1122L103.702 15.1255L103.702 15.3177C105.625 16.5995 106.202 17.689 106.202 21.1498L106.202 62.6794L105.882 65.243L118.06 59.5391L118.06 59.1545C114.086 60.3722 112.74 60.6927 112.74 58.1291ZM130.559 33.7113C130.559 41.2097 126.97 46.1445 120.496 46.1445C117.099 46.1445 114.663 44.7345 112.74 42.6196L112.74 21.983C112.74 20.9576 112.804 20.1885 112.868 19.5476C114.15 18.1377 115.689 17.3045 118.06 17.3045C125.175 17.3045 130.559 24.4825 130.559 33.7113Z"/>
<path d="M98.5996 15.8945L89.1772 15.8945C91.1002 17.1763 91.6771 18.394 91.6771 21.8548L91.6771 42.5555L91.3566 47.2981L102.125 46.3368L102.125 46.0804C100.779 45.9522 99.1124 45.5036 98.215 44.9268L98.215 20.3167L98.5996 15.8945ZM99.3047 57.4241C99.3047 55.181 97.574 53.4506 95.2665 53.4506C93.0872 53.4506 91.3566 55.181 91.3566 57.4241C91.3566 59.6673 93.0872 61.3976 95.2665 61.3976C97.574 61.3976 99.3047 59.6673 99.3047 57.4241Z"/>
<path d="M69.8568 15.4459C59.9217 15.4459 53.1273 21.983 53.1273 31.4041C53.1273 40.9533 59.9217 47.3622 69.8568 47.3622C79.7278 47.3622 86.5863 40.8251 86.5863 31.4041C86.5863 21.9189 79.7278 15.4459 69.8568 15.4459ZM80.0483 35.7621C80.0483 42.2992 77.2921 46.2727 72.3566 46.2727C64.4726 46.2727 59.6652 35.8262 59.6652 27.046C59.6652 20.509 62.4215 16.5354 67.357 16.5354C75.241 16.5354 80.0483 27.046 80.0483 35.7621Z"/>
</mask>
<path d="M417.194 87.4466L399.311 129.681L399.311 91.8046C399.311 89.4974 401.554 88.7925 404.182 88.472L404.182 88.1516L387.261 88.1516L387.261 88.472C389.889 88.7925 392.132 89.4974 392.132 91.8046L392.132 129.361C392.132 131.668 389.889 132.373 387.261 132.693L387.261 133.014L399.311 133.014L414.374 97.4445L432.193 133.014L442 133.014C439.244 130.963 438.026 129.04 436.808 126.605L436.808 98.2135C436.808 89.4974 439.052 88.7925 441.68 88.472L441.68 88.1516L430.655 88.1516L430.655 88.472C433.283 88.7925 435.526 90.7792 435.526 99.4953L435.526 124.041L417.194 87.4466Z" stroke="#7600CD" stroke-width="4" mask="url(#path-1-outside-1_319_116215)"/>
<path d="M369.233 87.703C359.298 87.703 352.503 94.24 352.503 103.661C352.503 113.21 359.298 119.619 369.233 119.619C379.104 119.619 385.962 113.082 385.962 103.661C385.962 94.1759 379.104 87.703 369.233 87.703ZM379.424 108.019C379.424 114.556 376.668 118.53 371.732 118.53C363.848 118.53 359.041 108.083 359.041 99.303C359.041 92.766 361.797 88.7925 366.733 88.7925C374.617 88.7925 379.424 99.303 379.424 108.019Z" stroke="#7600CD" stroke-width="4" mask="url(#path-1-outside-1_319_116215)"/>
<path d="M324.072 130.386L324.072 119.235C325.546 119.491 327.149 119.619 328.751 119.619C342.147 119.619 348.685 111.672 348.685 102.443C348.685 93.2146 342.276 87.703 333.238 87.703C330.225 87.703 327.661 88.3438 325.61 89.4334L325.674 89.3693L315.034 87.3825L315.034 87.5748C316.957 88.8566 317.534 89.9461 317.534 93.4069L317.534 134.936L317.213 137.5L329.392 131.796L329.392 131.412C325.418 132.629 324.072 132.95 324.072 130.386ZM341.891 105.968C341.891 113.467 338.302 118.402 331.828 118.402C328.431 118.402 325.995 116.992 324.072 114.877L324.072 94.24C324.072 93.2146 324.136 92.4455 324.2 91.8046C325.482 90.3947 327.02 89.5615 329.392 89.5615C336.507 89.5615 341.891 96.7395 341.891 105.968Z" stroke="#7600CD" stroke-width="4" mask="url(#path-1-outside-1_319_116215)"/>
<path d="M294.997 87.703C288.33 87.703 283.139 90.7151 281.216 94.3041L281.536 94.5605C283.523 91.8047 288.587 90.6511 291.856 90.6511C299.548 90.6511 304.611 97.124 304.675 105.968L286.792 105.968C283.523 105.968 281.793 108.211 281.793 110.903C281.793 114.813 285.574 119.619 293.587 119.619C302.945 119.619 311.534 113.339 311.534 103.02C311.534 93.535 304.291 87.703 294.997 87.703ZM304.675 107.058C304.419 114.236 300.765 118.53 295.83 118.53C290.446 118.53 287.754 113.531 287.754 110.198C287.754 108.468 288.395 107.186 289.741 107.186L304.675 107.058Z" stroke="#7600CD" stroke-width="4" mask="url(#path-1-outside-1_319_116215)"/>
<path d="M277.16 88.1516L267.802 88.1516C269.725 89.4334 270.302 90.6511 270.302 94.1119L270.302 107.186C269.661 111.672 267.738 115.71 264.597 115.71C262.418 115.71 261.007 113.531 262.674 109.365L262.418 109.365L256.649 118.786C257.867 119.363 258.892 119.555 260.046 119.555C264.405 119.555 267.994 116.863 269.468 112.762L270.302 112.762L270.302 114.813L269.981 119.555L280.749 118.594L280.749 118.337C279.403 118.209 277.737 117.761 276.839 117.184L276.839 92.5737L277.16 88.1516Z" stroke="#7600CD" stroke-width="4" mask="url(#path-1-outside-1_319_116215)"/>
<path d="M252.779 88.1516L243.357 88.1516C245.28 89.4334 245.857 90.6511 245.857 94.1119L245.857 112.249C242.844 114.3 239.703 116.799 235.665 116.799C232.396 116.799 229.127 115.133 229.127 107.827L229.127 92.5737L229.512 88.1516L220.09 88.1516C222.013 89.4334 222.589 90.6511 222.589 94.1119L222.589 107.955C222.589 117.632 227.717 119.619 231.819 119.619C237.588 119.619 242.524 115.902 245.857 113.659L245.857 114.813L245.536 119.555L256.305 118.594L256.305 118.337C254.959 118.209 253.292 117.761 252.395 117.184L252.395 92.5737L252.779 88.1516Z" stroke="#7600CD" stroke-width="4" mask="url(#path-1-outside-1_319_116215)"/>
<path d="M206.907 88.472L206.907 88.1516L189.985 88.1516L189.985 88.472C192.613 88.7925 194.857 89.4975 194.857 91.8047L194.857 129.361C194.857 131.668 192.613 132.373 189.985 132.693L189.985 133.014L206.907 133.014L206.907 132.693C204.279 132.373 202.036 131.668 202.036 129.361L202.036 91.8047C202.036 89.4975 204.279 88.7925 206.907 88.472Z" stroke="#7600CD" stroke-width="4" mask="url(#path-1-outside-1_319_116215)"/>
<path d="M186.143 88.1516L176.721 88.1516C178.643 89.4334 179.22 90.6511 179.22 94.1119L179.22 112.249C176.208 114.3 173.067 116.799 169.029 116.799C165.76 116.799 162.491 115.133 162.491 107.827L162.491 92.5737L162.875 88.1516L153.453 88.1516C155.376 89.4334 155.953 90.6511 155.953 94.1119L155.953 107.955C155.953 117.632 161.081 119.619 165.183 119.619C170.952 119.619 175.887 115.902 179.22 113.659L179.22 114.813L178.9 119.555L189.668 118.594L189.668 118.337C188.322 118.209 186.656 117.761 185.758 117.184L185.758 92.5737L186.143 88.1516Z" stroke="#7600CD" stroke-width="4" mask="url(#path-1-outside-1_319_116215)"/>
<path d="M142.96 87.1262L141.614 87.1262L133.538 89.3052L133.538 89.5616L141.614 89.3052L141.614 117.697L134.179 117.697L133.858 119.235L141.614 119.235L141.614 127.566L141.101 130.322L153.729 124.49L153.729 124.105C149.498 125.323 148.152 125.579 148.152 122.888L148.152 92.5737L148.344 88.7284L142.96 87.1262Z" stroke="#7600CD" stroke-width="4" mask="url(#path-1-outside-1_319_116215)"/>
<path d="M116.059 87.703C109.393 87.703 104.201 90.7152 102.278 94.3041L102.599 94.5605C104.586 91.8047 109.649 90.6511 112.918 90.6511C120.61 90.6511 125.674 97.124 125.738 105.968L107.855 105.968C104.586 105.968 102.855 108.211 102.855 110.903C102.855 114.813 106.637 119.619 114.649 119.619C124.007 119.619 132.596 113.339 132.596 103.02C132.596 93.5351 125.353 87.703 116.059 87.703ZM125.738 107.058C125.482 114.236 121.828 118.53 116.892 118.53C111.508 118.53 108.816 113.531 108.816 110.198C108.816 108.468 109.457 107.186 110.803 107.186L125.738 107.058Z" stroke="#7600CD" stroke-width="4" mask="url(#path-1-outside-1_319_116215)"/>
<path d="M98.2225 88.1516L88.8643 88.1516C90.7872 89.4334 91.3641 90.6511 91.3641 94.1119L91.3641 107.186C90.7231 111.672 88.8002 115.71 85.6594 115.71C83.4801 115.71 82.0699 113.531 83.7365 109.365L83.4801 109.365L77.7113 118.786C78.9291 119.363 79.9547 119.555 81.1085 119.555C85.4671 119.555 89.0565 116.863 90.5308 112.762L91.3641 112.762L91.3641 114.813L91.0436 119.555L101.812 118.594L101.812 118.337C100.466 118.209 98.7994 117.761 97.902 117.184L97.902 92.5737L98.2225 88.1516Z" stroke="#7600CD" stroke-width="4" mask="url(#path-1-outside-1_319_116215)"/>
<path d="M73.8419 88.1516L64.4195 88.1516C66.3425 89.4334 66.9193 90.6511 66.9193 94.1119L66.9193 114.813L66.5988 119.555L77.3672 118.594L77.3672 118.337C76.0212 118.209 74.3547 117.761 73.4573 117.184L73.4573 92.5737L73.8419 88.1516ZM74.547 129.681C74.547 127.438 72.8163 125.708 70.5088 125.708C68.3295 125.708 66.5988 127.438 66.5988 129.681C66.5988 131.924 68.3295 133.655 70.5088 133.655C72.8163 133.655 74.547 131.924 74.547 129.681Z" stroke="#7600CD" stroke-width="4" mask="url(#path-1-outside-1_319_116215)"/>
<path d="M45.0991 87.703C35.164 87.703 28.3696 94.2401 28.3696 103.661C28.3696 113.21 35.164 119.619 45.0991 119.619C54.9702 119.619 61.8286 113.082 61.8286 103.661C61.8286 94.176 54.9701 87.703 45.0991 87.703ZM55.2906 108.019C55.2906 114.556 52.5345 118.53 47.5989 118.53C39.7149 118.53 34.9076 108.083 34.9076 99.3031C34.9076 92.766 37.6638 88.7925 42.5993 88.7925C50.4833 88.7925 55.2906 99.3031 55.2906 108.019Z" stroke="#7600CD" stroke-width="4" mask="url(#path-1-outside-1_319_116215)"/>
<path d="M23.5113 88.1516L14.153 88.1516C16.0759 89.4334 16.6528 90.6511 16.6528 94.1119L16.6528 107.186C16.0118 111.672 14.0889 115.71 10.9481 115.71C8.7688 115.71 7.35867 113.531 9.02521 109.365L8.7688 109.365L3 118.786C4.21786 119.363 5.24344 119.555 6.39718 119.555C10.7558 119.555 14.3453 116.863 15.8195 112.762L16.6528 112.762L16.6528 114.813L16.3323 119.555L27.1007 118.594L27.1007 118.337C25.7547 118.209 24.0881 117.761 23.1908 117.184L23.1908 92.5737L23.5113 88.1516Z" stroke="#7600CD" stroke-width="4" mask="url(#path-1-outside-1_319_116215)"/>
<path d="M441.68 16.215L441.68 15.8945L422.835 15.8945C408.285 15.8945 396.939 24.2902 396.939 39.4792C396.939 52.9379 405.721 60.7567 421.553 60.7567L441.68 60.7567L441.68 60.4363C439.052 60.1158 436.808 59.4109 436.808 57.1037L436.808 20.8294C436.808 18.5222 439.051 17.1763 441.68 16.215ZM429.629 18.9067L429.629 59.7313L424.117 59.7313C410.336 59.7313 404.631 49.8616 404.631 36.0184C404.631 21.3421 411.041 16.984 420.784 16.984C424.373 16.984 427.193 17.7531 429.629 18.9067Z" stroke="#7600CD" stroke-width="4" mask="url(#path-1-outside-1_319_116215)"/>
<path d="M376.561 15.4459C369.895 15.4459 364.703 18.4581 362.78 22.0471L363.1 22.3034C365.087 19.5476 370.151 18.394 373.42 18.394C381.112 18.394 386.175 24.867 386.24 33.7112L368.356 33.7112C365.087 33.7112 363.357 35.9543 363.357 38.6461C363.357 42.5555 367.138 47.3622 375.151 47.3622C384.509 47.3622 393.098 41.0814 393.098 30.7631C393.098 21.278 385.855 15.4459 376.561 15.4459ZM386.24 34.8007C385.983 41.9787 382.33 46.2726 377.394 46.2726C372.01 46.2727 369.318 41.2737 369.318 37.9411C369.318 36.2107 369.959 34.9289 371.305 34.9289L386.24 34.8007Z" stroke="#7600CD" stroke-width="4" mask="url(#path-1-outside-1_319_116215)"/>
<path d="M347.65 15.4459C339.702 15.4459 334.767 19.6758 334.767 25.3797C334.767 29.3532 337.202 33.3908 346.24 34.8648C350.342 35.5698 354.509 36.9157 354.509 41.2737C354.509 43.5168 353.483 46.4008 349.253 46.4008C344.83 46.4008 339.318 43.1323 339.638 37.6847L339.51 37.6847L335.344 43.7091C337.843 45.7599 342.138 47.3622 346.945 47.3622C353.932 47.3622 359.316 44.0295 359.316 38.2615C359.316 34.8007 357.329 29.8659 347.522 28.3919C342.394 27.6228 339.382 25.8924 339.382 21.7907C339.382 18.7785 340.92 16.4713 345.215 16.4713C350.278 16.4713 356.303 19.804 356.239 25.3797L356.368 25.3797L360.085 19.2271C357.393 17.1122 352.65 15.4459 347.65 15.4459Z" stroke="#7600CD" stroke-width="4" mask="url(#path-1-outside-1_319_116215)"/>
<path d="M329.649 15.8945L320.227 15.8945C322.149 17.1763 322.726 18.394 322.726 21.8548L322.726 42.5555L322.406 47.2981L333.174 46.3367L333.174 46.0804C331.828 45.9522 330.162 45.5036 329.264 44.9268L329.264 20.3167L329.649 15.8945ZM330.354 57.4241C330.354 55.181 328.623 53.4506 326.316 53.4506C324.137 53.4506 322.406 55.181 322.406 57.4241C322.406 59.6672 324.137 61.3976 326.316 61.3976C328.623 61.3976 330.354 59.6672 330.354 57.4241Z" stroke="#7600CD" stroke-width="4" mask="url(#path-1-outside-1_319_116215)"/>
<path d="M304.752 2.49997C298.022 2.49997 286.484 9.42155 286.484 12.7542L286.484 44.9909C289.945 46.5931 293.599 47.3622 297.701 47.3622C311.098 47.3622 317.636 39.4151 317.636 30.1864C317.636 20.9576 311.226 15.4459 302.188 15.4459C298.342 15.4459 295.201 16.4713 293.022 18.1376L293.022 12.626C293.022 8.20387 295.971 4.67898 299.945 4.67898C301.868 4.67898 305.778 4.93533 308.406 10.3829L314.879 8.46022C312.316 3.78173 307.7 2.49997 304.752 2.49997ZM310.841 33.7112C310.841 41.2096 307.252 46.1445 300.778 46.1445C297.381 46.1445 294.945 44.7345 293.022 42.6196L293.022 19.7399C294.24 18.2017 295.842 17.3686 298.342 17.3686C305.457 17.3686 310.841 24.4824 310.841 33.7112Z" stroke="#7600CD" stroke-width="4" mask="url(#path-1-outside-1_319_116215)"/>
<path d="M280.071 15.8945L270.649 15.8945C272.571 17.1763 273.148 18.394 273.148 21.8548L273.148 39.992C270.136 42.0428 266.995 44.5423 262.957 44.5423C259.688 44.5423 256.419 42.876 256.419 35.5698L256.419 20.3167L256.803 15.8945L247.381 15.8945C249.304 17.1763 249.881 18.394 249.881 21.8548L249.881 35.698C249.881 45.3754 255.009 47.3622 259.111 47.3622C264.88 47.3622 269.815 43.645 273.148 41.4019L273.148 42.5555L272.828 47.2981L283.596 46.3368L283.596 46.0804C282.25 45.9522 280.584 45.5036 279.686 44.9268L279.686 20.3167L280.071 15.8945Z" stroke="#7600CD" stroke-width="4" mask="url(#path-1-outside-1_319_116215)"/>
<path d="M215.674 14.9973C204.393 14.9973 198.304 21.1498 198.304 28.5201C198.304 33.0704 200.611 38.9665 212.982 41.8505C219.713 43.3887 225.802 45.5036 225.802 52.6175C225.802 56.7832 223.815 60.6286 217.725 60.6286C210.547 60.6286 203.816 55.3733 204.842 46.7213L199.073 55.8219C202.47 59.0904 207.47 61.654 214.777 61.654C224.904 61.654 231.314 56.7832 231.314 49.2208C231.314 43.9655 228.237 37.8129 215.995 34.9289C208.367 33.1345 203.688 31.4041 203.688 25.1874C203.688 21.2139 205.547 16.1509 212.918 16.1509C220.482 16.1509 227.853 21.3421 226.891 30.0582L232.596 21.0216C229.135 17.689 223.238 14.9973 215.674 14.9973Z" stroke="#7600CD" stroke-width="4" mask="url(#path-1-outside-1_319_116215)"/>
<path d="M186.559 14.8691L185.213 14.8691L177.137 17.0481L177.137 17.3045L185.213 17.0481L185.213 45.4395L177.778 45.4395L177.457 46.9776L185.213 46.9776L185.213 55.3092L184.7 58.065L197.327 52.2329L197.327 51.8484C193.097 53.0661 191.751 53.3224 191.751 50.6307L191.751 20.3167L191.943 16.4713L186.559 14.8691Z" stroke="#7600CD" stroke-width="4" mask="url(#path-1-outside-1_319_116215)"/>
<path d="M163.422 15.4459C157.397 15.4459 152.397 19.099 149.128 21.5985L149.128 15.5741L139.001 16.5354L139.001 16.7918C140.027 16.92 141.693 17.3686 142.591 17.9454L142.591 42.5555L142.206 46.9776L152.59 46.9776L152.59 46.8495C149.705 45.5677 149.129 44.35 149.129 40.8892L149.128 23.0084C152.077 20.7012 155.282 18.2658 159.576 18.2658C162.525 18.2658 165.858 19.9962 165.858 27.2383L165.858 42.5555L165.473 46.9776L175.857 46.9776L175.857 46.8495C172.973 45.5677 172.396 44.35 172.396 40.8892L172.396 27.1101C172.396 17.4327 167.268 15.4459 163.422 15.4459Z" stroke="#7600CD" stroke-width="4" mask="url(#path-1-outside-1_319_116215)"/>
<path d="M112.74 58.1291L112.74 46.9776C114.214 47.234 115.817 47.3622 117.419 47.3622C130.816 47.3622 137.354 39.4152 137.354 30.1864C137.354 20.9576 130.944 15.4459 121.906 15.4459C118.893 15.4459 116.33 16.0868 114.278 17.1763L114.343 17.1122L103.702 15.1255L103.702 15.3177C105.625 16.5995 106.202 17.689 106.202 21.1498L106.202 62.6794L105.882 65.243L118.06 59.5391L118.06 59.1545C114.086 60.3722 112.74 60.6927 112.74 58.1291ZM130.559 33.7113C130.559 41.2097 126.97 46.1445 120.496 46.1445C117.099 46.1445 114.663 44.7345 112.74 42.6196L112.74 21.983C112.74 20.9576 112.804 20.1885 112.868 19.5476C114.15 18.1377 115.689 17.3045 118.06 17.3045C125.175 17.3045 130.559 24.4825 130.559 33.7113Z" stroke="#7600CD" stroke-width="4" mask="url(#path-1-outside-1_319_116215)"/>
<path d="M98.5996 15.8945L89.1772 15.8945C91.1002 17.1763 91.6771 18.394 91.6771 21.8548L91.6771 42.5555L91.3566 47.2981L102.125 46.3368L102.125 46.0804C100.779 45.9522 99.1124 45.5036 98.215 44.9268L98.215 20.3167L98.5996 15.8945ZM99.3047 57.4241C99.3047 55.181 97.574 53.4506 95.2665 53.4506C93.0872 53.4506 91.3566 55.181 91.3566 57.4241C91.3566 59.6673 93.0872 61.3976 95.2665 61.3976C97.574 61.3976 99.3047 59.6673 99.3047 57.4241Z" stroke="#7600CD" stroke-width="4" mask="url(#path-1-outside-1_319_116215)"/>
<path d="M69.8568 15.4459C59.9217 15.4459 53.1273 21.983 53.1273 31.4041C53.1273 40.9533 59.9217 47.3622 69.8568 47.3622C79.7278 47.3622 86.5863 40.8251 86.5863 31.4041C86.5863 21.9189 79.7278 15.4459 69.8568 15.4459ZM80.0483 35.7621C80.0483 42.2992 77.2921 46.2727 72.3566 46.2727C64.4726 46.2727 59.6652 35.8262 59.6652 27.046C59.6652 20.509 62.4215 16.5354 67.357 16.5354C75.241 16.5354 80.0483 27.046 80.0483 35.7621Z" stroke="#7600CD" stroke-width="4" mask="url(#path-1-outside-1_319_116215)"/>
</svg>
