<svg width="65" height="64" viewBox="0 0 65 64" fill="none" xmlns="http://www.w3.org/2000/svg">
<circle cx="32.5" cy="32" r="32" fill="#F1AEB5"/>
<path d="M47.0624 44.4397L41.9624 39.3397C43.6062 37.2463 44.5004 34.662 44.5019 32.0002H41.5019C41.4999 33.8666 40.9129 35.6854 39.8234 37.2008L37.6499 35.0257C38.2046 34.1139 38.4992 33.0676 38.5019 32.0002V23.0002C38.5019 19.6747 35.8244 16.9688 32.5334 16.9688C32.4284 16.9688 32.3239 16.9812 32.2199 17.0062C30.6798 17.0809 29.2273 17.7448 28.163 18.8605C27.0986 19.9762 26.5039 21.4583 26.5019 23.0002V23.8792L20.0624 17.4398L17.9414 19.5608L44.9414 46.5608L47.0624 44.4397ZM23.5019 32.0002H20.5019C20.5019 38.1082 25.0919 43.1542 31.0019 43.8967V47.0002H34.0019V43.8967C35.1625 43.7473 36.295 43.429 37.3634 42.9518L35.0399 40.6297C34.2159 40.8738 33.3613 40.9986 32.5019 41.0002C27.5384 41.0002 23.5019 36.9637 23.5019 32.0002Z" fill="#FF5733"/>
<path d="M26.5117 32.0996C26.5387 33.653 27.1678 35.1353 28.2664 36.2339C29.365 37.3325 30.8473 37.9616 32.4007 37.9886L26.5117 32.0996Z" fill="#FF5733"/>
</svg>
