<svg width="150" height="45" viewBox="0 0 150 45" fill="none" xmlns="http://www.w3.org/2000/svg">
<path d="M64.4978 12.03H68.6978V33H64.4978L54.9878 18.63V33H50.7878V12.03H54.9878L64.4978 26.43V12.03ZM88.8983 24.69C88.8983 29.91 85.0583 33.27 80.2283 33.27C75.4283 33.27 71.7983 29.91 71.7983 24.69C71.7983 19.44 75.5483 16.11 80.3483 16.11C85.1483 16.11 88.8983 19.44 88.8983 24.69ZM76.0583 24.69C76.0583 27.99 77.9783 29.61 80.2283 29.61C82.4483 29.61 84.5783 27.99 84.5783 24.69C84.5783 21.36 82.5083 19.77 80.2883 19.77C78.0683 19.77 76.0583 21.36 76.0583 24.69ZM92.6392 27.84V19.83H90.6592V16.38H92.6392V12.27H96.8692V16.38H100.589V19.83H96.8692V27.87C96.8692 28.98 97.3192 29.46 98.6392 29.46H100.589V33H97.9492C94.7692 33 92.6392 31.65 92.6392 27.84ZM103.61 33V16.38H107.81V33H103.61ZM105.74 14.4C104.24 14.4 103.16 13.32 103.16 11.94C103.16 10.56 104.24 9.48 105.74 9.48C107.21 9.48 108.32 10.56 108.32 11.94C108.32 13.32 107.21 14.4 105.74 14.4ZM128.01 24.69C128.01 29.91 124.17 33.27 119.34 33.27C114.54 33.27 110.91 29.91 110.91 24.69C110.91 19.44 114.66 16.11 119.46 16.11C124.26 16.11 128.01 19.44 128.01 24.69ZM115.17 24.69C115.17 27.99 117.09 29.61 119.34 29.61C121.56 29.61 123.69 27.99 123.69 24.69C123.69 21.36 121.62 19.77 119.4 19.77C117.18 19.77 115.17 21.36 115.17 24.69ZM142.731 33V23.82C142.731 21.15 141.261 19.71 139.041 19.71C136.761 19.71 135.291 21.15 135.291 23.82V33H131.091V16.38H135.291V18.45C136.371 17.04 138.171 16.14 140.301 16.14C144.171 16.14 146.931 18.66 146.931 23.25V33H142.731Z" fill="#A6A6A6"/>
<path d="M26.2378 18.02H29.0378V32H26.2378L19.8978 22.42V32H17.0978V18.02H19.8978L26.2378 27.62V18.02Z" fill="#A6A6A6"/>
<rect x="9.71777" y="9" width="28" height="26" stroke="#A6A6A6" stroke-width="2"/>
<path d="M36.0566 7L30.3418 2H3.37891L9.09375 7H36.0566Z" stroke="#A6A6A6" stroke-width="2"/>
<path d="M8.71777 8L0.717773 1V29L8.71777 36V8Z" fill="#A6A6A6"/>
</svg>
