<svg width="41" height="37" viewBox="0 0 41 37" fill="none" xmlns="http://www.w3.org/2000/svg">
<path d="M33.6744 24.0682C34.3744 22.3682 34.7544 20.5482 34.7544 18.5482C34.7544 17.1082 34.5344 15.7282 34.1544 14.4482C32.8544 14.7482 31.4944 14.9082 30.0744 14.9082C27.1663 14.9114 24.3001 14.2153 21.7174 12.8787C19.1347 11.5421 16.9112 9.60414 15.2344 7.22823C13.4423 11.5697 10.0578 15.0615 5.77437 16.9882C5.69438 17.4882 5.69438 18.0282 5.69438 18.5482C5.69438 20.4577 6.07046 22.3484 6.80117 24.1124C7.53187 25.8765 8.60288 27.4794 9.95304 28.8296C12.6798 31.5563 16.3781 33.0882 20.2344 33.0882C22.3344 33.0882 24.3544 32.6282 26.1744 31.8082C27.3144 33.9882 27.8344 35.0682 27.7944 35.0682C24.5144 36.1682 21.9744 36.7082 20.2344 36.7082C15.3944 36.7082 10.7744 34.8082 7.37438 31.3882C5.30447 29.3281 3.76692 26.7952 2.89437 24.0082H0.234375V14.9082H2.41437C3.07486 11.6933 4.59336 8.71705 6.80875 6.29542C9.02415 3.87378 11.8538 2.09705 14.9974 1.15375C18.1411 0.210452 21.4814 0.135777 24.6641 0.937646C27.8468 1.73952 30.753 3.38802 33.0744 5.70823C35.5939 8.21939 37.313 11.4208 38.0144 14.9082H40.2344V24.0082H40.1144L32.9944 30.5482L22.3944 29.3482V26.0082H32.0544L33.6744 24.0682ZM14.7744 18.0882C15.3744 18.0882 15.9544 18.3282 16.3744 18.7682C16.7965 19.1938 17.0333 19.7689 17.0333 20.3682C17.0333 20.9676 16.7965 21.5427 16.3744 21.9682C15.9544 22.3882 15.3744 22.6282 14.7744 22.6282C13.5144 22.6282 12.4944 21.6282 12.4944 20.3682C12.4944 19.1082 13.5144 18.0882 14.7744 18.0882ZM25.6744 18.0882C26.9344 18.0882 27.9344 19.1082 27.9344 20.3682C27.9344 21.6282 26.9344 22.6282 25.6744 22.6282C24.4144 22.6282 23.3944 21.6282 23.3944 20.3682C23.3944 19.7635 23.6346 19.1836 24.0622 18.756C24.4898 18.3284 25.0697 18.0882 25.6744 18.0882Z" fill="#7600CD"/>
</svg>
