<svg width="64" height="65" viewBox="0 0 64 65" fill="none" xmlns="http://www.w3.org/2000/svg">
<circle cx="31.9961" cy="32.0781" r="32" fill="#C0C0C0"/>
<path d="M42.4961 27.5781C42.8939 27.5781 43.2754 27.7362 43.5568 28.0175C43.8381 28.2988 43.9961 28.6803 43.9961 29.0781C43.9964 32.0009 42.93 34.8233 40.997 37.0156C39.064 39.2079 36.3974 40.6194 33.4976 40.9851L33.4961 44.0781H37.9961C38.3939 44.0781 38.7754 44.2362 39.0568 44.5175C39.3381 44.7988 39.4961 45.1803 39.4961 45.5781C39.4961 45.976 39.3381 46.3575 39.0568 46.6388C38.7754 46.9201 38.3939 47.0781 37.9961 47.0781H25.9961C25.5983 47.0781 25.2167 46.9201 24.9354 46.6388C24.6541 46.3575 24.4961 45.976 24.4961 45.5781C24.4961 45.1803 24.6541 44.7988 24.9354 44.5175C25.2167 44.2362 25.5983 44.0781 25.9961 44.0781H30.4961V40.9851C27.596 40.6197 24.929 39.2084 22.9957 37.0161C21.0624 34.8237 19.9958 32.0011 19.9961 29.0781C19.9961 28.6803 20.1541 28.2988 20.4354 28.0175C20.7167 27.7362 21.0983 27.5781 21.4961 27.5781C21.8939 27.5781 22.2754 27.7362 22.5568 28.0175C22.8381 28.2988 22.9961 28.6803 22.9961 29.0781C22.9961 31.4651 23.9443 33.7543 25.6321 35.4421C27.32 37.1299 29.6091 38.0781 31.9961 38.0781C34.383 38.0781 36.6722 37.1299 38.3601 35.4421C40.0479 33.7543 40.9961 31.4651 40.9961 29.0781C40.9961 28.6803 41.1541 28.2988 41.4354 28.0175C41.7167 27.7362 42.0983 27.5781 42.4961 27.5781ZM31.9961 15.5781C33.5874 15.5781 35.1135 16.2103 36.2387 17.3355C37.364 18.4607 37.9961 19.9868 37.9961 21.5781V29.0781C37.9961 30.6694 37.364 32.1955 36.2387 33.3208C35.1135 34.446 33.5874 35.0781 31.9961 35.0781C30.4048 35.0781 28.8787 34.446 27.7535 33.3208C26.6282 32.1955 25.9961 30.6694 25.9961 29.0781V21.5781C25.9961 19.9868 26.6282 18.4607 27.7535 17.3355C28.8787 16.2103 30.4048 15.5781 31.9961 15.5781Z" fill="white"/>
</svg>
