<svg width="41" height="33" viewBox="0 0 41 33" fill="none" xmlns="http://www.w3.org/2000/svg">
<path d="M17.9762 0.757812C7.44985 0.757812 0.15625 9.17901 0.15625 13.3898C0.15625 17.5998 2.26145 20.7578 6.47225 20.7578C10.6831 20.7578 12.7879 21.8102 12.7879 24.9682C12.7879 29.179 15.9459 32.3366 20.1559 32.3366C33.8403 32.3366 40.1558 24.9686 40.1558 17.5998C40.1558 4.96821 30.6079 0.757812 17.9762 0.757812ZM15.1667 4.96821C15.515 4.96392 15.8607 5.02882 16.1838 5.15915C16.5069 5.28949 16.8008 5.48266 17.0487 5.72747C17.2965 5.97228 17.4933 6.26386 17.6276 6.5853C17.7619 6.90674 17.8311 7.25164 17.8311 7.60001C17.8311 7.94838 17.7619 8.29329 17.6276 8.61472C17.4933 8.93616 17.2965 9.22774 17.0487 9.47255C16.8008 9.71737 16.5069 9.91054 16.1838 10.0409C15.8607 10.1712 15.515 10.2361 15.1667 10.2318C14.4743 10.2233 13.8131 9.94224 13.3266 9.44961C12.84 8.95698 12.5671 8.29244 12.5671 7.60001C12.5671 6.90758 12.84 6.24304 13.3266 5.75041C13.8131 5.25778 14.4743 4.97675 15.1667 4.96821ZM23.5879 4.96821C23.9362 4.96392 24.2819 5.02882 24.605 5.15915C24.9281 5.28949 25.222 5.48266 25.4699 5.72747C25.7177 5.97228 25.9145 6.26386 26.0488 6.5853C26.1831 6.90674 26.2523 7.25164 26.2523 7.60001C26.2523 7.94838 26.1831 8.29329 26.0488 8.61472C25.9145 8.93616 25.7177 9.22774 25.4699 9.47255C25.222 9.71737 24.9281 9.91054 24.605 10.0409C24.2819 10.1712 23.9362 10.2361 23.5879 10.2318C22.8955 10.2233 22.2344 9.94224 21.7478 9.44961C21.2612 8.95698 20.9883 8.29244 20.9883 7.60001C20.9883 6.90758 21.2612 6.24304 21.7478 5.75041C22.2344 5.25778 22.8955 4.97675 23.5879 4.96821ZM31.2083 9.17901C31.5565 9.17472 31.9022 9.23961 32.2252 9.36992C32.5483 9.50024 32.8422 9.69338 33.09 9.93816C33.3378 10.1829 33.5346 10.4745 33.6689 10.7959C33.8031 11.1172 33.8723 11.4621 33.8723 11.8104C33.8723 12.1587 33.8031 12.5036 33.6689 12.825C33.5346 13.1464 33.3378 13.4379 33.09 13.6827C32.8422 13.9274 32.5483 14.1206 32.2252 14.2509C31.9022 14.3812 31.5565 14.4461 31.2083 14.4418C30.516 14.4333 29.855 14.1523 29.3684 13.6597C28.8819 13.1672 28.6091 12.5027 28.6091 11.8104C28.6091 11.1181 28.8819 10.4537 29.3684 9.9611C29.855 9.46854 30.516 9.18755 31.2083 9.17901ZM7.79785 9.68421C8.1473 9.67812 8.49446 9.74168 8.81908 9.8712C9.14369 10.0007 9.43927 10.1936 9.68855 10.4386C9.93783 10.6835 10.1358 10.9757 10.271 11.298C10.4061 11.6203 10.4757 11.9663 10.4757 12.3158C10.4757 12.6653 10.4061 13.0113 10.271 13.3336C10.1358 13.6559 9.93783 13.9481 9.68855 14.1931C9.43927 14.438 9.14369 14.6309 8.81908 14.7604C8.49446 14.8899 8.1473 14.9535 7.79785 14.9474C7.10785 14.9354 6.45018 14.6528 5.96648 14.1606C5.48277 13.6684 5.21174 13.0059 5.21174 12.3158C5.21174 11.6257 5.48277 10.9632 5.96648 10.471C6.45018 9.97879 7.10785 9.69624 7.79785 9.68421ZM21.7563 21.8102C22.5938 21.8102 23.3971 22.1429 23.9893 22.7352C24.5815 23.3274 24.9143 24.1307 24.9143 24.9682C24.9143 26.7122 22.7003 28.1262 20.9563 28.1262C20.1187 28.1262 19.3154 27.7935 18.7232 27.2013C18.131 26.609 17.7983 25.8058 17.7983 24.9682C17.7983 23.2242 20.0123 21.8102 21.7563 21.8102Z" fill="#7600CD"/>
</svg>
