<svg width="41" height="41" viewBox="0 0 41 41" fill="none" xmlns="http://www.w3.org/2000/svg">
<path fill-rule="evenodd" clip-rule="evenodd" d="M15.7671 2.54449C16.3299 1.91598 17.0189 1.41321 17.7891 1.069C18.5593 0.724786 19.3935 0.546875 20.2371 0.546875C21.0807 0.546875 21.9149 0.724786 22.6851 1.069C23.4554 1.41321 24.1443 1.91598 24.7071 2.54449L26.1071 4.10849C26.3072 4.3323 26.5551 4.5082 26.8324 4.62315C27.1097 4.7381 27.4094 4.78914 27.7091 4.77249L29.8091 4.65649C30.6512 4.61024 31.4936 4.74204 32.2813 5.04329C33.0691 5.34454 33.7844 5.80847 34.3808 6.40482C34.9771 7.00117 35.4411 7.71654 35.7423 8.50427C36.0436 9.292 36.1754 10.1344 36.1291 10.9765L36.0131 13.0765C35.9968 13.3759 36.048 13.6752 36.1629 13.9521C36.2778 14.2291 36.4536 14.4766 36.6771 14.6765L38.2431 16.0765C38.8719 16.6393 39.375 17.3284 39.7194 18.0988C40.0638 18.8692 40.2418 19.7036 40.2418 20.5475C40.2418 21.3914 40.0638 22.2258 39.7194 22.9962C39.375 23.7666 38.8719 24.4557 38.2431 25.0185L36.6771 26.4185C36.4533 26.6186 36.2774 26.8665 36.1624 27.1438C36.0475 27.4211 35.9965 27.7207 36.0131 28.0205L36.1291 30.1205C36.1754 30.9626 36.0436 31.805 35.7423 32.5927C35.4411 33.3804 34.9771 34.0958 34.3808 34.6922C33.7844 35.2885 33.0691 35.7524 32.2813 36.0537C31.4936 36.3549 30.6512 36.4867 29.8091 36.4405L27.7091 36.3245C27.4097 36.3081 27.1104 36.3593 26.8335 36.4743C26.5565 36.5892 26.309 36.7649 26.1091 36.9885L24.7091 38.5545C24.1463 39.1833 23.4572 39.6864 22.6868 40.0308C21.9164 40.3752 21.082 40.5532 20.2381 40.5532C19.3942 40.5532 18.5598 40.3752 17.7894 40.0308C17.019 39.6864 16.3299 39.1833 15.7671 38.5545L14.3671 36.9885C14.167 36.7647 13.9191 36.5888 13.6418 36.4738C13.3645 36.3589 13.0648 36.3078 12.7651 36.3245L10.6651 36.4405C9.82301 36.4867 8.98062 36.3549 8.19289 36.0537C7.40516 35.7524 6.68979 35.2885 6.09344 34.6922C5.49709 34.0958 5.03315 33.3804 4.7319 32.5927C4.43066 31.805 4.29886 30.9626 4.34511 30.1205L4.46111 28.0205C4.47745 27.7211 4.42626 27.4218 4.31132 27.1449C4.19639 26.8679 4.02065 26.6203 3.79711 26.4205L2.23311 25.0205C1.60426 24.4577 1.10121 23.7686 0.756802 22.9982C0.412393 22.2278 0.234375 21.3934 0.234375 20.5495C0.234375 19.7056 0.412393 18.8712 0.756802 18.1008C1.10121 17.3304 1.60426 16.6413 2.23311 16.0785L3.79711 14.6785C4.02092 14.4784 4.19682 14.2305 4.31177 13.9532C4.42671 13.6759 4.47775 13.3762 4.46111 13.0765L4.34511 10.9765C4.29886 10.1344 4.43066 9.292 4.7319 8.50427C5.03315 7.71654 5.49709 7.00117 6.09344 6.40482C6.68979 5.80847 7.40516 5.34454 8.19289 5.04329C8.98062 4.74204 9.82301 4.61024 10.6651 4.65649L12.7651 4.77249C13.0645 4.78883 13.3638 4.73764 13.6407 4.62271C13.9177 4.50777 14.1652 4.33203 14.3651 4.10849L15.7671 2.54449ZM27.6511 13.1345C28.026 13.5095 28.2367 14.0182 28.2367 14.5485C28.2367 15.0788 28.026 15.5874 27.6511 15.9625L15.6511 27.9625C15.2739 28.3268 14.7687 28.5284 14.2443 28.5238C13.7199 28.5193 13.2183 28.3089 12.8475 27.9381C12.4767 27.5673 12.2663 27.0657 12.2618 26.5413C12.2572 26.0169 12.4588 25.5117 12.8231 25.1345L24.8231 13.1345C25.1982 12.7595 25.7068 12.5489 26.2371 12.5489C26.7674 12.5489 27.276 12.7595 27.6511 13.1345ZM15.2371 12.5485C14.4415 12.5485 13.6784 12.8646 13.1158 13.4272C12.5532 13.9898 12.2371 14.7528 12.2371 15.5485V15.5685C12.2371 16.3641 12.5532 17.1272 13.1158 17.6898C13.6784 18.2524 14.4415 18.5685 15.2371 18.5685H15.2571C16.0528 18.5685 16.8158 18.2524 17.3784 17.6898C17.941 17.1272 18.2571 16.3641 18.2571 15.5685V15.5485C18.2571 14.7528 17.941 13.9898 17.3784 13.4272C16.8158 12.8646 16.0528 12.5485 15.2571 12.5485H15.2371ZM25.2371 22.5485C24.4415 22.5485 23.6784 22.8646 23.1158 23.4272C22.5532 23.9898 22.2371 24.7528 22.2371 25.5485V25.5685C22.2371 26.3641 22.5532 27.1272 23.1158 27.6898C23.6784 28.2524 24.4415 28.5685 25.2371 28.5685H25.2571C26.0528 28.5685 26.8158 28.2524 27.3784 27.6898C27.941 27.1272 28.2571 26.3641 28.2571 25.5685V25.5485C28.2571 24.7528 27.941 23.9898 27.3784 23.4272C26.8158 22.8646 26.0528 22.5485 25.2571 22.5485H25.2371Z" fill="#7600CD"/>
</svg>
