<svg width="76" height="76" viewBox="0 0 76 76" fill="none" xmlns="http://www.w3.org/2000/svg">
<rect width="76" height="76" rx="10" fill="#F1E6FA"/>
<path opacity="0.2" d="M49.7251 37.9199L45.8739 30.125H30.1239L26.2726 37.9199C26.1812 38.1049 26.1425 38.3115 26.1606 38.517C26.1787 38.7225 26.253 38.9191 26.3753 39.0852L37.9989 54.875L49.6224 39.0852C49.7447 38.919 49.819 38.7224 49.8371 38.5169C49.8552 38.3114 49.8165 38.1048 49.7251 37.9199ZM37.9989 41.375C37.4426 41.375 36.8988 41.21 36.4363 40.901C35.9738 40.592 35.6133 40.1527 35.4005 39.6388C35.1876 39.1249 35.1319 38.5594 35.2404 38.0138C35.3489 37.4682 35.6168 36.9671 36.0101 36.5738C36.4035 36.1804 36.9046 35.9126 37.4502 35.804C37.9958 35.6955 38.5613 35.7512 39.0752 35.9641C39.5891 36.177 40.0283 36.5374 40.3374 37C40.6464 37.4625 40.8114 38.0062 40.8114 38.5625C40.8114 38.9318 40.7386 39.2976 40.5973 39.6388C40.456 39.98 40.2488 40.2901 39.9876 40.5512C39.7265 40.8124 39.4164 41.0196 39.0752 41.1609C38.7339 41.3023 38.3682 41.375 37.9989 41.375Z" fill="#7600CD"/>
<path d="M38 41.375L38 54.875" stroke="#7600CD" stroke-width="2.5" stroke-linecap="round" stroke-linejoin="round"/>
<path d="M38 41.375C39.5533 41.375 40.8125 40.1158 40.8125 38.5625C40.8125 37.0092 39.5533 35.75 38 35.75C36.4467 35.75 35.1875 37.0092 35.1875 38.5625C35.1875 40.1158 36.4467 41.375 38 41.375Z" stroke="#7600CD" stroke-width="2.5" stroke-linecap="round" stroke-linejoin="round"/>
<path d="M30.125 30.125V24.5C30.125 24.2016 30.2435 23.9155 30.4545 23.7045C30.6655 23.4935 30.9516 23.375 31.25 23.375H44.75C45.0484 23.375 45.3345 23.4935 45.5455 23.7045C45.7565 23.9155 45.875 24.2016 45.875 24.5V30.125" stroke="#7600CD" stroke-width="2.5" stroke-linecap="round" stroke-linejoin="round"/>
<path d="M30.1239 30.125L26.2726 37.92C26.1813 38.1049 26.1425 38.3115 26.1606 38.517C26.1787 38.7225 26.253 38.9191 26.3753 39.0852L37.9989 54.875L49.6224 39.0852C49.7448 38.919 49.819 38.7224 49.8371 38.5169C49.8552 38.3114 49.8165 38.1049 49.7251 37.9199L45.8739 30.125H30.1239Z" stroke="#7600CD" stroke-width="2.5" stroke-linecap="round" stroke-linejoin="round"/>
</svg>
