<svg width="55" height="54" viewBox="0 0 55 54" fill="none" xmlns="http://www.w3.org/2000/svg">
<rect x="0.5" width="54" height="54" rx="12" fill="#F6F2FF"/>
<path d="M44.1193 37.5507C44.1193 38.1507 43.9859 38.7673 43.7026 39.3673C43.4193 39.9673 43.0526 40.534 42.5693 41.0673C41.7526 41.9673 40.8526 42.6173 39.8359 43.034C38.8359 43.4507 37.7526 43.6673 36.5859 43.6673C34.8859 43.6673 33.0693 43.2673 31.1526 42.4507C29.2359 41.634 27.3193 40.534 25.4193 39.1507C23.5026 37.7507 21.6859 36.2006 19.9526 34.484C18.2359 32.7507 16.6859 30.934 15.3026 29.034C13.9359 27.134 12.8359 25.234 12.0359 23.3507C11.2359 21.4507 10.8359 19.634 10.8359 17.9007C10.8359 16.7673 11.0359 15.684 11.4359 14.684C11.8359 13.6673 12.4693 12.734 13.3526 11.9007C14.4193 10.8507 15.5859 10.334 16.8193 10.334C17.2859 10.334 17.7526 10.434 18.1693 10.634C18.6026 10.834 18.9859 11.134 19.2859 11.5673L23.1526 17.0173C23.4526 17.434 23.6693 17.8173 23.8193 18.184C23.9693 18.534 24.0526 18.884 24.0526 19.2007C24.0526 19.6007 23.9359 20.0007 23.7026 20.384C23.4859 20.7673 23.1693 21.1673 22.7693 21.5673L21.5026 22.884C21.3193 23.0673 21.2359 23.284 21.2359 23.5507C21.2359 23.684 21.2526 23.8007 21.2859 23.934C21.3359 24.0673 21.3859 24.1673 21.4193 24.2673C21.7193 24.8173 22.2359 25.534 22.9693 26.4007C23.7193 27.2673 24.5193 28.1507 25.3859 29.034C26.2859 29.9173 27.1526 30.734 28.0359 31.484C28.9026 32.2173 29.6193 32.7173 30.1859 33.0173C30.2693 33.0506 30.3693 33.1006 30.4859 33.1506C30.6193 33.2006 30.7526 33.2173 30.9026 33.2173C31.1859 33.2173 31.4026 33.1173 31.5859 32.934L32.8526 31.684C33.2693 31.2673 33.6693 30.9507 34.0526 30.7507C34.4359 30.5173 34.8193 30.4007 35.2359 30.4007C35.5526 30.4007 35.8859 30.4673 36.2526 30.6173C36.6193 30.7673 37.0026 30.984 37.4193 31.2673L42.9359 35.184C43.3693 35.484 43.6693 35.834 43.8526 36.2506C44.0193 36.6673 44.1193 37.084 44.1193 37.5507Z" stroke="#AD66E1" stroke-width="2.5" stroke-miterlimit="10"/>
</svg>
