<svg width="147" height="147" viewBox="0 0 147 147" fill="none" xmlns="http://www.w3.org/2000/svg">
<g clip-path="url(#clip0_319_116234)">
<path opacity="0.2" d="M25.5 55.4626V52.5576H36.6467V27.6014C36.6467 12.7707 48.6693 0.748047 63.5 0.748047C78.3307 0.748047 90.3533 12.7707 90.3533 27.6014V52.5576H101.5V55.4626C101.5 60.7582 99.3997 65.8377 95.6598 69.587L90.3533 74.9068L99.5231 119.199C99.7671 120.378 98.1042 120.903 97.6261 119.799L93.8044 110.97L63.6623 100.175L33.8552 109.446L29.3739 119.799C28.8957 120.903 27.2329 120.378 27.4769 119.199L36.6467 74.9068L31.3402 69.587C27.6003 65.8377 25.5 60.7582 25.5 55.4626Z" fill="#7600CD"/>
<path d="M46.7933 84.0655L41.323 78.5681C37.5936 74.8203 35.5 69.7482 35.5 64.4609V61.3671H46.7933V35.9547C46.7933 20.9289 58.9742 8.74805 74 8.74805V8.74805C89.0258 8.74805 101.207 20.9289 101.207 35.9547V61.3671H112.5V64.4609C112.5 69.7482 110.406 74.8203 106.677 78.5681L101.207 84.0655M46.7933 84.0655L35.5 138.748L43.9652 119.145M46.7933 84.0655H59.1133M101.207 84.0655H88.8867M101.207 84.0655L112.5 138.748L104.703 120.692M59.1133 84.0655H88.8867M59.1133 84.0655L51.5392 101.605M88.8867 84.0655L96.9063 102.637M96.9063 102.637L43.9652 119.145M96.9063 102.637L104.703 120.692M43.9652 119.145L51.5392 101.605M51.5392 101.605L104.703 120.692" stroke="#333333" stroke-width="4" stroke-linecap="round" stroke-linejoin="round"/>
<path d="M47.5 70.748L48.753 71.9538C50.6161 73.7466 53.1012 74.748 55.6868 74.748H92.3132C94.8988 74.748 97.3839 73.7466 99.247 71.9538L100.5 70.748" stroke="#333333" stroke-width="4" stroke-linecap="round" stroke-linejoin="round"/>
</g>
<defs>
<clipPath id="clip0_319_116234">
<rect width="146" height="146" fill="white" transform="translate(0.5 0.748047)"/>
</clipPath>
</defs>
</svg>
