<svg width="49" height="49" viewBox="0 0 49 49" fill="none" xmlns="http://www.w3.org/2000/svg">
<circle cx="24.1367" cy="24.5527" r="23.25" fill="white" stroke="#E8E6F9" stroke-width="1.5"/>
<path d="M16.4548 18.8708C16.0369 19.2886 15.7054 19.7847 15.4793 20.3307C15.2531 20.8767 15.1367 21.4618 15.1367 22.0528C15.1367 22.6437 15.2531 23.2289 15.4793 23.7749C15.7054 24.3208 16.0369 24.8169 16.4548 25.2348L24.1368 32.9168L31.8188 25.2348C32.6627 24.3909 33.1368 23.2463 33.1368 22.0528C33.1368 20.8593 32.6627 19.7147 31.8188 18.8708C30.9748 18.0269 29.8302 17.5527 28.6368 17.5527C27.4433 17.5527 26.2987 18.0269 25.4548 18.8708L24.1368 20.1888L22.8188 18.8708C22.4009 18.4529 21.9048 18.1214 21.3588 17.8953C20.8129 17.6691 20.2277 17.5527 19.6368 17.5527C19.0458 17.5527 18.4606 17.6691 17.9147 17.8953C17.3687 18.1214 16.8726 18.4529 16.4548 18.8708V18.8708Z" stroke="#7600CD" stroke-width="2" stroke-linecap="round" stroke-linejoin="round"/>
</svg>
