     <svg width="25" height="17" viewBox="0 0 25 17" fill="none" xmlns="http://www.w3.org/2000/svg">
                        <path
                            d="M22.8576 6.98695V3.70911C22.8576 1.76363 21.2658 0.171875 19.3203 0.171875H14.604C13.6961 0.171875 12.8708 0.525599 12.2459 1.09156C11.6209 0.525599 10.7956 0.171875 9.8877 0.171875H5.17139C3.22591 0.171875 1.63416 1.76363 1.63416 3.70911V6.98695C0.914919 7.63544 0.455078 8.56691 0.455078 9.6045V16.679H2.81323V14.3208H21.6785V16.679H24.0366V9.6045C24.0366 8.56691 23.5768 7.63544 22.8576 6.98695ZM14.604 2.53003H19.3203C19.9688 2.53003 20.4994 3.06062 20.4994 3.70911V6.06727H13.4249V3.70911C13.4249 3.06062 13.9555 2.53003 14.604 2.53003ZM3.99231 3.70911C3.99231 3.06062 4.5229 2.53003 5.17139 2.53003H9.8877C10.5362 2.53003 11.0668 3.06062 11.0668 3.70911V6.06727H3.99231V3.70911ZM2.81323 11.9627V9.6045C2.81323 8.95601 3.34382 8.42542 3.99231 8.42542H20.4994C21.1479 8.42542 21.6785 8.95601 21.6785 9.6045V11.9627H2.81323Z"
                            fill="#7600CD" />
                    </svg>