<svg width="65" height="65" viewBox="0 0 65 65" fill="none" xmlns="http://www.w3.org/2000/svg">
<circle cx="32.3457" cy="32.5039" r="31.5" fill="white" stroke="#F1E6FA"/>
<circle cx="32.3457" cy="32.5039" r="28" fill="#F1E6FA"/>
<g clip-path="url(#clip0_319_100594)">
<path fill-rule="evenodd" clip-rule="evenodd" d="M19.0127 32.5052H21.9756V42.8756C21.9756 43.6614 22.2878 44.415 22.8434 44.9707C23.3991 45.5264 24.1527 45.8385 24.9385 45.8385H39.7534C40.5392 45.8385 41.2928 45.5264 41.8485 44.9707C42.4042 44.415 42.7163 43.6614 42.7163 42.8756V32.5052H42.7164H45.6794L32.346 19.1719L19.0127 32.5052Z" fill="white"/>
<path d="M21.9756 32.5052H22.9756C22.9756 31.9529 22.5279 31.5052 21.9756 31.5052V32.5052ZM19.0127 32.5052L18.3056 31.7981C18.0196 32.0841 17.934 32.5142 18.0888 32.8879C18.2436 33.2616 18.6082 33.5052 19.0127 33.5052V32.5052ZM22.8434 44.9707L23.5505 44.2636L23.5505 44.2636L22.8434 44.9707ZM42.7163 32.5052V31.5052C42.164 31.5052 41.7163 31.9529 41.7163 32.5052H42.7163ZM45.6794 32.5052V33.5052C46.0838 33.5052 46.4485 33.2616 46.6032 32.8879C46.758 32.5142 46.6725 32.0841 46.3865 31.7981L45.6794 32.5052ZM32.346 19.1719L33.0531 18.4648C32.6626 18.0742 32.0294 18.0742 31.6389 18.4648L32.346 19.1719ZM21.9756 32.5052V31.5052H19.0127V32.5052V33.5052H21.9756V32.5052ZM21.9756 32.5052H20.9756V42.8756H21.9756H22.9756V32.5052H21.9756ZM21.9756 42.8756H20.9756C20.9756 43.9266 21.3931 44.9346 22.1363 45.6778L22.8434 44.9707L23.5505 44.2636C23.1824 43.8955 22.9756 43.3962 22.9756 42.8756H21.9756ZM22.8434 44.9707L22.1363 45.6778C22.8795 46.421 23.8875 46.8385 24.9385 46.8385V45.8385V44.8385C24.4179 44.8385 23.9187 44.6317 23.5505 44.2636L22.8434 44.9707ZM24.9385 45.8385V46.8385H39.7534V45.8385V44.8385H24.9385V45.8385ZM39.7534 45.8385V46.8385C40.8044 46.8385 41.8124 46.421 42.5556 45.6778L41.8485 44.9707L41.1414 44.2636C40.7733 44.6317 40.274 44.8385 39.7534 44.8385V45.8385ZM41.8485 44.9707L42.5556 45.6778C43.2988 44.9346 43.7163 43.9266 43.7163 42.8756H42.7163H41.7163C41.7163 43.3962 41.5095 43.8955 41.1414 44.2636L41.8485 44.9707ZM42.7163 42.8756H43.7163V32.5052H42.7163H41.7163V42.8756H42.7163ZM42.7164 32.5052V31.5052H42.7163V32.5052V33.5052H42.7164V32.5052ZM45.6794 32.5052V31.5052H42.7164V32.5052V33.5052H45.6794V32.5052ZM32.346 19.1719L31.6389 19.879L44.9723 33.2123L45.6794 32.5052L46.3865 31.7981L33.0531 18.4648L32.346 19.1719ZM19.0127 32.5052L19.7198 33.2123L33.0531 19.879L32.346 19.1719L31.6389 18.4648L18.3056 31.7981L19.0127 32.5052Z" fill="white"/>
<path d="M28.3457 34.5026L31.0124 37.1693L36.3457 31.8359" stroke="#7600CD" stroke-width="2" stroke-linecap="round" stroke-linejoin="round"/>
</g>
<path d="M40.3457 40.5039H64.3457V52.5039C64.3457 59.1313 58.9731 64.5039 52.3457 64.5039C45.7183 64.5039 40.3457 59.1313 40.3457 52.5039V40.5039Z" fill="#7600CD"/>
<path d="M56.7052 47.283L53.0386 45.9097C52.6586 45.7697 52.0386 45.7697 51.6586 45.9097L47.9919 47.283C47.2852 47.5497 46.7119 48.3764 46.7119 49.1297V54.5297C46.7119 55.0697 47.0652 55.783 47.4986 56.103L51.1652 58.843C51.8119 59.3297 52.8719 59.3297 53.5186 58.843L57.1852 56.103C57.6186 55.7764 57.9719 55.0697 57.9719 54.5297V49.1297C57.9786 48.3764 57.4052 47.5497 56.7052 47.283ZM52.8452 53.083V54.8364C52.8452 55.1097 52.6186 55.3364 52.3452 55.3364C52.0719 55.3364 51.8452 55.1097 51.8452 54.8364V53.083C51.1719 52.8697 50.6786 52.243 50.6786 51.503C50.6786 50.583 51.4252 49.8364 52.3452 49.8364C53.2652 49.8364 54.0119 50.583 54.0119 51.503C54.0119 52.2497 53.5186 52.8697 52.8452 53.083Z" fill="white"/>
<defs>
<clipPath id="clip0_319_100594">
<rect width="32" height="32" fill="white" transform="translate(16.3457 16.5039)"/>
</clipPath>
</defs>
</svg>
