<svg width="134" height="202" viewBox="0 0 134 202" fill="none" xmlns="http://www.w3.org/2000/svg">
<rect x="44" y="67" width="46" height="68" rx="23" fill="#7600CD"/>
<path d="M7.805 74.035C6.8645 74.035 5.9335 73.2655 5.9335 71.831C5.9335 70.501 6.6745 69.5605 7.767 69.5415L7.767 70.463C7.216 70.52 6.665 70.9095 6.665 71.831C6.665 72.667 7.14 73.161 7.767 73.161C9.553 73.161 8.413 69.5795 10.8735 69.5795C11.966 69.5795 12.707 70.463 12.707 71.774C12.707 73.0375 12.0135 73.864 11.0065 73.9685L11.0065 73.0185C11.453 72.9615 11.9565 72.5435 11.966 71.736C11.985 71.0235 11.6145 70.463 10.902 70.463C9.192 70.463 10.256 74.035 7.805 74.035ZM9.3155 74.7342C11.301 74.7342 12.707 76.1877 12.707 78.0402C12.707 79.4747 11.985 80.6147 10.7025 81.1087L10.7025 80.0732C11.5005 79.7122 11.947 79.0092 11.947 78.0402C11.947 76.6532 10.94 75.6177 9.3155 75.6177C7.7005 75.6177 6.6935 76.6532 6.6935 78.0402C6.6935 79.0092 7.14 79.7122 7.9285 80.0732L7.9285 81.1087C6.6555 80.6147 5.943 79.4747 5.943 78.0402C5.943 76.1877 7.33 74.7342 9.3155 74.7342ZM10.674 85.6891C11.4245 85.6891 11.909 85.2711 11.909 84.2831L11.909 83.0101L9.401 83.0101L9.401 84.2831C9.401 85.2616 9.933 85.6891 10.674 85.6891ZM12.6215 82.1456L12.6215 84.2831C12.6215 85.8411 11.757 86.5821 10.674 86.5821C9.8285 86.5821 9.021 86.1166 8.774 85.0051L6 86.6676L6 85.6321L8.7075 84.0551L8.7075 83.0101L6 83.0101L6 82.1456L12.6215 82.1456ZM9.3155 94.0023C7.33 94.0023 5.9335 92.5488 5.9335 90.6773C5.9335 88.8153 7.33 87.3523 9.3155 87.3523C11.301 87.3523 12.6975 88.8153 12.6975 90.6773C12.6975 92.5488 11.301 94.0023 9.3155 94.0023ZM9.3155 88.2358C7.7005 88.2358 6.684 89.2808 6.684 90.6773C6.684 92.0738 7.7005 93.1188 9.3155 93.1188C10.94 93.1188 11.947 92.0738 11.947 90.6773C11.947 89.2808 10.94 88.2358 9.3155 88.2358ZM12.6215 94.8936L12.6215 95.7581L6.703 95.7581L6.703 98.0761L6 98.0761L6 94.8936L12.6215 94.8936ZM12.6215 98.7442L12.6215 99.6087L6.703 99.6087L6.703 101.927L6 101.927L6 98.7442L12.6215 98.7442ZM12.6215 106.939C12.6215 109.114 11.3485 110.454 9.2965 110.454C7.2445 110.454 6 109.114 6 106.939L6 104.877L12.6215 104.877L12.6215 106.939ZM6.7125 105.742L6.7125 106.939C6.7125 108.668 7.6815 109.57 9.2965 109.57C10.9115 109.57 11.9185 108.668 11.9185 106.939L11.9185 105.742L6.7125 105.742ZM9.3155 117.671C7.33 117.671 5.9335 116.218 5.9335 114.346C5.9335 112.484 7.33 111.021 9.3155 111.021C11.301 111.021 12.6975 112.484 12.6975 114.346C12.6975 116.218 11.301 117.671 9.3155 117.671ZM9.3155 111.905C7.7005 111.905 6.684 112.95 6.684 114.346C6.684 115.743 7.7005 116.788 9.3155 116.788C10.94 116.788 11.947 115.743 11.947 114.346C11.947 112.95 10.94 111.905 9.3155 111.905ZM5.9905 119.902L12.6215 118.05L12.6215 118.971L7.007 120.415L12.6215 122.011L12.6215 122.98L7.026 124.5L12.6215 125.954L12.6215 126.885L6 124.966L6 123.997L11.3295 122.458L6 120.862L5.9905 119.902ZM12.631 131.922L12.631 132.787L6 132.787L6 131.922L11.2725 128.445L6 128.445L6 127.581L12.631 127.581L12.631 128.445L7.368 131.922L12.631 131.922Z" fill="#333333"/>
<path d="M126.195 127.965C127.135 127.965 128.066 128.734 128.066 130.169C128.066 131.499 127.325 132.439 126.233 132.458L126.233 131.537C126.784 131.48 127.335 131.09 127.335 130.169C127.335 129.333 126.86 128.839 126.233 128.839C124.447 128.839 125.587 132.42 123.126 132.42C122.034 132.42 121.293 131.537 121.293 130.226C121.293 128.962 121.986 128.136 122.993 128.031L122.993 128.981C122.547 129.038 122.043 129.456 122.034 130.264C122.015 130.976 122.385 131.537 123.098 131.537C124.808 131.537 123.744 127.965 126.195 127.965ZM124.684 127.266C122.699 127.266 121.293 125.812 121.293 123.96C121.293 122.525 122.015 121.385 123.297 120.891L123.297 121.927C122.499 122.288 122.053 122.991 122.053 123.96C122.053 125.347 123.06 126.382 124.684 126.382C126.299 126.382 127.306 125.347 127.306 123.96C127.306 122.991 126.86 122.288 126.071 121.927L126.071 120.891C127.344 121.385 128.057 122.525 128.057 123.96C128.057 125.812 126.67 127.266 124.684 127.266ZM123.326 116.311C122.575 116.311 122.091 116.729 122.091 117.717L122.091 118.99L124.599 118.99L124.599 117.717C124.599 116.738 124.067 116.311 123.326 116.311ZM121.378 119.854L121.378 117.717C121.378 116.159 122.243 115.418 123.326 115.418C124.171 115.418 124.979 115.883 125.226 116.995L128 115.332L128 116.368L125.292 117.945L125.292 118.99L128 118.99L128 119.854L121.378 119.854ZM124.684 107.998C126.67 107.998 128.066 109.451 128.066 111.323C128.066 113.185 126.67 114.648 124.684 114.648C122.699 114.648 121.302 113.185 121.302 111.323C121.302 109.451 122.699 107.998 124.684 107.998ZM124.684 113.764C126.299 113.764 127.316 112.719 127.316 111.323C127.316 109.926 126.299 108.881 124.684 108.881C123.06 108.881 122.053 109.926 122.053 111.323C122.053 112.719 123.06 113.764 124.684 113.764ZM121.378 107.106L121.378 106.242L127.297 106.242L127.297 103.924L128 103.924L128 107.106L121.378 107.106ZM121.378 103.256L121.378 102.391L127.297 102.391L127.297 100.073L128 100.073L128 103.256L121.378 103.256ZM121.378 95.061C121.378 92.8855 122.651 91.546 124.703 91.546C126.755 91.546 128 92.8855 128 95.061L128 97.1225L121.378 97.1225L121.378 95.061ZM127.287 96.258L127.287 95.061C127.287 93.332 126.318 92.4295 124.703 92.4295C123.088 92.4295 122.081 93.332 122.081 95.061L122.081 96.258L127.287 96.258ZM124.684 84.3287C126.67 84.3287 128.066 85.7822 128.066 87.6537C128.066 89.5157 126.67 90.9787 124.684 90.9787C122.699 90.9787 121.302 89.5157 121.302 87.6537C121.302 85.7822 122.699 84.3287 124.684 84.3287ZM124.684 90.0952C126.299 90.0952 127.316 89.0502 127.316 87.6537C127.316 86.2572 126.299 85.2122 124.684 85.2122C123.06 85.2122 122.053 86.2572 122.053 87.6537C122.053 89.0502 123.06 90.0952 124.684 90.0952ZM128.009 82.0979L121.378 83.9504L121.378 83.0289L126.993 81.5849L121.378 79.9889L121.378 79.0199L126.974 77.4999L121.378 76.0464L121.378 75.1154L128 77.0344L128 78.0034L122.67 79.5424L128 81.1384L128.009 82.0979ZM121.369 70.0779L121.369 69.2134L128 69.2134L128 70.0779L122.727 73.5549L128 73.5549L128 74.4194L121.369 74.4194L121.369 73.5549L126.632 70.0779L121.369 70.0779Z" fill="#333333"/>
<path d="M67 151L69.8867 146L64.1132 146L67 151ZM67 51L66.5 51L66.5 146.5L67 146.5L67.5 146.5L67.5 51L67 51Z" fill="#FFD700"/>
<path d="M1 135V135C1 171.451 30.5492 201 67 201V201C103.451 201 133 171.451 133 135V135" stroke="#FFD700"/>
<path d="M133 67V67C133 30.5492 103.451 0.999997 67 0.999994V0.999994C30.5492 0.999991 1 30.5492 1 67V67" stroke="#FFD700"/>
<path d="M29.7113 147.812C28.9386 148.178 28.0335 147.776 27.5415 146.737C27.0211 145.638 27.2561 144.581 28.0903 144.123L28.4725 144.93C28.0378 145.188 27.8855 145.754 28.1986 146.415C28.4913 147.034 28.9631 147.231 29.3494 147.048C30.3969 146.552 28.4699 144.059 30.2214 143.229C30.9427 142.888 31.8563 143.285 32.3523 144.333C32.8443 145.372 32.6115 146.323 31.7172 146.809L31.3472 146.028C31.8032 145.77 31.9759 145.247 31.679 144.62C31.4066 144.045 30.9692 143.831 30.5914 144.01C29.4753 144.539 31.3779 146.981 29.7113 147.812Z" fill="#333333"/>
<path d="M33.5011 151.748C34.7724 150.721 36.2479 150.885 37.1789 152.038C37.9906 153.044 38.0044 154.119 37.3215 155.012L36.7366 154.288C37.111 153.754 37.0932 153.097 36.6098 152.498C36.013 151.759 35.0466 151.636 34.0561 152.435C33.0509 153.247 32.9678 154.218 33.5646 154.957C34.048 155.555 34.6586 155.722 35.2879 155.458L35.8728 156.182C34.9 156.626 33.8071 156.422 32.9955 155.416C32.0644 154.263 32.215 152.786 33.5011 151.748Z" fill="#333333"/>
<path d="M41.5533 159.858L39.8046 162.084L39.1247 161.55L42.3405 157.456L43.0204 157.99L42.4981 158.655C43.0877 158.381 43.7514 158.444 44.4014 158.954L43.8498 159.657L43.6705 159.516C43.0205 159.005 42.2986 158.909 41.5533 159.858Z" fill="#333333"/>
<path d="M52.0461 166.291C51.3418 167.787 49.8223 168.226 48.4815 167.595C47.1493 166.967 46.5804 165.544 47.2846 164.049C47.9848 162.562 49.4746 162.119 50.8067 162.746C52.1475 163.378 52.7463 164.804 52.0461 166.291ZM48.0839 164.425C47.5213 165.62 47.9888 166.523 48.8053 166.907C49.6218 167.292 50.6842 167.109 51.2468 165.915C51.8053 164.729 51.2863 163.802 50.4784 163.421C49.6533 163.033 48.6425 163.239 48.0839 164.425Z" fill="#333333"/>
<path d="M56.6367 170.404L58.2872 163.57L59.1275 163.773L57.4771 170.607L56.6367 170.404Z" fill="#333333"/>
<path d="M63.4557 171.532L64.0105 164.524L64.8723 164.593L64.3175 171.601L63.4557 171.532Z" fill="#333333"/>
<path d="M77.0641 167.949C76.5767 166.399 77.2873 165.08 78.6285 164.658C79.4079 164.413 80.2492 164.587 80.7731 165.05L79.9466 162.421L80.7803 162.159L82.8894 168.865L82.0556 169.128L81.7621 168.194C81.6369 168.841 81.1388 169.506 80.2326 169.791C78.9004 170.21 77.5486 169.489 77.0641 167.949ZM81.2719 166.635C80.9099 165.485 79.9139 165.041 79.0077 165.326C78.1015 165.611 77.5392 166.515 77.9069 167.684C78.2745 168.853 79.2614 169.299 80.1677 169.014C81.0739 168.729 81.6395 167.804 81.2719 166.635Z" fill="#333333"/>
<path d="M91.0891 161.536C91.9573 162.943 91.4956 164.456 90.2345 165.234C88.9815 166.008 87.4787 165.707 86.6105 164.3C85.7473 162.902 86.1897 161.412 87.4427 160.639C88.7039 159.86 90.2259 160.138 91.0891 161.536ZM87.3623 163.836C88.0559 164.96 89.0673 165.062 89.8353 164.588C90.6033 164.113 91.0309 163.124 90.3373 162C89.6487 160.885 88.5888 160.813 87.8288 161.282C87.0528 161.761 86.6738 162.721 87.3623 163.836Z" fill="#333333"/>
<path d="M97.8055 159.323L92.8494 157.041L93.4423 156.386L97.4853 158.431L95.1127 154.541L95.7056 153.886L99.8003 155.888L97.3441 152.076L97.9179 151.442L100.687 156.14L100.088 156.802L96.1827 154.958L98.4048 158.661L97.8055 159.323Z" fill="#333333"/>
<path d="M107.229 145.694L104.581 144.404C103.625 143.938 102.884 144.221 102.501 145.007C102.114 145.801 102.343 146.589 103.351 147.08L105.938 148.342L105.559 149.119L100.88 146.838L101.259 146.061L101.925 146.385C101.588 145.841 101.598 145.148 101.906 144.516C102.434 143.431 103.504 142.928 104.845 143.581L107.603 144.926L107.229 145.694Z" fill="#333333"/>
<path d="M104.656 54.1881C105.429 53.8222 106.334 54.224 106.826 55.2629C107.346 56.3619 107.111 57.4192 106.277 57.8773L105.895 57.0703C106.329 56.8118 106.482 56.2456 106.169 55.5845C105.876 54.9663 105.404 54.7693 105.018 54.9523C103.97 55.4483 105.897 57.9415 104.146 58.7709C103.425 59.1125 102.511 58.7147 102.015 57.6673C101.523 56.6284 101.756 55.6772 102.65 55.1906L103.02 55.9719C102.564 56.2299 102.391 56.7532 102.688 57.3799C102.961 57.9552 103.398 58.1685 103.776 57.9896C104.892 57.461 102.989 55.0194 104.656 54.1881Z" fill="#333333"/>
<path d="M100.866 50.2521C99.5948 51.2786 98.1193 51.1147 97.1882 49.9616C96.3766 48.9564 96.3628 47.8808 97.0457 46.9875L97.6306 47.7119C97.2561 48.2462 97.274 48.9034 97.7574 49.5021C98.3542 50.2412 99.3206 50.3644 100.311 49.5647C101.316 48.753 101.399 47.7824 100.803 47.0432C100.319 46.4445 99.7086 46.2782 99.0793 46.5421L98.4944 45.8178C99.4672 45.3742 100.56 45.5785 101.372 46.5837C102.303 47.7367 102.152 49.2136 100.866 50.2521Z" fill="#333333"/>
<path d="M92.8139 42.142L94.5626 39.9157L95.2424 40.4497L92.0267 44.5437L91.3468 44.0097L91.8691 43.3448C91.2795 43.6186 90.6157 43.5563 89.9658 43.0458L90.5174 42.3435L90.6967 42.4843C91.3467 42.9949 92.0686 43.0908 92.8139 42.142Z" fill="#333333"/>
<path d="M82.3211 35.7088C83.0254 34.2133 84.5449 33.7738 85.8857 34.4052C87.2179 35.0326 87.7868 36.4556 87.0826 37.9511C86.3823 39.438 84.8926 39.881 83.5605 39.2536C82.2197 38.6222 81.6209 37.1957 82.3211 35.7088ZM86.2833 37.5747C86.8459 36.38 86.3784 35.4773 85.5619 35.0928C84.7454 34.7083 83.683 34.8905 83.1204 36.0852C82.5619 37.2713 83.0809 38.1982 83.8888 38.5787C84.7139 38.9673 85.7247 38.7607 86.2833 37.5747Z" fill="#333333"/>
<path d="M77.7305 31.596L76.08 38.4296L75.2396 38.2266L76.8901 31.3931L77.7305 31.596Z" fill="#333333"/>
<path d="M70.9115 30.4676L70.3567 37.4757L69.4949 37.4075L70.0497 30.3994L70.9115 30.4676Z" fill="#333333"/>
<path d="M57.3031 34.0512C57.7905 35.6009 57.0799 36.9198 55.7387 37.3416C54.9593 37.5867 54.118 37.4131 53.5941 36.9505L54.4206 39.5786L53.5869 39.8408L51.4778 33.1346L52.3115 32.8724L52.6051 33.8058C52.7303 33.159 53.2284 32.4944 54.1346 32.2094C55.4668 31.7905 56.8186 32.5106 57.3031 34.0512ZM53.0953 35.3646C53.4573 36.5155 54.4532 36.9591 55.3595 36.6741C56.2657 36.3891 56.828 35.4853 56.4603 34.3163C56.0927 33.1472 55.1058 32.7007 54.1995 32.9857C53.2933 33.2707 52.7277 34.1955 53.0953 35.3646Z" fill="#333333"/>
<path d="M43.2781 40.4637C42.4099 39.0571 42.8715 37.5441 44.1327 36.7658C45.3857 35.9924 46.8885 36.2929 47.7567 37.6995C48.6199 39.0981 48.1775 40.588 46.9244 41.3614C45.6633 42.1397 44.1413 41.8623 43.2781 40.4637ZM47.0049 38.1635C46.3113 37.0398 45.2998 36.9385 44.5318 37.4125C43.7638 37.8865 43.3363 38.876 44.0299 39.9997C44.7185 41.1153 45.7784 41.1868 46.5383 40.7177C47.3144 40.2387 47.6934 39.2792 47.0049 38.1635Z" fill="#333333"/>
<path d="M36.5617 42.6767L41.5178 44.959L40.9249 45.614L36.8818 43.5687L39.2545 47.4593L38.6616 48.1143L34.5669 46.1119L37.0231 49.9243L36.4493 50.5582L33.68 45.8601L34.2793 45.1981L38.1845 47.0417L35.9624 43.3387L36.5617 42.6767Z" fill="#333333"/>
<path d="M27.1385 56.3056L29.7858 57.596C30.7422 58.0622 31.4829 57.7786 31.8658 56.993C32.253 56.1988 32.0241 55.4108 31.0164 54.9196L28.429 53.6584L28.8078 52.8813L33.4874 55.1624L33.1086 55.9395L32.4425 55.6148C32.7794 56.1595 32.7694 56.8521 32.4614 57.4841C31.9327 58.5686 30.8628 59.0722 29.5221 58.4187L26.7639 57.0741L27.1385 56.3056Z" fill="#333333"/>
</svg>
