        <svg width="43" height="43" viewBox="0 0 43 43" fill="none" xmlns="http://www.w3.org/2000/svg">
                        <rect x="0.453125" y="0.703125" width="41.6634" height="41.6634" rx="13.8878" fill="white" />
                        <path
                            d="M16.1218 12.5931C15.1391 13.5939 15.1391 15.2134 16.14 16.2143L18.3237 18.398C20.3799 20.4542 20.3799 23.8025 18.3237 25.8588L14.3203 21.8554C13.2921 20.8273 12.7735 19.4716 12.7735 18.125C12.7735 16.7784 13.2921 15.4227 14.3203 14.3946L16.0945 12.6203C16.1036 12.6113 16.1127 12.6022 16.1218 12.5931Z"
                            fill="#7600CD" />
                        <path
                            d="M17.8688 17.943L16.14 16.2143C15.1392 15.2134 15.1301 13.603 16.1218 12.593C17.1045 11.6286 18.6694 11.6468 19.643 12.6203C20.1343 13.1116 20.38 13.7576 20.38 14.3945C20.38 15.0314 20.1343 15.6774 19.643 16.1688L19.2336 16.5782"
                            fill="#7600CD" />
                        <path
                            d="M26.4487 30.4721C27.4313 29.4712 27.4313 27.8517 26.4305 26.8508L24.2468 24.6672C22.1905 22.6109 22.1905 19.2626 24.2468 17.2063L28.2502 21.2097C29.2783 22.2379 29.7969 23.5936 29.7969 24.9401C29.7969 26.2867 29.2783 27.6424 28.2502 28.6706L26.4759 30.4448C26.4577 30.463 26.4487 30.4721 26.4487 30.4721Z"
                            fill="#7600CD" />
                        <path
                            d="M24.693 25.1312L26.4217 26.86C27.4226 27.8608 27.4317 29.4713 26.4399 30.4812C25.4573 31.4457 23.8923 31.4275 22.9188 30.4539C22.4274 29.9626 22.1818 29.3166 22.1818 28.6797C22.1818 28.0428 22.4274 27.3968 22.9188 26.9055L23.3373 26.4869"
                            fill="#7600CD" />
                    </svg>
