<svg width="29" height="29" viewBox="0 0 29 29" fill="none" xmlns="http://www.w3.org/2000/svg">
<path d="M25.4298 12.068H8.92273V8.53077C8.92273 7.23024 9.98037 6.17261 11.2809 6.17261C12.5814 6.17261 13.639 7.23024 13.639 8.53077H15.9972C15.9972 5.92972 13.8819 3.81445 11.2809 3.81445C8.67984 3.81445 6.56458 5.92972 6.56458 8.53077V12.068H4.20642C3.89371 12.068 3.59381 12.1922 3.37269 12.4133C3.15157 12.6345 3.02734 12.9344 3.02734 13.2471V15.6052C3.02734 18.6779 5.00112 21.2919 7.74366 22.267V26.2169H10.1018V22.6797H19.5344V26.2169H21.8926V22.267C24.6351 21.2919 26.6089 18.6779 26.6089 15.6052V13.2471C26.6089 12.9344 26.4847 12.6345 26.2636 12.4133C26.0424 12.1922 25.7425 12.068 25.4298 12.068ZM24.2507 15.6052C24.2507 18.2063 22.1355 20.3215 19.5344 20.3215H10.1018C7.50077 20.3215 5.3855 18.2063 5.3855 15.6052V14.4262H24.2507V15.6052Z" fill="#7600CD"/>
</svg>
