<svg width="74" height="74" viewBox="0 0 74 74" fill="none" xmlns="http://www.w3.org/2000/svg">
<rect x="0.5" y="0.5" width="73" height="73" rx="36.5" fill="#141414"/>
<rect x="0.5" y="0.5" width="73" height="73" rx="36.5" stroke="#F1E6FA"/>
<path fill-rule="evenodd" clip-rule="evenodd" d="M35.2835 24.5477C35.9187 23.0206 38.082 23.0206 38.7171 24.5477L41.6666 31.6391L49.3224 32.2529C50.971 32.385 51.6395 34.4424 50.3835 35.5184L44.5506 40.5149L46.3326 47.9857C46.7164 49.5944 44.9662 50.866 43.5548 50.0039L37.0003 46.0005L30.4459 50.0039C29.0345 50.866 27.2843 49.5944 27.6681 47.9857L29.4501 40.5149L23.6172 35.5184C22.3611 34.4424 23.0296 32.385 24.6783 32.2529L32.3341 31.6391L35.2835 24.5477Z" fill="#9133D7"/>
</svg>
