<svg width="92" height="92" viewBox="0 0 92 92" fill="none" xmlns="http://www.w3.org/2000/svg">
<circle cx="45.8002" cy="45.7992" r="44.8875" stroke="#E0DEF7" stroke-width="1.425"/>
<circle cx="45.8004" cy="45.7984" r="39.9" fill="#E0DEF7"/>
<rect x="48.1514" y="35.8242" width="2.85" height="14.25" fill="#7600CD"/>
<rect x="31.5498" y="45.7988" width="2.85" height="14.25" fill="#7600CD"/>
<rect x="55.7754" y="35.8242" width="2.85" height="14.25" fill="#7600CD"/>
<path d="M32.4979 38.1953C29.3439 38.1953 26.7979 40.7413 26.7979 43.8953V59.0953C26.7979 62.2493 29.3439 64.7953 32.4979 64.7953H35.3479C37.4379 64.7953 39.1479 63.0853 39.1479 60.9953V41.9953C39.1479 39.9053 37.4379 38.1953 35.3479 38.1953H32.4979ZM34.3979 55.2953C34.3979 56.0743 33.7519 56.7203 32.9729 56.7203C32.1939 56.7203 31.5479 56.0743 31.5479 55.2953V47.6953C31.5479 46.9163 32.1939 46.2703 32.9729 46.2703C33.7519 46.2703 34.3979 46.9163 34.3979 47.6953V55.2953Z" fill="white"/>
<path d="M59.0971 26.7949H47.6971C44.5431 26.7949 41.9971 29.3409 41.9971 32.4949V59.0949C41.9971 62.2489 44.5431 64.7949 47.6971 64.7949H48.6471C49.1791 64.7949 49.5971 64.3769 49.5971 63.8449V57.1949C49.5971 56.1499 50.4521 55.2949 51.4971 55.2949H55.2971C56.3421 55.2949 57.1971 56.1499 57.1971 57.1949V63.8449C57.1971 64.3769 57.6151 64.7949 58.1471 64.7949H59.0971C62.2511 64.7949 64.7971 62.2489 64.7971 59.0949V32.4949C64.7971 29.3409 62.2511 26.7949 59.0971 26.7949ZM51.0221 47.6949C51.0221 48.4739 50.3761 49.1199 49.5971 49.1199C48.8181 49.1199 48.1721 48.4739 48.1721 47.6949V38.1949C48.1721 37.4159 48.8181 36.7699 49.5971 36.7699C50.3761 36.7699 51.0221 37.4159 51.0221 38.1949V47.6949ZM58.6221 47.6949C58.6221 48.4739 57.9761 49.1199 57.1971 49.1199C56.4181 49.1199 55.7721 48.4739 55.7721 47.6949V38.1949C55.7721 37.4159 56.4181 36.7699 57.1971 36.7699C57.9761 36.7699 58.6221 37.4159 58.6221 38.1949V47.6949Z" fill="white"/>
<rect x="57.2002" y="57.1992" width="34.2" height="34.2" rx="17.1" fill="#7600CD"/>
<path d="M73.8277 82.8527C78.8121 82.8527 82.8527 78.8121 82.8527 73.8277C82.8527 68.8434 78.8121 64.8027 73.8277 64.8027C68.8434 64.8027 64.8027 68.8434 64.8027 73.8277C64.8027 78.8121 68.8434 82.8527 73.8277 82.8527Z" stroke="white" stroke-width="2.85" stroke-linecap="round" stroke-linejoin="round"/>
<path d="M83.8033 83.8023L81.9033 81.9023" stroke="white" stroke-width="2.85" stroke-linecap="round" stroke-linejoin="round"/>
</svg>
