<svg width="92" height="92" viewBox="0 0 92 92" fill="none" xmlns="http://www.w3.org/2000/svg">
<circle cx="46.2006" cy="46.1488" r="44.8875" stroke="#E0DEF7" stroke-width="1.425"/>
<circle cx="46.2008" cy="46.148" r="39.9" fill="#E0DEF7"/>
<g clip-path="url(#clip0_319_96859)">
<path d="M62.752 38.3277L50.0861 28.4853C48.9746 27.6214 47.6065 27.1523 46.1982 27.1523C44.79 27.1523 43.4219 27.6214 42.3104 28.4853L29.6421 38.3277C28.8808 38.9192 28.2648 39.6767 27.8413 40.5424C27.4177 41.408 27.1978 42.3589 27.1982 43.3225V60.4067C27.1982 61.6653 27.6987 62.8724 28.5895 63.7624C29.4803 64.6524 30.6885 65.1523 31.9482 65.1523H60.4482C61.708 65.1523 62.9162 64.6524 63.807 63.7624C64.6978 62.8724 65.1982 61.6653 65.1982 60.4067V43.3225C65.1982 41.3697 64.2957 39.526 62.752 38.3277Z" fill="white" stroke="white" stroke-width="2.85" stroke-linecap="round" stroke-linejoin="round"/>
</g>
<path d="M39.0752 53.2734L53.3252 39.0234" stroke="#7600CD" stroke-width="2.85" stroke-linecap="round" stroke-linejoin="round"/>
<path d="M40.2627 41.3984C40.9185 41.3984 41.4502 40.8668 41.4502 40.2109C41.4502 39.5551 40.9185 39.0234 40.2627 39.0234C39.6069 39.0234 39.0752 39.5551 39.0752 40.2109C39.0752 40.8668 39.6069 41.3984 40.2627 41.3984Z" fill="#7600CD" stroke="#7600CD" stroke-width="2.85" stroke-linecap="round" stroke-linejoin="round"/>
<path d="M52.1377 53.2734C52.7935 53.2734 53.3252 52.7418 53.3252 52.0859C53.3252 51.4301 52.7935 50.8984 52.1377 50.8984C51.4819 50.8984 50.9502 51.4301 50.9502 52.0859C50.9502 52.7418 51.4819 53.2734 52.1377 53.2734Z" fill="#7600CD" stroke="#7600CD" stroke-width="2.85" stroke-linecap="round" stroke-linejoin="round"/>
<rect x="57.6006" y="57.5488" width="34.2" height="34.2" rx="17.1" fill="#7600CD"/>
<path d="M65.5811 75.788C65.5811 75.4856 65.7012 75.1957 65.915 74.9819C66.1287 74.7681 66.4187 74.648 66.7211 74.648H69.0011C69.3034 74.648 69.5934 74.7681 69.8072 74.9819C70.0209 75.1957 70.1411 75.4856 70.1411 75.788V81.488C70.1411 81.7903 70.0209 82.0803 69.8072 82.2941C69.5934 82.5079 69.3034 82.628 69.0011 82.628H66.7211C66.4187 82.628 66.1287 82.5079 65.915 82.2941C65.7012 82.0803 65.5811 81.7903 65.5811 81.488V75.788ZM72.4211 71.228C72.4211 70.9256 72.5412 70.6357 72.755 70.4219C72.9687 70.2081 73.2587 70.088 73.5611 70.088H75.8411C76.1434 70.088 76.4334 70.2081 76.6472 70.4219C76.8609 70.6357 76.9811 70.9256 76.9811 71.228V81.488C76.9811 81.7903 76.8609 82.0803 76.6472 82.2941C76.4334 82.5079 76.1434 82.628 75.8411 82.628H73.5611C73.2587 82.628 72.9687 82.5079 72.755 82.2941C72.5412 82.0803 72.4211 81.7903 72.4211 81.488V71.228ZM79.2611 67.808C79.2611 67.5056 79.3812 67.2157 79.595 67.0019C79.8087 66.7881 80.0987 66.668 80.4011 66.668H82.6811C82.9834 66.668 83.2734 66.7881 83.4872 67.0019C83.7009 67.2157 83.8211 67.5056 83.8211 67.808V81.488C83.8211 81.7903 83.7009 82.0803 83.4872 82.2941C83.2734 82.5079 82.9834 82.628 82.6811 82.628H80.4011C80.0987 82.628 79.8087 82.5079 79.595 82.2941C79.3812 82.0803 79.2611 81.7903 79.2611 81.488V67.808Z" fill="white"/>
<defs>
<clipPath id="clip0_319_96859">
<rect width="45.6" height="45.6" fill="white" transform="translate(23.3975 23.3535)"/>
</clipPath>
</defs>
</svg>
