<svg width="69" height="30" viewBox="0 0 69 30" fill="none" xmlns="http://www.w3.org/2000/svg">
<g clip-path="url(#clip0_319_100150)">
<path d="M15.2178 30.0175C23.502 30.0175 30.2178 23.3018 30.2178 15.0175C30.2178 6.73322 23.502 0.0175781 15.2178 0.0175781C6.9335 0.0175781 0.217773 6.73322 0.217773 15.0175C0.217773 23.3018 6.9335 30.0175 15.2178 30.0175Z" fill="#FFE766"/>
<path d="M0.217773 45C8.50204 45 15.2178 38.2843 15.2178 30C15.2178 21.7157 8.50204 15 0.217773 15C-8.0665 15 -14.7822 21.7157 -14.7822 30C-14.7822 38.2843 -8.0665 45 0.217773 45Z" fill="white"/>
<path d="M30.2178 45C38.502 45 45.2178 38.2843 45.2178 30C45.2178 21.7157 38.502 15 30.2178 15C21.9335 15 15.2178 21.7157 15.2178 30C15.2178 38.2843 21.9335 45 30.2178 45Z" fill="white"/>
<path d="M0.217773 15C8.50204 15 15.2178 8.28427 15.2178 0C15.2178 -8.28427 8.50204 -15 0.217773 -15C-8.0665 -15 -14.7822 -8.28427 -14.7822 0C-14.7822 8.28427 -8.0665 15 0.217773 15Z" fill="white"/>
<path d="M30.2178 15C38.502 15 45.2178 8.28427 45.2178 0C45.2178 -8.28427 38.502 -15 30.2178 -15C21.9335 -15 15.2178 -8.28427 15.2178 0C15.2178 8.28427 21.9335 15 30.2178 15Z" fill="white"/>
</g>
<g clip-path="url(#clip1_319_100150)">
<path d="M45.2178 24.0097C50.1883 24.0097 54.2178 19.9803 54.2178 15.0097C54.2178 10.0392 50.1883 6.00977 45.2178 6.00977C40.2472 6.00977 36.2178 10.0392 36.2178 15.0097C36.2178 19.9803 40.2472 24.0097 45.2178 24.0097Z" fill="#FFD700"/>
<path d="M36.2178 33C41.1883 33 45.2178 28.9706 45.2178 24C45.2178 19.0294 41.1883 15 36.2178 15C31.2472 15 27.2178 19.0294 27.2178 24C27.2178 28.9706 31.2472 33 36.2178 33Z" fill="white"/>
<path d="M54.2178 33C59.1883 33 63.2178 28.9706 63.2178 24C63.2178 19.0294 59.1883 15 54.2178 15C49.2472 15 45.2178 19.0294 45.2178 24C45.2178 28.9706 49.2472 33 54.2178 33Z" fill="white"/>
<path d="M36.2178 15C41.1883 15 45.2178 10.9706 45.2178 6C45.2178 1.02944 41.1883 -3 36.2178 -3C31.2472 -3 27.2178 1.02944 27.2178 6C27.2178 10.9706 31.2472 15 36.2178 15Z" fill="white"/>
<path d="M54.2178 15C59.1883 15 63.2178 10.9706 63.2178 6C63.2178 1.02944 59.1883 -3 54.2178 -3C49.2472 -3 45.2178 1.02944 45.2178 6C45.2178 10.9706 49.2472 15 54.2178 15Z" fill="white"/>
</g>
<g clip-path="url(#clip2_319_100150)">
<path d="M64.4178 19.2066C66.7374 19.2066 68.6178 17.3262 68.6178 15.0066C68.6178 12.687 66.7374 10.8066 64.4178 10.8066C62.0982 10.8066 60.2178 12.687 60.2178 15.0066C60.2178 17.3262 62.0982 19.2066 64.4178 19.2066Z" fill="#FFD700"/>
<path d="M60.2176 23.402C62.5372 23.402 64.4176 21.5215 64.4176 19.202C64.4176 16.8824 62.5372 15.002 60.2176 15.002C57.898 15.002 56.0176 16.8824 56.0176 19.202C56.0176 21.5215 57.898 23.402 60.2176 23.402Z" fill="white"/>
<path d="M68.618 23.402C70.9376 23.402 72.818 21.5215 72.818 19.202C72.818 16.8824 70.9376 15.002 68.618 15.002C66.2984 15.002 64.418 16.8824 64.418 19.202C64.418 21.5215 66.2984 23.402 68.618 23.402Z" fill="white"/>
<path d="M60.2176 15.0016C62.5372 15.0016 64.4176 13.1212 64.4176 10.8016C64.4176 8.48197 62.5372 6.60156 60.2176 6.60156C57.898 6.60156 56.0176 8.48197 56.0176 10.8016C56.0176 13.1212 57.898 15.0016 60.2176 15.0016Z" fill="white"/>
<path d="M68.618 15.0016C70.9376 15.0016 72.818 13.1212 72.818 10.8016C72.818 8.48197 70.9376 6.60156 68.618 6.60156C66.2984 6.60156 64.418 8.48197 64.418 10.8016C64.418 13.1212 66.2984 15.0016 68.618 15.0016Z" fill="white"/>
</g>
<defs>
<clipPath id="clip0_319_100150">
<rect width="30" height="30" fill="white" transform="translate(0.217773)"/>
</clipPath>
<clipPath id="clip1_319_100150">
<rect width="18" height="18" fill="white" transform="translate(36.2178 6)"/>
</clipPath>
<clipPath id="clip2_319_100150">
<rect width="8.4" height="8.4" fill="white" transform="translate(60.2178 10.8008)"/>
</clipPath>
</defs>
</svg>
