<svg width="70" height="30" viewBox="0 0 70 30" fill="none" xmlns="http://www.w3.org/2000/svg">
<g clip-path="url(#clip0_126_91669)">
<path d="M15.7178 30.0175C24.002 30.0175 30.7178 23.3018 30.7178 15.0175C30.7178 6.73322 24.002 0.0175781 15.7178 0.0175781C7.4335 0.0175781 0.717773 6.73322 0.717773 15.0175C0.717773 23.3018 7.4335 30.0175 15.7178 30.0175Z" fill="#FFD700"/>
<path d="M0.717773 45C9.00204 45 15.7178 38.2843 15.7178 30C15.7178 21.7157 9.00204 15 0.717773 15C-7.5665 15 -14.2822 21.7157 -14.2822 30C-14.2822 38.2843 -7.5665 45 0.717773 45Z" fill="#141414"/>
<path d="M30.7178 45C39.002 45 45.7178 38.2843 45.7178 30C45.7178 21.7157 39.002 15 30.7178 15C22.4335 15 15.7178 21.7157 15.7178 30C15.7178 38.2843 22.4335 45 30.7178 45Z" fill="#141414"/>
<path d="M0.717773 15C9.00204 15 15.7178 8.28427 15.7178 0C15.7178 -8.28427 9.00204 -15 0.717773 -15C-7.5665 -15 -14.2822 -8.28427 -14.2822 0C-14.2822 8.28427 -7.5665 15 0.717773 15Z" fill="#141414"/>
<path d="M30.7178 15C39.002 15 45.7178 8.28427 45.7178 0C45.7178 -8.28427 39.002 -15 30.7178 -15C22.4335 -15 15.7178 -8.28427 15.7178 0C15.7178 8.28427 22.4335 15 30.7178 15Z" fill="#141414"/>
</g>
<g clip-path="url(#clip1_126_91669)">
<path d="M45.7178 24.0097C50.6883 24.0097 54.7178 19.9803 54.7178 15.0097C54.7178 10.0392 50.6883 6.00977 45.7178 6.00977C40.7472 6.00977 36.7178 10.0392 36.7178 15.0097C36.7178 19.9803 40.7472 24.0097 45.7178 24.0097Z" fill="#FFE766"/>
<path d="M36.7178 33C41.6883 33 45.7178 28.9706 45.7178 24C45.7178 19.0294 41.6883 15 36.7178 15C31.7472 15 27.7178 19.0294 27.7178 24C27.7178 28.9706 31.7472 33 36.7178 33Z" fill="#141414"/>
<path d="M54.7178 33C59.6883 33 63.7178 28.9706 63.7178 24C63.7178 19.0294 59.6883 15 54.7178 15C49.7472 15 45.7178 19.0294 45.7178 24C45.7178 28.9706 49.7472 33 54.7178 33Z" fill="#141414"/>
<path d="M36.7178 15C41.6883 15 45.7178 10.9706 45.7178 6C45.7178 1.02944 41.6883 -3 36.7178 -3C31.7472 -3 27.7178 1.02944 27.7178 6C27.7178 10.9706 31.7472 15 36.7178 15Z" fill="#141414"/>
<path d="M54.7178 15C59.6883 15 63.7178 10.9706 63.7178 6C63.7178 1.02944 59.6883 -3 54.7178 -3C49.7472 -3 45.7178 1.02944 45.7178 6C45.7178 10.9706 49.7472 15 54.7178 15Z" fill="#141414"/>
</g>
<g clip-path="url(#clip2_126_91669)">
<path d="M64.9178 19.2066C67.2374 19.2066 69.1178 17.3262 69.1178 15.0066C69.1178 12.687 67.2374 10.8066 64.9178 10.8066C62.5982 10.8066 60.7178 12.687 60.7178 15.0066C60.7178 17.3262 62.5982 19.2066 64.9178 19.2066Z" fill="#FFEF99"/>
<path d="M60.7176 23.402C63.0372 23.402 64.9176 21.5215 64.9176 19.202C64.9176 16.8824 63.0372 15.002 60.7176 15.002C58.398 15.002 56.5176 16.8824 56.5176 19.202C56.5176 21.5215 58.398 23.402 60.7176 23.402Z" fill="#141414"/>
<path d="M69.118 23.402C71.4376 23.402 73.318 21.5215 73.318 19.202C73.318 16.8824 71.4376 15.002 69.118 15.002C66.7984 15.002 64.918 16.8824 64.918 19.202C64.918 21.5215 66.7984 23.402 69.118 23.402Z" fill="#141414"/>
<path d="M60.7176 15.0016C63.0372 15.0016 64.9176 13.1212 64.9176 10.8016C64.9176 8.48197 63.0372 6.60156 60.7176 6.60156C58.398 6.60156 56.5176 8.48197 56.5176 10.8016C56.5176 13.1212 58.398 15.0016 60.7176 15.0016Z" fill="#141414"/>
<path d="M69.118 15.0016C71.4376 15.0016 73.318 13.1212 73.318 10.8016C73.318 8.48197 71.4376 6.60156 69.118 6.60156C66.7984 6.60156 64.918 8.48197 64.918 10.8016C64.918 13.1212 66.7984 15.0016 69.118 15.0016Z" fill="#141414"/>
</g>
<defs>
<clipPath id="clip0_126_91669">
<rect width="30" height="30" fill="white" transform="translate(0.717773)"/>
</clipPath>
<clipPath id="clip1_126_91669">
<rect width="18" height="18" fill="white" transform="translate(36.7178 6)"/>
</clipPath>
<clipPath id="clip2_126_91669">
<rect width="8.4" height="8.4" fill="white" transform="translate(60.7178 10.8008)"/>
</clipPath>
</defs>
</svg>
