<svg width="76" height="76" viewBox="0 0 76 76" fill="none" xmlns="http://www.w3.org/2000/svg">
<rect width="76" height="76" rx="10" fill="#F1E6FA"/>
<path opacity="0.2" d="M24.6558 30.4922C24.5538 30.6652 24.5 30.8625 24.5 31.0634V44.935C24.5 45.1346 24.5531 45.3306 24.6539 45.5029C24.7547 45.6752 24.8995 45.8176 25.0735 45.9155L37.4485 52.8764C37.6168 52.9712 37.8068 53.0209 38 53.0209L38.0015 53.0209L38.1335 37.9992L24.6558 30.4922L24.6558 30.4922Z" fill="#7600CD"/>
<path d="M51.5 44.9341V31.0625C51.5 30.8629 51.4469 30.6669 51.3461 30.4945C51.2453 30.3222 51.1005 30.1798 50.9265 30.082L38.5515 23.121C38.3832 23.0263 38.1932 22.9766 38 22.9766C37.8068 22.9766 37.6168 23.0263 37.4485 23.121L25.0735 30.082C24.8995 30.1798 24.7547 30.3222 24.6539 30.4945C24.5531 30.6669 24.5 30.8629 24.5 31.0625V44.9341C24.5 45.1337 24.5531 45.3297 24.6539 45.502C24.7547 45.6744 24.8995 45.8167 25.0735 45.9146L37.4485 52.8756C37.6168 52.9703 37.8068 53.02 38 53.02C38.1932 53.02 38.3832 52.9703 38.5515 52.8756L50.9265 45.9146C51.1005 45.8167 51.2453 45.6744 51.3461 45.502C51.4469 45.3297 51.5 45.1337 51.5 44.9341Z" stroke="#7600CD" stroke-width="2" stroke-linecap="round" stroke-linejoin="round"/>
<path d="M44.8937 41.4469V34.1344L31.25 26.6094" stroke="#7600CD" stroke-width="2" stroke-linecap="round" stroke-linejoin="round"/>
<path d="M51.3453 30.4936L38.1339 37.9992L24.6562 30.4922" stroke="#7600CD" stroke-width="2" stroke-linecap="round" stroke-linejoin="round"/>
<path d="M38.132 38L38 53.0217" stroke="#7600CD" stroke-width="2" stroke-linecap="round" stroke-linejoin="round"/>
</svg>
