      <svg width="19" height="22" viewBox="0 0 19 22" fill="none" xmlns="http://www.w3.org/2000/svg">
                        <path
                            d="M9.5 0.578125C9.87288 0.578143 10.2324 0.717045 10.5084 0.967744C10.7844 1.21844 10.9572 1.56296 10.993 1.93412L11 2.07812V18.0781C10.9998 18.4633 10.8514 18.8337 10.5856 19.1125C10.3198 19.3913 9.95686 19.5571 9.57209 19.5756C9.18731 19.5942 8.81017 19.4639 8.5188 19.212C8.22743 18.96 8.04417 18.6055 8.007 18.2221L8 18.0781V2.07812C8 1.6803 8.15804 1.29877 8.43934 1.01746C8.72064 0.73616 9.10218 0.578125 9.5 0.578125ZM5.5 3.57812C5.89782 3.57812 6.27936 3.73616 6.56066 4.01746C6.84196 4.29877 7 4.6803 7 5.07812V15.0781C7 15.4759 6.84196 15.8575 6.56066 16.1388C6.27936 16.4201 5.89782 16.5781 5.5 16.5781C5.10218 16.5781 4.72064 16.4201 4.43934 16.1388C4.15804 15.8575 4 15.4759 4 15.0781V5.07812C4 4.6803 4.15804 4.29877 4.43934 4.01746C4.72064 3.73616 5.10218 3.57812 5.5 3.57812ZM13.5 3.57812C13.8978 3.57812 14.2794 3.73616 14.5607 4.01746C14.842 4.29877 15 4.6803 15 5.07812V15.0781C15 15.4759 14.842 15.8575 14.5607 16.1388C14.2794 16.4201 13.8978 16.5781 13.5 16.5781C13.1022 16.5781 12.7206 16.4201 12.4393 16.1388C12.158 15.8575 12 15.4759 12 15.0781V5.07812C12 4.6803 12.158 4.29877 12.4393 4.01746C12.7206 3.73616 13.1022 3.57812 13.5 3.57812ZM1.5 6.57812C1.89782 6.57812 2.27936 6.73616 2.56066 7.01746C2.84196 7.29877 3 7.6803 3 8.07812V12.0781C3 12.4759 2.84196 12.8575 2.56066 13.1388C2.27936 13.4201 1.89782 13.5781 1.5 13.5781C1.10218 13.5781 0.720644 13.4201 0.43934 13.1388C0.158035 12.8575 0 12.4759 0 12.0781V8.07812C0 7.6803 0.158035 7.29877 0.43934 7.01746C0.720644 6.73616 1.10218 6.57812 1.5 6.57812ZM17.5 6.57812C17.8729 6.57814 18.2324 6.71704 18.5084 6.96774C18.7844 7.21844 18.9572 7.56296 18.993 7.93412L19 8.07812V12.0781C18.9998 12.4633 18.8514 12.8337 18.5856 13.1125C18.3198 13.3913 17.9569 13.5571 17.5721 13.5756C17.1873 13.5942 16.8102 13.4639 16.5188 13.2119C16.2274 12.96 16.0442 12.6055 16.007 12.2221L16 12.0781V8.07812C16 7.6803 16.158 7.29877 16.4393 7.01746C16.7206 6.73616 17.1022 6.57812 17.5 6.57812Z"
                            fill="#7600CD" />
                    </svg>