<svg width="41" height="41" viewBox="0 0 41 41" fill="none" xmlns="http://www.w3.org/2000/svg">
<circle cx="20.3438" cy="20.3047" r="19.5" fill="white" stroke="#F2F2F2"/>
<g clip-path="url(#clip0_319_125574)">
<path d="M20.3438 13.8477C14.0938 13.8477 11.5938 20.3067 11.5938 20.3067C11.5938 20.3067 14.0938 26.7643 20.3438 26.7643C26.5938 26.7643 29.0938 20.3067 29.0938 20.3067C29.0938 20.3067 26.5938 13.8477 20.3438 13.8477V13.8477Z" stroke="#1A1A1A" stroke-width="1.5" stroke-linecap="round" stroke-linejoin="round"/>
<path d="M20.3438 23.4297C21.1726 23.4297 21.9674 23.1004 22.5535 22.5144C23.1395 21.9283 23.4688 21.1335 23.4688 20.3047C23.4688 19.4759 23.1395 18.681 22.5535 18.095C21.9674 17.5089 21.1726 17.1797 20.3438 17.1797C19.5149 17.1797 18.7201 17.5089 18.134 18.095C17.548 18.681 17.2188 19.4759 17.2188 20.3047C17.2188 21.1335 17.548 21.9283 18.134 22.5144C18.7201 23.1004 19.5149 23.4297 20.3438 23.4297V23.4297Z" stroke="#1A1A1A" stroke-width="1.5" stroke-linecap="round" stroke-linejoin="round"/>
</g>
<defs>
<clipPath id="clip0_319_125574">
<rect width="20" height="20" fill="white" transform="translate(10.3438 10.3047)"/>
</clipPath>
</defs>
</svg>
