<svg width="147" height="147" viewBox="0 0 147 147" fill="none" xmlns="http://www.w3.org/2000/svg">
<path opacity="0.2" d="M14.6633 64.4008L8.93979 59.0561C7.13706 57.3727 7.27259 54.4748 9.22457 52.967L60.1586 13.6233C61.5908 12.5171 63.5872 12.5101 65.027 13.6064L116.221 52.5858C118.353 54.2094 118.317 57.4297 116.148 59.0047L108.034 64.8979C106.596 65.9422 104.642 65.9127 103.236 64.8253L102.299 64.1V111.748C102.299 113.957 100.508 115.748 98.2986 115.748H26.8741C24.665 115.748 22.8741 113.957 22.8741 111.748V62.4244L19.7547 64.7059C18.2044 65.8397 16.0671 65.7116 14.6633 64.4008Z" fill="#7600CD"/>
<path d="M32.8741 72.4244L29.7547 74.7059C28.2044 75.8397 26.0671 75.7116 24.6633 74.4008L18.9398 69.0561C17.1371 67.3727 17.2726 64.4748 19.2246 62.967L70.1586 23.6233C71.5908 22.5171 73.5872 22.5101 75.027 23.6064L126.221 62.5858C128.353 64.2094 128.317 67.4297 126.148 69.0047L118.034 74.8979C116.596 75.9422 114.642 75.9127 113.236 74.8253L112.299 74.1M32.8741 72.4244L70.1576 45.1564C71.596 44.1044 73.5568 44.1308 74.9664 45.2212L112.299 74.1M32.8741 72.4244V121.748C32.8741 123.957 34.665 125.748 36.8741 125.748H108.299C110.508 125.748 112.299 123.957 112.299 121.748V74.1" stroke="#333333" stroke-width="4"/>
<path d="M52.5 82.8398V81.948L58.2273 86.9942L65.8636 79.425L59.5 73.748H61.1603C65.0092 73.748 68.7237 75.1641 71.5959 77.7263L72.317 78.3697C73.0858 79.0555 73.6173 79.9675 73.835 80.9744L75.3161 87.8255C75.3767 88.1059 75.5198 88.3618 75.7269 88.5602L90.5786 102.791C92.7533 104.874 92.8513 108.318 90.7987 110.522C88.656 112.823 85.0253 112.867 82.8278 110.619L67.5592 94.9961C67.2888 94.7194 66.9183 94.5634 66.5314 94.5634H59.7756C58.7896 94.5634 57.8493 94.1472 57.1864 93.4171L56.1407 92.2654C53.7979 89.6852 52.5 86.3249 52.5 82.8398Z" stroke="#333333" stroke-width="4" stroke-linejoin="round"/>
<circle cx="86.2969" cy="106.438" r="2" fill="#333333"/>
</svg>
